<svg width="591" height="495" viewBox="0 0 591 495" fill="none" xmlns="http://www.w3.org/2000/svg">
<path d="M320.304 494.108C467.07 494.108 586.047 488.191 586.047 480.892C586.047 473.593 467.07 467.677 320.304 467.677C173.538 467.677 54.5605 473.593 54.5605 480.892C54.5605 488.191 173.538 494.108 320.304 494.108Z" fill="#FE9100"/>
<path d="M494.655 412.745C498.969 407.722 503.137 402.482 508.421 398.501C513.284 394.854 520.898 392.697 524.951 397.242C528.874 401.642 526.297 408.532 523.561 413.758C534.577 406.072 546.055 398.936 558.402 393.667C564.511 391.061 571.184 388.876 577.726 390.062C584.269 391.249 590.421 396.88 590.03 403.524C589.639 410.125 583.342 414.8 577.133 417.058C570.923 419.316 564.076 420.214 558.634 423.948C562.933 425.034 568.043 426.973 568.694 431.359C569.287 435.325 565.466 438.77 561.543 439.566C557.621 440.377 553.597 439.19 549.587 439.031C527.354 438.075 542.827 446.239 544.159 448.859C545.505 451.479 545.824 454.837 544.202 457.298C542.364 460.092 538.688 460.96 535.358 461.293C515.34 463.291 465.763 449.062 463.997 446.312C461.566 442.548 487.447 421.14 494.655 412.745Z" fill="url(#paint0_linear_517_1753)"/>
<path d="M440.171 453.028C440.128 452.956 440.128 452.869 440.157 452.811C440.171 452.782 440.2 452.739 440.287 452.71C451.534 449.858 460.161 447.6 468.296 445.371C475.852 443.301 482.785 441.303 489.487 439.277L489.617 439.234L489.69 439.118C492.093 434.819 495.074 430.795 497.955 426.901L498.36 426.351C501.024 422.747 503.774 419.012 506.973 415.842C507.031 415.784 507.074 415.784 507.103 415.784C507.161 415.799 507.233 415.842 507.262 415.915C507.335 416.045 507.262 416.117 507.233 416.146C503.933 419.418 501.125 423.253 498.404 426.973L497.94 427.596C495.552 430.838 492.845 434.529 490.616 438.322L490.167 439.089L491.021 438.828C519.349 430.187 543.29 420.807 564.221 410.154C564.365 410.081 564.452 410.183 564.481 410.24C564.51 410.298 564.525 410.356 564.51 410.4C564.51 410.414 564.496 410.458 564.423 410.487C555.898 414.829 546.938 418.94 537.79 422.718C535.025 423.861 532 425.063 528.54 426.394L527.339 426.887L528.656 427.06C535.835 427.176 542.87 427.581 549.543 428.262C549.616 428.276 549.659 428.305 549.702 428.349C549.746 428.421 549.746 428.537 549.702 428.609C549.688 428.624 549.659 428.667 549.572 428.652C542.103 427.885 534.229 427.466 526.166 427.422L526.05 427.393L525.877 427.422C510.794 433.14 493.96 438.582 474.419 444.068L472.175 444.647L474.506 444.748L476.503 444.763C483.48 444.806 490.689 444.85 497.752 445.327C505.482 445.834 513.588 447.021 523.271 449.047C523.3 449.076 523.329 449.105 523.344 449.12C523.387 449.192 523.373 449.25 523.315 449.323C523.257 449.395 523.184 449.424 523.083 449.409C513.298 447.354 505.048 446.167 497.101 445.675C490.211 445.241 483.176 445.197 476.387 445.154C474.549 445.139 472.711 445.125 470.872 445.11L470.8 445.096L470.67 445.11C461.898 447.542 452.258 450.075 440.36 453.086C440.287 453.115 440.229 453.115 440.171 453.028Z" fill="#07214F"/>
<path d="M461.768 376.471C462.564 371.897 463.476 367.048 466.617 363.632C469.758 360.215 475.924 359.159 478.863 362.749C481.034 365.397 480.614 369.219 480.932 372.62C481.251 376.022 483.48 380.046 486.867 379.626C490.877 379.134 491.412 373.605 491.108 369.566C490.327 359.332 491.282 348.969 493.902 339.053C495.06 334.682 496.753 330.093 500.473 327.531C504.193 324.969 510.418 325.751 511.938 329.992C513.255 333.683 510.881 338.706 513.877 341.239C515.773 342.846 518.856 342.136 520.622 340.385C522.388 338.619 523.17 336.129 523.894 333.741C526.687 324.549 529.915 314.866 537.283 308.714C544.651 302.562 557.533 302.041 562.686 310.147C566.464 316.096 564.061 325.056 557.808 328.313C563.338 326.779 569.142 331.903 569.735 337.606C570.329 343.309 566.869 348.809 562.324 352.312C557.779 355.815 552.25 357.726 546.88 359.752C543.855 360.896 540.699 362.213 538.788 364.818C536.892 367.424 536.936 371.723 539.7 373.359C541.22 374.256 543.102 374.169 544.81 374.603C549.587 375.819 552.395 381.247 552.004 386.169C551.613 391.09 548.747 395.462 545.447 399.138C537.804 407.649 527.353 413.584 516.135 415.77C513.848 416.219 511.46 416.537 509.535 417.84C507.61 419.142 506.336 421.777 507.407 423.832C508.131 425.222 509.694 425.989 510.447 427.364C512.43 430.997 507.653 434.5 503.759 435.919C492.44 440.03 481.106 444.155 469.787 448.266C461.58 451.248 448.292 458.948 449.884 445.009C452.504 422.095 457.932 399.225 461.768 376.471Z" fill="url(#paint1_linear_517_1753)"/>
<path opacity="0.51" d="M521.824 392.74C504.15 402.67 487.518 414.308 472.117 427.48C491.007 403.828 508.796 379.293 525.37 353.948C526.745 351.849 528.091 349.75 529.452 347.651C536.414 343.294 543.927 340.009 551.859 337.823C552.583 337.62 552.192 336.52 551.468 336.723C544.231 338.706 537.341 341.63 530.885 345.437C536.878 336.057 542.696 326.576 548.371 317.008C548.747 316.357 547.69 315.879 547.314 316.516C534.677 337.866 521.216 358.71 506.987 379.018C506.292 369.146 505.612 359.275 504.917 349.417C504.859 348.665 503.701 348.766 503.759 349.519C504.483 359.839 505.207 370.16 505.93 380.48C505.93 380.509 505.945 380.524 505.945 380.553C492.15 400.151 477.618 419.215 462.39 437.728C466.906 418.607 470.395 399.254 472.798 379.756C472.884 379.018 471.741 378.801 471.64 379.554C469.135 399.804 465.488 419.895 460.711 439.74C459.611 441.072 458.525 442.389 457.425 443.706C453.329 448.599 449.189 453.433 445.006 458.239L445.889 458.992C453.517 450.234 460.986 441.332 468.296 432.3C468.383 432.286 468.455 432.242 468.542 432.184C485.116 417.478 503.209 404.581 522.519 393.725C523.141 393.334 522.475 392.379 521.824 392.74Z" fill="#0041AB"/>
<path d="M460.275 129.936H198.179C189.987 129.936 183.343 136.58 183.343 144.772V461.51C183.343 469.703 189.987 476.347 198.179 476.347H460.275C468.468 476.347 475.112 469.703 475.112 461.51V144.772C475.112 136.58 468.468 129.936 460.275 129.936Z" fill="url(#paint2_linear_517_1753)"/>
<path d="M475.113 169.901V150.07C475.113 138.939 466.095 129.921 454.964 129.921H203.478C192.347 129.921 183.329 138.939 183.329 150.07V169.901H475.113Z" fill="#403657"/>
<path d="M436.438 351.328H223.355C216.711 351.328 211.312 345.943 211.312 339.285V230.13C211.312 223.486 216.696 218.087 223.355 218.087H436.438C443.082 218.087 448.481 223.472 448.481 230.13V339.285C448.467 345.943 443.082 351.328 436.438 351.328Z" fill="url(#paint3_linear_517_1753)"/>
<path d="M261.278 238.294H234.63V332.887H261.278V238.294Z" fill="url(#paint4_linear_517_1753)"/>
<path d="M301.242 270.255H274.594V332.902H301.242V270.255Z" fill="url(#paint5_linear_517_1753)"/>
<path d="M341.221 290.78H314.573V332.902H341.221V290.78Z" fill="url(#paint6_linear_517_1753)"/>
<path d="M377.858 263.799H351.21V332.887H377.858V263.799Z" fill="url(#paint7_linear_517_1753)"/>
<path d="M415.826 274.105H389.178V332.902H415.826V274.105Z" fill="url(#paint8_linear_517_1753)"/>
<path d="M260.697 431.605H232.673C231.805 431.605 231.096 430.896 231.096 430.028V429C231.096 428.131 231.805 427.422 232.673 427.422H260.697C261.565 427.422 262.274 428.131 262.274 429V430.028C262.274 430.896 261.565 431.605 260.697 431.605Z" fill="#D0D3D8"/>
<path d="M260.697 441.94H232.673C231.805 441.94 231.096 441.231 231.096 440.363V439.335C231.096 438.467 231.805 437.757 232.673 437.757H260.697C261.565 437.757 262.274 438.467 262.274 439.335V440.363C262.274 441.231 261.565 441.94 260.697 441.94Z" fill="#D0D3D8"/>
<path d="M346.692 431.605H318.669C317.8 431.605 317.091 430.896 317.091 430.028V429C317.091 428.131 317.8 427.422 318.669 427.422H346.692C347.56 427.422 348.27 428.131 348.27 429V430.028C348.27 430.896 347.575 431.605 346.692 431.605Z" fill="#D0D3D8"/>
<path d="M346.692 441.94H318.669C317.8 441.94 317.091 441.231 317.091 440.363V439.335C317.091 438.466 317.8 437.757 318.669 437.757H346.692C347.56 437.757 348.27 438.466 348.27 439.335V440.363C348.27 441.231 347.575 441.94 346.692 441.94Z" fill="#D0D3D8"/>
<path d="M431.616 431.605H403.592C402.724 431.605 402.015 430.896 402.015 430.028V429C402.015 428.131 402.724 427.422 403.592 427.422H431.616C432.484 427.422 433.193 428.131 433.193 429V430.028C433.208 430.896 432.499 431.605 431.616 431.605Z" fill="#D0D3D8"/>
<path d="M431.616 441.94H403.592C402.724 441.94 402.015 441.231 402.015 440.363V439.335C402.015 438.466 402.724 437.757 403.592 437.757H431.616C432.484 437.757 433.193 438.466 433.193 439.335V440.363C433.208 441.231 432.499 441.94 431.616 441.94Z" fill="#D0D3D8"/>
<path d="M262.84 412.86H233.065C229.852 412.86 227.246 410.255 227.246 407.042V377.267C227.246 374.053 229.852 371.448 233.065 371.448H262.84C266.053 371.448 268.659 374.053 268.659 377.267V407.042C268.659 410.255 266.053 412.86 262.84 412.86Z" fill="url(#paint9_linear_517_1753)"/>
<path d="M254.69 394.043L242.69 399.862C241.938 400.224 241.055 399.674 241.055 398.834L241.142 387.037C241.142 386.198 242.039 385.648 242.792 386.024L254.704 392.017C255.544 392.422 255.544 393.624 254.69 394.043Z" fill="url(#paint10_linear_517_1753)"/>
<path d="M346.923 412.86H317.134C313.921 412.86 311.315 410.255 311.315 407.042V377.267C311.315 374.053 313.921 371.448 317.134 371.448H346.909C350.122 371.448 352.728 374.053 352.728 377.267V407.042C352.728 410.255 350.137 412.86 346.923 412.86Z" fill="url(#paint11_linear_517_1753)"/>
<path d="M344.636 383.766C343.507 382.492 342.248 382.507 340.497 382.927C340.308 382.579 340.149 382.319 340.149 382.319C338.962 380.784 337.486 380.118 335.315 380.697C333.693 381.132 332.449 382.275 331.725 383.708C331.001 385.141 330.798 386.864 331.233 388.499C331.233 388.499 331.349 388.76 331.421 389.223C328.873 388.369 325.457 388.109 320.941 389.295C320.941 389.295 323.054 394.651 327.614 396.446C326.282 397.618 320.738 398.704 318.394 400.007C318.394 400.007 328.931 407.78 339.831 400.571C344.709 397.343 342.943 389.223 341.886 385.793C343.406 384.331 344.636 383.766 344.636 383.766Z" fill="url(#paint12_linear_517_1753)"/>
<path d="M432.426 412.86H402.651C399.437 412.86 396.832 410.255 396.832 407.042V377.267C396.832 374.053 399.437 371.448 402.651 371.448H432.426C435.639 371.448 438.244 374.053 438.244 377.267V407.042C438.244 410.255 435.639 412.86 432.426 412.86Z" fill="url(#paint13_linear_517_1753)"/>
<path d="M418.095 386.791C415.287 386.791 413.029 389.064 413.029 391.872C413.029 394.68 415.302 396.938 418.095 396.938C420.889 396.938 423.176 394.666 423.176 391.872C423.162 389.064 420.889 386.791 418.095 386.791Z" fill="url(#paint14_linear_517_1753)"/>
<path d="M424.276 379.829H411.914C408.672 379.829 406.052 382.449 406.052 385.691V398.053C406.052 401.295 408.672 403.915 411.914 403.915H424.276C427.518 403.915 430.138 401.295 430.138 398.053V385.691C430.138 382.449 427.503 379.829 424.276 379.829ZM418.095 399.529C413.868 399.529 410.438 396.099 410.438 391.872C410.438 387.631 413.868 384.2 418.095 384.2C422.336 384.2 425.766 387.631 425.766 391.872C425.752 396.099 422.321 399.529 418.095 399.529Z" fill="url(#paint15_linear_517_1753)"/>
<path d="M529.579 55.2888C529.55 50.5122 528.696 45.9381 527.133 41.7115L535.167 33.8082C537.251 31.7673 537.439 28.4815 535.63 26.1944L529.999 19.1307C528.175 16.8582 524.933 16.3081 522.472 17.8859L513.57 23.589C509.879 20.8388 505.696 18.711 501.165 17.3648L499.978 6.00207C499.674 3.1071 497.228 0.892456 494.319 0.892456H485.272C482.363 0.892456 479.916 3.09263 479.612 6.00207L478.425 17.3648C474.257 18.6096 470.377 20.5058 466.903 22.9666L456.293 16.1779C453.833 14.6001 450.59 15.1357 448.766 17.4227L443.136 24.4864C441.312 26.7734 441.515 30.0447 443.599 32.1002L452.718 41.0601C451.357 44.563 450.474 48.2975 450.156 52.1912L437.013 56.6639C434.248 57.6048 432.641 60.4708 433.293 63.3224L435.305 72.1375C435.956 74.9746 438.649 76.8708 441.543 76.5234L455.049 74.8877C456.814 78.0433 458.986 80.9238 461.504 83.4713L456.641 96.9763C455.656 99.7266 456.901 102.766 459.521 104.026L467.671 107.948C470.29 109.208 473.46 108.296 474.98 105.806L481.957 94.5011C484.49 95.0078 487.096 95.2683 489.774 95.2683C490.932 95.2683 492.075 95.2104 493.219 95.1091L500.398 106.747C501.932 109.222 505.088 110.148 507.708 108.889L515.857 104.966C518.477 103.707 519.736 100.653 518.738 97.9172L514.641 86.5255C517.942 83.8766 520.808 80.7211 523.124 77.1603L535.326 78.6367C538.221 78.9841 540.913 77.0879 541.565 74.2509L543.577 65.4357C544.228 62.5986 542.621 59.7181 539.856 58.7773L529.579 55.2888ZM491.713 74.3956C478.585 76.5524 467.396 65.3633 469.552 52.2347C470.855 44.288 477.267 37.8756 485.214 36.5729C498.343 34.4161 509.532 45.6052 507.375 58.7338C506.072 66.6805 499.66 73.0929 491.713 74.3956ZM490.483 67.245C482.319 68.5767 475.371 61.6288 476.717 53.4795C477.528 48.5436 481.508 44.5485 486.459 43.7379C494.623 42.4062 501.571 49.3542 500.224 57.5035C499.414 62.4539 495.419 66.4344 490.483 67.245Z" fill="url(#paint16_linear_517_1753)"/>
<path d="M340.147 35.4873C340.133 32.8385 339.655 30.3053 338.787 27.946L343.245 23.5601C344.403 22.431 344.504 20.6072 343.506 19.3334L340.379 15.4108C339.366 14.1514 337.571 13.8475 336.21 14.716L331.274 17.886C329.219 16.3516 326.903 15.1792 324.384 14.4265L323.733 8.11545C323.559 6.50874 322.213 5.27838 320.592 5.27838H315.569C313.948 5.27838 312.587 6.49427 312.428 8.11545L311.777 14.4265C309.461 15.1213 307.304 16.1779 305.379 17.5386L299.488 13.7751C298.127 12.9066 296.318 13.1961 295.319 14.4699L292.192 18.3926C291.179 19.6519 291.295 21.4757 292.453 22.6192L297.519 27.5986C296.766 29.5382 296.274 31.6081 296.101 33.7793L288.805 36.2545C287.271 36.7756 286.388 38.3678 286.75 39.9456L287.864 44.8381C288.226 46.4158 289.717 47.4725 291.324 47.2699L298.822 46.3579C299.806 48.1094 301.007 49.7161 302.412 51.1201L299.719 58.6181C299.169 60.138 299.864 61.8315 301.326 62.5408L305.842 64.712C307.304 65.4213 309.055 64.9002 309.909 63.5251L313.774 57.243C315.178 57.518 316.626 57.6772 318.117 57.6772C318.754 57.6772 319.391 57.6483 320.027 57.5904L324.008 64.0606C324.862 65.4358 326.613 65.9568 328.075 65.2476L332.592 63.0764C334.053 62.3671 334.748 60.688 334.198 59.1537L331.926 52.8282C333.764 51.3662 335.342 49.6003 336.63 47.6317L343.404 48.4568C345.011 48.645 346.502 47.6028 346.864 46.025L347.978 41.1325C348.34 39.5548 347.443 37.9625 345.908 37.4414L340.147 35.4873ZM320.1 51.8149C308.853 53.6677 299.256 44.0709 301.109 32.824C302.223 26.0063 307.724 20.5204 314.527 19.3913C325.774 17.5386 335.371 27.1354 333.518 38.3823C332.418 45.2 326.917 50.6859 320.1 51.8149ZM315.844 27.0196C312.24 27.613 309.33 30.5225 308.751 34.1267C307.782 40.0759 312.833 45.1421 318.797 44.1722C322.401 43.5788 325.311 40.6693 325.89 37.0651C326.859 31.1159 321.808 26.0497 315.844 27.0196Z" fill="#FFB400"/>
<path d="M412.449 76.7984C412.434 74.0192 411.928 71.3559 411.016 68.8951L415.691 64.2922C416.907 63.1052 417.023 61.1945 415.966 59.8629L412.68 55.752C411.624 54.4203 409.727 54.1164 408.294 55.0283L403.112 58.343C400.956 56.7363 398.524 55.5059 395.889 54.7243L395.195 48.1093C395.021 46.4157 393.602 45.142 391.894 45.142H386.626C384.932 45.142 383.499 46.4302 383.325 48.1093L382.63 54.7243C380.199 55.448 377.941 56.5626 375.914 57.9811L369.733 54.0295C368.3 53.1176 366.419 53.4216 365.348 54.7533L362.062 58.8641C361.005 60.1958 361.121 62.1065 362.337 63.2934L367.649 68.5188C366.853 70.5598 366.346 72.731 366.158 75.0035L358.501 77.609C356.894 78.159 355.953 79.8236 356.33 81.4882L357.502 86.6268C357.879 88.2769 359.442 89.3915 361.135 89.1744L368.995 88.219C370.023 90.0573 371.282 91.7364 372.759 93.2273L369.922 101.102C369.343 102.694 370.066 104.474 371.601 105.212L376.348 107.5C377.883 108.238 379.721 107.702 380.604 106.255L384.657 99.6686C386.133 99.9581 387.653 100.117 389.217 100.117C389.897 100.117 390.563 100.088 391.214 100.031L395.397 106.819C396.295 108.267 398.133 108.802 399.653 108.064L404.401 105.777C405.935 105.039 406.659 103.273 406.08 101.666L403.691 95.0367C405.617 93.4879 407.281 91.6496 408.627 89.5797L415.734 90.4482C417.413 90.6508 418.991 89.5507 419.368 87.9006L420.54 82.762C420.916 81.1119 419.99 79.4328 418.369 78.8828L412.449 76.7984ZM390.722 89.8981C381.704 91.3746 374.032 83.6884 375.509 74.6851C376.406 69.2281 380.807 64.8277 386.264 63.9303C395.281 62.4538 402.953 70.14 401.477 79.1433C400.594 84.6003 396.179 89.0007 390.722 89.8981ZM387.262 69.7492C384.252 70.2413 381.82 72.6731 381.328 75.6838C380.517 80.6487 384.744 84.8898 389.723 84.0792C392.734 83.5871 395.166 81.1553 395.658 78.1446C396.468 73.1652 392.242 68.9386 387.262 69.7492Z" fill="#FFB400"/>
<path d="M110.52 400.398C110.68 422.848 109.03 429.868 104.832 439.726C103.775 442.23 102.82 444.604 101.966 446.833H103.819C104.528 445.212 105.382 443.417 106.41 441.434C113.43 427.741 122.506 415.669 126.674 399.24C130.829 382.811 131.494 336.911 132.45 334.277C133.405 331.642 110.361 377.947 110.52 400.398Z" fill="url(#paint17_linear_517_1753)"/>
<path d="M102.094 448.932C102.948 435.383 104.091 408.504 91.3968 390.236C76.0245 368.119 70.6978 325.505 70.6978 325.505C70.6978 325.505 65.371 391.467 79.18 409.676C91.0928 425.41 100.038 429.579 100.444 448.917H102.094V448.932Z" fill="url(#paint18_linear_517_1753)"/>
<path d="M118.929 424.932C117.858 428.001 116.483 430.968 114.717 433.704C112.386 437.323 109.1 442.925 107.537 447.817H109.462C109.998 446.601 110.649 445.168 111.358 443.648C113.935 438.235 117.916 433.617 122.823 430.172C129.857 425.236 139.121 416.971 140.786 409.893C144.781 392.914 166.218 375.429 170.213 374.821C170.228 374.821 136.356 375.269 118.929 424.932Z" fill="url(#paint19_linear_517_1753)"/>
<path d="M94.6254 448.497C94.6254 448.497 105.279 443.098 85.2746 425.569C65.2704 408.04 63.519 382.348 57.2369 371.839C50.9548 361.33 49.3481 360.447 49.3481 360.447C49.3481 360.447 41.0251 393.45 58.2501 413.888C75.4752 434.327 82.2494 424.889 89.5592 433.067C96.8545 441.246 91.5422 447.759 91.5422 447.759L94.6254 448.497Z" fill="url(#paint20_linear_517_1753)"/>
<path d="M81.3527 448.208L87.6058 478.041C87.8663 479.314 88.9954 480.226 90.2981 480.226H113.603C114.905 480.226 116.034 479.314 116.295 478.041L122.548 448.208C122.91 446.5 121.607 444.893 119.856 444.893H84.045C82.2935 444.893 80.9908 446.5 81.3527 448.208Z" fill="url(#paint21_linear_517_1753)"/>
<path d="M538.8 140.386H422.263C416.299 140.386 411.465 145.221 411.465 151.185V186.127C411.465 192.09 416.299 196.925 422.263 196.925H467.642L476.399 212.992C478.498 215.655 482.551 215.655 484.65 212.992L494.174 196.925H538.785C544.749 196.925 549.584 192.09 549.584 186.127V151.185C549.598 145.221 544.763 140.386 538.8 140.386Z" fill="url(#paint22_linear_517_1753)"/>
<path d="M439.024 167.425C436.057 167.425 433.61 164.994 433.61 162.012C433.61 159.044 436.042 156.598 439.024 156.598C441.991 156.598 444.437 159.03 444.437 162.012C444.423 164.994 441.991 167.425 439.024 167.425Z" fill="white"/>
<path d="M439.024 169.901C434.074 169.901 430.035 173.954 430.035 178.889H448.013C448.013 173.954 443.96 169.901 439.024 169.901Z" fill="white"/>
<path d="M491.843 168.019C491.843 161.78 486.777 156.714 480.538 156.714C474.3 156.714 469.233 161.78 469.233 168.019C469.233 174.257 474.3 179.324 480.538 179.324C481.494 179.324 482.406 179.193 483.288 178.976L487.805 181.871L487.399 176.993C490.092 174.923 491.843 171.681 491.843 168.019ZM484.041 171.855H477.31C476.833 171.855 476.442 171.464 476.442 170.986C476.442 170.508 476.833 170.118 477.31 170.118H484.041C484.519 170.118 484.91 170.508 484.91 170.986C484.91 171.464 484.519 171.855 484.041 171.855ZM486.386 166.977H474.951C474.473 166.977 474.082 166.586 474.082 166.108C474.082 165.63 474.473 165.24 474.951 165.24H486.386C486.864 165.24 487.255 165.63 487.255 166.108C487.255 166.586 486.878 166.977 486.386 166.977Z" fill="white"/>
<path d="M536.803 164.965C535.037 164.979 534.965 164.979 534.299 164.834C532.88 164.53 534.545 162.822 533.662 159.71C532.793 156.569 529.739 156.757 529.884 158.219C530.029 159.667 530.058 163.343 529.03 164.255C528.451 164.762 527.698 165.544 527.119 166.137C526.598 166.673 525.889 166.991 525.151 166.991L524.572 166.977L524.514 174.807V175.285H524.528L527.756 175.3C529.319 177.066 532.316 177.384 532.316 177.384L536.151 177.398C537.831 177.413 539.249 176.096 539.466 174.315L540.132 168.974C540.393 166.846 538.815 164.95 536.803 164.965Z" fill="white"/>
<path d="M521.778 163.836L515.959 163.807V178.571L521.778 178.6V163.836Z" fill="white"/>
<path d="M320.215 198.705C336.02 198.705 348.832 185.893 348.832 170.089C348.832 154.284 336.02 141.472 320.215 141.472C304.411 141.472 291.599 154.284 291.599 170.089C291.599 185.893 304.411 198.705 320.215 198.705Z" fill="url(#paint23_linear_517_1753)"/>
<path d="M329.508 155.252C324.572 153.312 318.912 156.106 317.06 161.071L316.9 161.491L316.191 161.216C313.73 160.304 311.154 160.477 308.954 161.491C306.754 162.504 304.93 164.342 304.018 166.803C302.194 171.695 304.698 177.152 309.591 178.976L310.314 179.237L325.672 184.954C326.989 185.446 328.451 184.766 328.944 183.449L334.647 168.077L334.907 167.367C335.819 164.907 335.645 162.33 334.632 160.13C333.662 157.959 331.882 156.178 329.508 155.252Z" fill="white"/>
<path d="M576 242.072L525.381 211.906L504.161 247.515L530.505 263.22L554.78 277.68L576 242.072Z" fill="url(#paint24_linear_517_1753)"/>
<path d="M575.998 242.072L525.38 211.907L539.088 248.832L575.998 242.072Z" fill="url(#paint25_linear_517_1753)"/>
<path d="M88.0103 246.747L36.5957 262.264L47.5242 298.422L74.2737 290.345L98.9243 282.905L88.0103 246.747Z" fill="url(#paint26_linear_517_1753)"/>
<path d="M88.0093 246.747L36.5947 262.264L69.8579 275.726L88.0093 246.747Z" fill="url(#paint27_linear_517_1753)"/>
<path d="M123.505 266.144C169.593 225.18 152.237 141.458 152.237 141.458L207.661 137.347C207.661 137.347 213.524 221.923 167.436 262.887C167.436 262.887 148.459 280.503 131.726 280.011C115.008 279.533 123.505 266.144 123.505 266.144Z" fill="url(#paint28_linear_517_1753)"/>
<path opacity="0.26" d="M152.99 257.603C191.478 223.399 193.736 158.798 193.447 138.403L207.675 137.347C207.675 137.347 213.538 221.923 167.45 262.887C167.45 262.887 148.473 280.503 131.741 280.011C124.691 279.808 122.115 277.304 121.507 274.496C137.053 272.411 152.99 257.603 152.99 257.603Z" fill="#FF6700"/>
<path d="M54.9062 25.3984C54.964 25.4273 55.0363 25.4706 55.094 25.514C54.9785 25.4273 54.9207 25.384 54.9207 25.384L54.9062 25.3984Z" fill="#8B2EE5"/>
<path d="M49.403 209.033C73.0197 208.194 90.6782 165.662 88.8444 114.034C87.0105 62.4066 66.3787 21.2341 42.7619 22.073C19.1452 22.9119 1.48666 65.4445 3.32054 117.072C5.15442 168.7 25.7862 209.872 49.403 209.033Z" fill="#403657"/>
<path d="M55.1104 25.5142C55.5591 25.8471 56.7605 26.7156 58.6277 27.9894C57.4842 27.063 56.3118 26.238 55.1104 25.5142Z" fill="#6E00C5"/>
<path d="M23.0483 33.7359C27.0289 30.175 31.3858 28.163 36.0033 28.0038C57.0496 27.2511 75.4906 65.3489 77.1986 113.101C78.8922 160.839 63.2014 200.153 42.1551 200.906C34.4834 201.181 27.1591 196.288 20.8626 187.647C11.0487 170.812 4.33234 145.539 3.3191 117.067C2.04531 81.3146 10.1223 49.9332 23.0483 33.7359Z" fill="#403657"/>
<path d="M8.48617 116.879C9.26781 138.982 14.1169 159.537 22.1215 174.779C29.1562 188.168 38.0003 195.984 45.7878 195.709C53.5752 195.434 61.8549 186.995 67.9198 173.143C68.4264 171.999 68.9041 170.827 69.3673 169.64C70.9161 165.645 72.2478 161.375 73.3768 156.873C74.7809 151.228 75.8375 145.206 76.5323 138.953C77.4153 131.094 77.7193 122.857 77.4153 114.419C77.1113 105.994 76.2283 97.7869 74.7953 90.014C73.4926 82.9502 71.7556 76.2484 69.5989 70.0532C68.0501 65.5949 66.2841 61.3828 64.3156 57.518C64.1419 57.1851 63.9682 56.8377 63.7945 56.5048C56.7597 43.1155 47.9156 35.2991 40.1281 35.5742C32.3407 35.8492 24.0611 44.288 17.9961 58.1404C11.0627 73.9324 7.70453 94.7907 8.48617 116.879Z" fill="url(#paint29_linear_517_1753)"/>
<path d="M39.9561 101.29L40.9838 130.225L76.5918 138.345C77.4169 130.674 77.7064 122.655 77.4024 114.447C77.1129 106.24 76.2589 98.2502 74.8983 90.6653L39.9561 101.29Z" fill="url(#paint30_linear_517_1753)"/>
<path d="M17.9686 58.1549C24.0336 44.3025 32.2987 35.8782 40.1007 35.5887C42.2719 35.5163 44.5299 36.0663 46.8025 37.1954C41.1428 40.5246 35.6135 47.6896 31.2421 57.6772C24.3376 73.4548 20.9649 94.2985 21.7466 116.402C22.5282 138.505 27.3773 159.059 35.3819 174.301C40.448 183.956 46.4696 190.715 52.3608 193.639C50.1751 194.928 47.9605 195.637 45.7893 195.709C38.0018 195.984 29.1432 188.153 22.1229 174.779C14.1183 159.537 9.26928 138.968 8.48763 116.879C7.69152 94.7907 11.0642 73.9325 17.9686 58.1549Z" fill="#312A44"/>
<path d="M39.9561 101.29L40.9838 130.225L76.5918 138.345C77.4169 130.674 77.7064 122.655 77.4024 114.447C77.1129 106.24 76.2589 98.2502 74.8983 90.6653L39.9561 101.29Z" fill="url(#paint31_linear_517_1753)"/>
<path d="M33.7462 115.953C33.4567 107.977 36.2503 101.391 39.9704 101.261C43.6904 101.131 46.9328 107.485 47.2223 115.475C47.5118 123.451 44.7181 130.037 40.9981 130.167C37.2636 130.297 34.0212 123.928 33.7462 115.953Z" fill="#403657"/>
<path d="M218.285 60.0222C245.469 59.0524 268.296 80.3159 269.266 107.5C270.235 134.683 248.972 157.51 221.788 158.48L221.383 158.494L217.88 60.0367L218.285 60.0222Z" fill="#0041AB"/>
<path d="M218.285 60.0222C245.469 59.0524 268.296 80.3159 269.266 107.5C270.235 134.683 248.972 157.51 221.788 158.48L221.383 158.494L217.88 60.0367L218.285 60.0222Z" fill="#403657"/>
<path d="M88.8228 114.028C87.4187 74.4971 74.9993 41.1036 58.6572 28.0039C58.7875 28.0908 58.9322 28.1921 59.077 28.2789C93.2955 51.4242 134.028 63.0185 175.31 61.5565L192.173 60.9631L217.895 60.0512L221.398 158.509L195.676 159.421L178.813 160.014C137.878 161.462 98.4051 175.691 66.0683 200.804C80.7313 185.924 90.1979 152.502 88.8228 114.028Z" fill="url(#paint32_linear_517_1753)"/>
<path opacity="0.39" d="M85.0003 159.913C114.399 142.847 154.465 139.952 196.008 138.664C205.127 138.389 213.291 137.332 220.571 135.74L221.382 158.494L195.66 159.406L178.797 160C137.862 161.447 98.3895 175.676 66.0527 200.79C74.4047 192.337 81.0631 177.876 85.0003 159.913Z" fill="#FF6700"/>
<path opacity="0.32" d="M269.265 108.122C269.888 135.045 248.769 157.525 221.773 158.494L221.368 158.509L220.558 135.754C246.67 130.037 261.536 117.386 269.265 108.122Z" fill="#0041AB"/>
<path d="M175.99 191.714C174.745 201.557 169.52 209.012 161.211 207.955C152.903 206.898 147.185 198.054 148.43 188.211C149.675 178.368 157.433 171.232 165.742 172.289C174.065 173.36 177.249 181.871 175.99 191.714Z" fill="url(#paint33_linear_517_1753)"/>
<path opacity="0.32" d="M154.248 201.47C162.557 202.527 167.768 195.072 169.027 185.229C169.621 180.54 169.215 176.139 167.71 172.723C174.557 174.793 177.133 182.696 175.99 191.729C174.745 201.571 169.519 209.026 161.211 207.969C156.724 207.405 152.989 204.553 150.702 200.5C151.817 200.978 153.004 201.311 154.248 201.47Z" fill="#0041AB"/>
<path d="M59.077 28.2789C93.2955 51.4242 134.028 63.0185 175.31 61.5565L217.88 60.0512L218.126 66.8833L175.556 68.3887C138.674 69.6914 102.255 60.5867 70.5121 42.1313C66.9079 36.2111 62.9273 31.42 58.6572 28.0039C58.7875 28.0908 58.9322 28.1921 59.077 28.2789Z" fill="#FFD400"/>
<path d="M495.103 470.383L495.436 475.29C495.566 477.143 494.162 478.75 492.31 478.88L472.682 479.141C471.639 479.213 471.249 477.838 472.161 477.331C476.879 474.711 480.266 471.455 487.2 466.692L495.103 470.383Z" fill="#0E3C8C"/>
<path d="M483.031 396.967L487.186 466.707C487.186 466.707 482.148 470.89 483.654 471.498C485.304 472.164 495.089 470.398 495.089 470.398L502.862 394.145L483.031 396.967Z" fill="url(#paint34_linear_517_1753)"/>
<path d="M477.53 470.383L477.863 475.29C477.993 477.143 476.589 478.75 474.736 478.88L455.108 479.141C454.066 479.213 453.675 477.838 454.587 477.331C459.306 474.711 462.693 471.455 469.627 466.692L477.53 470.383Z" fill="#0E3C8C"/>
<path d="M465.458 396.967L469.612 466.707C469.612 466.707 464.575 470.89 466.08 471.498C467.731 472.164 477.516 470.398 477.516 470.398L485.288 394.145L465.458 396.967Z" fill="url(#paint35_linear_517_1753)"/>
<path d="M470.408 287.812C463.909 286.669 458.336 282.37 455.963 276.218C454.949 273.598 454.472 270.587 455.499 267.577C458.814 257.806 452.358 254.173 453.502 249.179C455.181 241.869 462.65 229.522 473.477 235.833C473.477 235.833 480.83 231.52 483.986 236.354C487.141 241.189 488.82 248.021 487.04 252.219C485.26 256.417 484.362 258.848 488.401 263.886C494.379 271.369 488.69 291.026 470.408 287.812Z" fill="url(#paint36_linear_517_1753)"/>
<path d="M496.667 293.588C497.796 302.649 494.539 336.419 494.539 336.419H462.086C462.086 336.419 463.577 319.744 458.019 314.895C452.46 310.06 454.009 299.754 454.009 299.754C454.009 299.754 441.517 315.705 436.683 316.226C431.848 316.748 399.005 295.281 399.005 295.281L402.247 289.984C402.247 289.984 428.548 302.2 431.327 301.679C434.106 301.158 444.991 279.779 449.175 277.651C453.358 275.523 468.846 270.616 468.846 270.616L479.036 269.69C479.036 269.69 500.517 273.54 504.222 274.771C507.928 276.001 527.426 306.065 527.426 306.065L501.487 337.36L497.159 333.929L511.228 307.021L496.667 293.588Z" fill="url(#paint37_linear_517_1753)"/>
<path d="M497.144 333.944C497.144 333.944 490.659 338.272 492.917 342.484C495.175 346.696 501.457 337.374 501.457 337.374L497.144 333.944Z" fill="url(#paint38_linear_517_1753)"/>
<path d="M402.087 290.302C402.087 290.302 397.122 284.295 393.156 286.987C389.19 289.68 399.12 294.963 399.12 294.963L402.087 290.302Z" fill="url(#paint39_linear_517_1753)"/>
<path d="M468.556 264.971V270.848L472.985 275.61L478.905 269.704V257.256L468.556 264.971Z" fill="url(#paint40_linear_517_1753)"/>
<path d="M459.161 250.771C459.161 250.771 459.364 266.448 468.975 266.592C478.499 266.752 478.803 258.79 478.803 258.79C478.803 258.79 481.366 258.096 481.872 254.68C482.263 252.146 480.569 249.99 478.224 251.915C478.224 251.915 474.07 248.557 473.303 246.646C473.289 246.646 461.853 251.394 459.161 250.771Z" fill="url(#paint41_linear_517_1753)"/>
<path d="M462.086 336.419C462.086 336.419 452.055 351.111 452.46 367.033C452.865 382.955 457.396 434.978 457.396 434.978H502.702C502.702 434.978 506.321 367.077 504.627 361.735C499.272 344.843 494.741 336.404 494.741 336.404H462.086V336.419Z" fill="url(#paint42_linear_517_1753)"/>
<path opacity="0.48" d="M466.051 336.419C466.282 332.409 466.804 317.37 461.94 314.07C456.324 310.248 453.993 299.769 453.993 299.769C453.993 299.769 452.444 310.06 458.003 314.909C463.561 319.744 462.07 336.433 462.07 336.433H466.051V336.419Z" fill="#D30B28"/>
<path opacity="0.54" d="M457.902 372.23C456.555 358.522 465.993 337.418 465.993 337.418C465.993 337.418 466.022 337.041 466.051 336.404H462.085C462.085 336.404 452.039 351.096 452.459 367.019C452.864 382.941 457.395 434.963 457.395 434.963H460.058C459.827 422.182 459.031 383.607 457.902 372.23Z" fill="#099BCE"/>
<path d="M205.619 470.803L194.343 470.948L192.273 404.364L173.716 371.187L172.558 380.828C172.949 382.015 160.573 462.306 159.502 469.269H148.675C148.385 467.228 147.025 459.846 144.578 435.05C141.408 402.858 143.739 362.083 144.781 347.391C149.384 348.158 178.565 352.674 198.251 346.247C201.522 353.847 214.289 383.723 214.651 387.095C215.071 390.96 205.619 470.803 205.619 470.803Z" fill="url(#paint43_linear_517_1753)"/>
<path d="M199.236 299.711L198.874 346.045C177.466 353.369 144.174 347.29 144.174 347.29L145.014 315.691C145.014 315.691 134.577 313.621 131.262 312.926C127.948 312.231 128.136 276.421 136.56 270.616C144.985 264.812 163.918 265.058 163.918 265.058L181.041 265.565C181.041 265.565 195.415 268.952 199.555 271.441C203.694 273.931 214.174 287.972 215.723 289.13C217.388 290.374 239.65 259.5 239.65 259.5L246.106 263.857C246.106 263.857 222.15 314.634 217.098 313.867C213.233 313.274 199.236 299.711 199.236 299.711Z" fill="url(#paint44_linear_517_1753)"/>
<path d="M183.546 289.535H153.178C152.107 289.535 151.224 290.403 151.224 291.489V328.646C151.224 329.717 152.092 330.6 153.178 330.6H183.546C184.617 330.6 185.5 329.732 185.5 328.646V291.489C185.5 290.418 184.632 289.535 183.546 289.535Z" fill="white"/>
<path d="M186.325 247.732C186.311 245.3 186.036 243.534 186.036 243.534C178.625 246.4 171.228 243.172 171.228 243.172C168.651 246.849 166.104 246.559 166.104 246.559C163.18 244.156 162.138 247.211 162.615 249.975C162.934 251.828 163.875 252.335 164.468 252.494V258.646C163.947 258.24 160.936 255.924 159.445 251.582C157.839 246.805 159.764 230.622 168.825 232.49C168.825 232.49 171.561 228.292 178.538 230.289C185.471 232.316 190.161 238.989 186.325 247.732Z" fill="url(#paint45_linear_517_1753)"/>
<path d="M178.624 262.308V265.695L173.732 272.324C173.471 272.643 173.008 272.672 172.718 272.397L164.468 264.87V252.494C164.757 252.566 164.974 252.552 164.974 252.552C165.872 258.921 171.966 264.175 178.624 262.308Z" fill="url(#paint46_linear_517_1753)"/>
<path d="M186.036 243.519C186.036 243.519 188.482 259.022 179.146 262.149C172.285 264.436 165.901 259.08 164.989 252.552C164.989 252.552 163.122 252.725 162.644 249.961C162.167 247.196 163.209 244.156 166.118 246.545C166.118 246.545 168.666 246.849 171.243 243.158C171.243 243.143 178.625 246.385 186.036 243.519Z" fill="url(#paint47_linear_517_1753)"/>
<path d="M240.07 259.948C240.07 259.948 244.355 251.177 247.395 253.29C250.434 255.403 245.701 263.509 245.701 263.509L240.07 259.948Z" fill="url(#paint48_linear_517_1753)"/>
<path d="M180.013 308.757C180.013 308.757 189.769 308.323 189.364 312C188.959 315.676 179.579 315.401 179.579 315.401L180.013 308.757Z" fill="url(#paint49_linear_517_1753)"/>
<path d="M149.428 469.196C149.428 469.5 141.655 476.694 142.553 480.82C143.45 484.945 154.639 484.019 156.202 482.701C158.735 480.559 159.575 475.536 158.909 469.269L149.428 469.196Z" fill="#002167"/>
<path d="M217.894 480.197C219.53 480.197 220.254 478.084 218.922 477.129C218.907 477.114 218.893 477.114 218.879 477.1C216.751 475.594 207.458 471.469 205.041 470.789L194.633 470.89C194.517 472.584 194.561 475.84 194.865 478.185C195.01 479.329 195.965 480.197 197.123 480.197H217.894Z" fill="#002167"/>
<path d="M179.956 308.222C179.956 308.222 147.562 303.069 145.868 300.767C144.174 298.466 147.923 272.165 147.923 272.165L135.359 271.716C128.136 279.938 128.122 312.26 131.263 312.912C134.578 313.607 145.014 315.676 145.014 315.676C145.014 315.676 145.304 315.705 145.839 315.763C149.95 316.198 172.314 316.111 180.043 316.227L179.956 308.222Z" fill="url(#paint50_linear_517_1753)"/>
<path d="M180.043 316.227C180.043 316.227 149.255 320.482 148.763 321.626C148.401 322.48 148.17 339.661 148.083 347.897C145.608 347.55 144.16 347.29 144.16 347.29L145 315.691C145 315.691 145.289 315.72 145.825 315.778C149.95 316.212 172.314 316.125 180.043 316.227Z" fill="#FFB400"/>
<path d="M151.166 302.866L149.979 282.833C149.979 282.833 146.592 293.863 146.346 302.229L151.166 302.866Z" fill="#FFB400"/>
<path opacity="0.51" d="M173.718 371.187L192.274 404.364L194.344 470.948L195.647 470.933C197.572 452.767 202.161 406.448 199.44 401.382C196.038 395.085 173.718 371.187 173.718 371.187Z" fill="#0041AB"/>
<path opacity="0.51" d="M144.811 346.986C143.798 361.316 141.38 402.554 144.579 435.05C147.026 459.846 148.386 467.242 148.676 469.269H152.425C145.231 447.918 148.068 347.897 148.068 347.897L144.811 346.986Z" fill="#0041AB"/>
<defs>
<linearGradient id="paint0_linear_517_1753" x1="436.757" y1="400.13" x2="574.054" y2="431.758" gradientUnits="userSpaceOnUse">
<stop stop-color="#00A6EF"/>
<stop offset="1" stop-color="#00D0FF"/>
</linearGradient>
<linearGradient id="paint1_linear_517_1753" x1="439.604" y1="491.176" x2="522.73" y2="354.262" gradientUnits="userSpaceOnUse">
<stop stop-color="#0041AB"/>
<stop offset="1" stop-color="#115FD1"/>
</linearGradient>
<linearGradient id="paint2_linear_517_1753" x1="404.161" y1="493.834" x2="239.051" y2="73.675" gradientUnits="userSpaceOnUse">
<stop stop-color="#F0F0F0"/>
<stop offset="1" stop-color="#FDFDFD"/>
</linearGradient>
<linearGradient id="paint3_linear_517_1753" x1="329.894" y1="391.519" x2="329.894" y2="62.8993" gradientUnits="userSpaceOnUse">
<stop stop-color="#FFE06F"/>
<stop offset="1" stop-color="#FFB400"/>
</linearGradient>
<linearGradient id="paint4_linear_517_1753" x1="443.914" y1="481.557" x2="107.656" y2="145.3" gradientUnits="userSpaceOnUse">
<stop stop-color="#FFB03E"/>
<stop offset="1" stop-color="#FF3C48"/>
</linearGradient>
<linearGradient id="paint5_linear_517_1753" x1="455.909" y1="469.56" x2="119.652" y2="133.303" gradientUnits="userSpaceOnUse">
<stop stop-color="#FFB03E"/>
<stop offset="1" stop-color="#FF3C48"/>
</linearGradient>
<linearGradient id="paint6_linear_517_1753" x1="470.763" y1="454.706" x2="134.506" y2="118.45" gradientUnits="userSpaceOnUse">
<stop stop-color="#FFB03E"/>
<stop offset="1" stop-color="#FF3C48"/>
</linearGradient>
<linearGradient id="paint7_linear_517_1753" x1="495.827" y1="429.643" x2="159.57" y2="93.3867" gradientUnits="userSpaceOnUse">
<stop stop-color="#FFB03E"/>
<stop offset="1" stop-color="#FF3C48"/>
</linearGradient>
<linearGradient id="paint8_linear_517_1753" x1="512.24" y1="413.232" x2="175.982" y2="76.9742" gradientUnits="userSpaceOnUse">
<stop stop-color="#FFB03E"/>
<stop offset="1" stop-color="#FF3C48"/>
</linearGradient>
<linearGradient id="paint9_linear_517_1753" x1="264.887" y1="410.216" x2="208.287" y2="349.865" gradientUnits="userSpaceOnUse">
<stop stop-color="#FF253A"/>
<stop offset="1" stop-color="#FF94A4"/>
</linearGradient>
<linearGradient id="paint10_linear_517_1753" x1="241.059" y1="392.929" x2="255.332" y2="392.929" gradientUnits="userSpaceOnUse">
<stop stop-color="#F0F0F0"/>
<stop offset="1" stop-color="#FDFDFD"/>
</linearGradient>
<linearGradient id="paint11_linear_517_1753" x1="370.906" y1="431.492" x2="313.621" y2="373.526" gradientUnits="userSpaceOnUse">
<stop stop-color="#00A6EF"/>
<stop offset="1" stop-color="#00D0FF"/>
</linearGradient>
<linearGradient id="paint12_linear_517_1753" x1="382.103" y1="438.519" x2="296.217" y2="359.312" gradientUnits="userSpaceOnUse">
<stop stop-color="#F0F0F0"/>
<stop offset="1" stop-color="#FDFDFD"/>
</linearGradient>
<linearGradient id="paint13_linear_517_1753" x1="417.54" y1="488.002" x2="417.54" y2="362.443" gradientUnits="userSpaceOnUse">
<stop stop-color="#FF3C48"/>
<stop offset="1" stop-color="#FFB03E"/>
</linearGradient>
<linearGradient id="paint14_linear_517_1753" x1="424.532" y1="398.312" x2="415.467" y2="389.246" gradientUnits="userSpaceOnUse">
<stop stop-color="#F0F0F0"/>
<stop offset="1" stop-color="#FDFDFD"/>
</linearGradient>
<linearGradient id="paint15_linear_517_1753" x1="436.621" y1="410.399" x2="410.539" y2="384.318" gradientUnits="userSpaceOnUse">
<stop stop-color="#F0F0F0"/>
<stop offset="1" stop-color="#FDFDFD"/>
</linearGradient>
<linearGradient id="paint16_linear_517_1753" x1="554.726" y1="105.128" x2="420.756" y2="7.66493" gradientUnits="userSpaceOnUse">
<stop stop-color="#FF6100"/>
<stop offset="0.1307" stop-color="#FF7600"/>
<stop offset="0.3428" stop-color="#FF9100"/>
<stop offset="0.5579" stop-color="#FFA400"/>
<stop offset="0.7756" stop-color="#FFB000"/>
<stop offset="1" stop-color="#FFB400"/>
</linearGradient>
<linearGradient id="paint17_linear_517_1753" x1="81.728" y1="455.747" x2="133.808" y2="362.424" gradientUnits="userSpaceOnUse">
<stop stop-color="#0041AB"/>
<stop offset="1" stop-color="#115FD1"/>
</linearGradient>
<linearGradient id="paint18_linear_517_1753" x1="93.305" y1="509.661" x2="76.6015" y2="248.402" gradientUnits="userSpaceOnUse">
<stop stop-color="#0041AB"/>
<stop offset="1" stop-color="#115FD1"/>
</linearGradient>
<linearGradient id="paint19_linear_517_1753" x1="139.511" y1="441.795" x2="136.942" y2="317.162" gradientUnits="userSpaceOnUse">
<stop stop-color="#0041AB"/>
<stop offset="1" stop-color="#115FD1"/>
</linearGradient>
<linearGradient id="paint20_linear_517_1753" x1="73.0551" y1="443.165" x2="70.4854" y2="318.532" gradientUnits="userSpaceOnUse">
<stop stop-color="#0041AB"/>
<stop offset="1" stop-color="#115FD1"/>
</linearGradient>
<linearGradient id="paint21_linear_517_1753" x1="109.187" y1="470.423" x2="94.5375" y2="442.417" gradientUnits="userSpaceOnUse">
<stop stop-color="#FF8500"/>
<stop offset="1" stop-color="#FFB400"/>
</linearGradient>
<linearGradient id="paint22_linear_517_1753" x1="540.079" y1="219.162" x2="440.528" y2="134.732" gradientUnits="userSpaceOnUse">
<stop stop-color="#FE9100"/>
<stop offset="1" stop-color="#FE9100"/>
</linearGradient>
<linearGradient id="paint23_linear_517_1753" x1="358.805" y1="199.565" x2="244.133" y2="111.985" gradientUnits="userSpaceOnUse">
<stop stop-color="#FF253A"/>
<stop offset="1" stop-color="#FF94A4"/>
</linearGradient>
<linearGradient id="paint24_linear_517_1753" x1="516.841" y1="270.399" x2="541.038" y2="243.745" gradientUnits="userSpaceOnUse">
<stop stop-color="#00A6EF"/>
<stop offset="1" stop-color="#00D0FF"/>
</linearGradient>
<linearGradient id="paint25_linear_517_1753" x1="525.222" y1="228.339" x2="598.621" y2="249.586" gradientUnits="userSpaceOnUse">
<stop stop-color="#00A6EF"/>
<stop offset="1" stop-color="#00D0FF"/>
</linearGradient>
<linearGradient id="paint26_linear_517_1753" x1="98.0134" y1="294.247" x2="71.6104" y2="275.342" gradientUnits="userSpaceOnUse">
<stop stop-color="#FFE06F"/>
<stop offset="1" stop-color="#FFB400"/>
</linearGradient>
<linearGradient id="paint27_linear_517_1753" x1="81.9708" y1="278.845" x2="43.5073" y2="231.254" gradientUnits="userSpaceOnUse">
<stop stop-color="#FFE06F"/>
<stop offset="1" stop-color="#FFB400"/>
</linearGradient>
<linearGradient id="paint28_linear_517_1753" x1="222.515" y1="288.887" x2="146.476" y2="180.502" gradientUnits="userSpaceOnUse">
<stop stop-color="#FFE06F"/>
<stop offset="1" stop-color="#FFB400"/>
</linearGradient>
<linearGradient id="paint29_linear_517_1753" x1="7.72522" y1="116.911" x2="77.849" y2="114.42" gradientUnits="userSpaceOnUse">
<stop stop-color="#FFE06F"/>
<stop offset="1" stop-color="#FFB400"/>
</linearGradient>
<linearGradient id="paint30_linear_517_1753" x1="40.0666" y1="115.762" x2="77.645" y2="114.428" gradientUnits="userSpaceOnUse">
<stop stop-color="#D8D5DB"/>
<stop offset="1" stop-color="#F1F0F2"/>
</linearGradient>
<linearGradient id="paint31_linear_517_1753" x1="42.8895" y1="113.254" x2="93.1308" y2="115.152" gradientUnits="userSpaceOnUse">
<stop stop-color="#FF6100"/>
<stop offset="1" stop-color="#FFB400"/>
</linearGradient>
<linearGradient id="paint32_linear_517_1753" x1="269.374" y1="195.223" x2="44.3579" y2="80.7716" gradientUnits="userSpaceOnUse">
<stop stop-color="#FFE06F"/>
<stop offset="1" stop-color="#FFB400"/>
</linearGradient>
<linearGradient id="paint33_linear_517_1753" x1="181.715" y1="203.128" x2="139.433" y2="173.242" gradientUnits="userSpaceOnUse">
<stop stop-color="#0041AB"/>
<stop offset="1" stop-color="#115FD1"/>
</linearGradient>
<linearGradient id="paint34_linear_517_1753" x1="505.759" y1="432.09" x2="480.653" y2="433.821" gradientUnits="userSpaceOnUse">
<stop offset="0.0176" stop-color="#F4BD6C"/>
<stop offset="1" stop-color="#FFD49C"/>
</linearGradient>
<linearGradient id="paint35_linear_517_1753" x1="488.185" y1="432.09" x2="463.079" y2="433.821" gradientUnits="userSpaceOnUse">
<stop offset="0.0176" stop-color="#F4BD6C"/>
<stop offset="1" stop-color="#FFD49C"/>
</linearGradient>
<linearGradient id="paint36_linear_517_1753" x1="453.364" y1="261.12" x2="490.684" y2="261.12" gradientUnits="userSpaceOnUse">
<stop stop-color="#0041AB"/>
<stop offset="1" stop-color="#002167"/>
</linearGradient>
<linearGradient id="paint37_linear_517_1753" x1="410.939" y1="366.489" x2="587.827" y2="141.793" gradientUnits="userSpaceOnUse">
<stop stop-color="#FFE06F"/>
<stop offset="1" stop-color="#FFB400"/>
</linearGradient>
<linearGradient id="paint38_linear_517_1753" x1="497.833" y1="340.7" x2="491.844" y2="334.015" gradientUnits="userSpaceOnUse">
<stop offset="0.0176" stop-color="#F4BD6C"/>
<stop offset="1" stop-color="#FFD49C"/>
</linearGradient>
<linearGradient id="paint39_linear_517_1753" x1="395.444" y1="291.682" x2="401.476" y2="285.036" gradientUnits="userSpaceOnUse">
<stop offset="0.0176" stop-color="#F4BD6C"/>
<stop offset="1" stop-color="#FFD49C"/>
</linearGradient>
<linearGradient id="paint40_linear_517_1753" x1="468.557" y1="266.434" x2="478.904" y2="266.434" gradientUnits="userSpaceOnUse">
<stop offset="0.0176" stop-color="#F4BD6C"/>
<stop offset="1" stop-color="#FFD49C"/>
</linearGradient>
<linearGradient id="paint41_linear_517_1753" x1="459.158" y1="256.626" x2="481.916" y2="256.626" gradientUnits="userSpaceOnUse">
<stop offset="0.0176" stop-color="#F4BD6C"/>
<stop offset="1" stop-color="#FFD49C"/>
</linearGradient>
<linearGradient id="paint42_linear_517_1753" x1="512.373" y1="423.371" x2="447.304" y2="355.831" gradientUnits="userSpaceOnUse">
<stop stop-color="#00A6EF"/>
<stop offset="1" stop-color="#00D0FF"/>
</linearGradient>
<linearGradient id="paint43_linear_517_1753" x1="213.575" y1="469.591" x2="134.687" y2="347.973" gradientUnits="userSpaceOnUse">
<stop stop-color="#0041AB"/>
<stop offset="1" stop-color="#115FD1"/>
</linearGradient>
<linearGradient id="paint44_linear_517_1753" x1="136.278" y1="373.77" x2="204.128" y2="241.788" gradientUnits="userSpaceOnUse">
<stop stop-color="#FFE06F"/>
<stop offset="1" stop-color="#FFB400"/>
</linearGradient>
<linearGradient id="paint45_linear_517_1753" x1="158.945" y1="244.183" x2="187.701" y2="244.183" gradientUnits="userSpaceOnUse">
<stop stop-color="#0041AB"/>
<stop offset="1" stop-color="#002167"/>
</linearGradient>
<linearGradient id="paint46_linear_517_1753" x1="172.39" y1="272.761" x2="171.501" y2="263.064" gradientUnits="userSpaceOnUse">
<stop stop-color="#FFD49C"/>
<stop offset="0.9824" stop-color="#F4BD6C"/>
</linearGradient>
<linearGradient id="paint47_linear_517_1753" x1="186.661" y1="260.233" x2="171.226" y2="245.929" gradientUnits="userSpaceOnUse">
<stop offset="0.0176" stop-color="#F4BD6C"/>
<stop offset="1" stop-color="#FFD49C"/>
</linearGradient>
<linearGradient id="paint48_linear_517_1753" x1="241.753" y1="263.953" x2="247.261" y2="253.238" gradientUnits="userSpaceOnUse">
<stop offset="0.0176" stop-color="#F4BD6C"/>
<stop offset="1" stop-color="#FFD49C"/>
</linearGradient>
<linearGradient id="paint49_linear_517_1753" x1="177.297" y1="312.148" x2="189.341" y2="311.869" gradientUnits="userSpaceOnUse">
<stop offset="0.0176" stop-color="#F4BD6C"/>
<stop offset="1" stop-color="#FFD49C"/>
</linearGradient>
<linearGradient id="paint50_linear_517_1753" x1="105.758" y1="347.066" x2="186.088" y2="264.958" gradientUnits="userSpaceOnUse">
<stop stop-color="#FFE06F"/>
<stop offset="1" stop-color="#FFB400"/>
</linearGradient>
</defs>
</svg>
