<svg width="482" height="532" viewBox="0 0 482 532" fill="none" xmlns="http://www.w3.org/2000/svg">
<path d="M137.208 314.62L138.102 314.46L138.964 307.053L136.665 304.308L137.208 314.62Z" fill="#561136"/>
<path d="M136.154 314.013L137.207 314.62L137.048 302.488L135.164 302.073L136.154 314.013Z" fill="#152035"/>
<path d="M144.294 298.752L146.274 305.233C146.274 305.233 148.955 311.491 151.158 313.949C151.158 313.949 155.149 319.409 147.678 319.058C147.678 319.058 139.729 318.642 139.856 313.534C139.952 309.16 135.93 303.701 135.93 303.701C134.461 301.147 135.961 299.04 136.44 298.465L137.813 296.901L144.486 295.719L144.294 298.752Z" fill="#E59375"/>
<path d="M151.574 315.993C148.285 316.599 144.965 315.386 142.922 313.375C140.847 311.331 138.484 303.892 139.282 306.351C139.601 307.372 137.175 298.305 137.814 296.901L136.441 298.465C135.93 299.04 134.302 301.275 135.77 303.829C135.77 303.829 139.953 309.128 139.825 313.534C139.697 318.642 147.647 319.057 147.647 319.057C152.117 319.281 152.468 317.397 152.053 315.865C151.925 315.929 151.733 315.961 151.574 315.993Z" fill="#152035"/>
<path d="M155.309 318.164C155.309 318.164 156.426 320.271 152.882 320.271C152.882 320.271 139.537 319.409 139.537 313.694V309.065C139.537 309.065 140.591 315.641 148.828 315.673C148.828 315.673 152.499 315.673 150.584 313.343L155.309 318.164Z" fill="#152035"/>
<path d="M133.854 9.34203C133.854 14.2587 129.895 18.2175 124.978 18.2175C120.061 18.2175 116.103 14.2587 116.103 9.34203C116.103 4.42539 120.061 0.466553 124.978 0.466553C129.895 0.466553 133.854 4.42539 133.854 9.34203Z" fill="#1A2652"/>
<path d="M131.331 50.2393H148.827C148.029 47.6852 146.401 41.1084 148.923 36.6068L131.268 25.0176C131.268 25.0176 134.396 44.4925 131.331 50.2393Z" fill="#F7A483"/>
<path d="M133.28 39.2567C134.333 41.9385 136.025 43.2475 138.771 44.1095C141.836 45.0673 144.773 45.2588 147.646 44.7799C147.359 42.0981 147.519 39.0651 148.891 36.6388L131.236 25.0496C131.236 25.0496 132.194 30.9878 132.545 37.2773C132.801 37.9158 133.024 38.5863 133.28 39.2567Z" fill="#E1876F"/>
<path d="M152.275 40.6935L153.201 38.0755L155.468 30.3494C155.787 29.1362 155.915 27.4441 155.5 26.2309C154.989 24.7942 154.606 22.4317 155.148 19.8137C156.585 12.758 153.456 9.08655 153.456 9.08655C149.338 2.60553 139.664 2.63745 139.664 2.63745C127.66 3.24405 126.702 14.8652 126.702 14.8652C124.787 22.5913 130.948 29.0085 130.948 29.0085C131.715 29.8066 131.81 31.1475 132.194 32.1372C132.609 33.2227 133.215 34.2124 133.949 35.0745C135.642 37.0219 137.844 38.8417 140.111 40.023C142.25 41.1085 146.401 42.2259 149.37 42.194C150.551 42.1621 151.764 42.194 152.275 40.6935Z" fill="#F7A483"/>
<path d="M96.3086 315.993L97.2025 316.12L100.427 309.416L99.1181 306.064L96.3086 315.993Z" fill="#561136"/>
<path d="M95.5098 315.099L96.3079 315.993L100.043 304.467L98.4151 303.478L95.5098 315.099Z" fill="#152035"/>
<path d="M108.121 303.254C107.929 308.682 107.546 314.748 109.717 319.856C109.717 319.856 111.729 326.305 104.801 323.559C104.801 323.559 97.3937 320.622 99.1497 315.801C100.65 311.683 98.575 305.234 98.575 305.234C98.0003 302.328 100.076 300.828 100.746 300.445L102.566 299.391H109.526L108.121 303.254Z" fill="#F7A483"/>
<path d="M109.493 321.931C106.173 321.452 103.427 319.249 102.118 316.663C100.809 314.077 100.969 306.255 100.905 308.841C100.873 309.927 101.479 300.541 102.565 299.423L100.745 300.477C100.075 300.86 97.808 302.456 98.4146 305.361C98.4146 305.361 100.649 311.715 99.1489 315.833C97.3929 320.622 104.8 323.591 104.8 323.591C108.982 325.22 109.908 323.559 110.004 321.963C109.812 321.963 109.653 321.963 109.493 321.931Z" fill="#152035"/>
<path d="M112.335 325.188C112.335 325.188 112.718 327.55 109.333 326.401C109.333 326.401 96.978 321.325 98.8298 315.897L100.298 311.523C100.298 311.523 99.1809 318.1 106.971 320.75C106.971 320.75 110.451 321.931 109.397 319.122L112.335 325.188Z" fill="#152035"/>
<path d="M115.784 222.354C106.908 238.732 105.344 245.404 103.779 257.824C102.854 265.071 103.173 295.56 102.215 300.126C101.832 302.009 108.983 300.988 108.983 300.988C110.292 297.795 131.172 227.717 131.172 227.717C131.172 227.717 133.503 220.47 131.555 219.193C121.85 212.871 119.647 215.234 115.784 222.354Z" fill="#F7A483"/>
<path d="M109.207 302.456C110.516 299.264 131.173 227.717 131.173 227.717C131.173 227.717 133.503 220.47 131.556 219.193C121.818 212.839 119.647 215.234 115.784 222.353C106.909 238.732 105.344 245.404 103.78 257.823C102.854 265.071 101.354 294.507 100.428 299.072C100.428 299.104 105.727 305.393 109.207 302.456Z" fill="#1F2732"/>
<path d="M155.595 103.971C155.595 103.971 162.395 132.8 161.501 135.961C158.852 145.028 134.428 157.767 112.144 139.186C112.144 139.186 117.252 117.859 127.819 99.8207C127.787 99.8207 131.682 103.843 155.595 103.971Z" fill="#1F2732"/>
<path d="M152.117 45.3547C152.117 45.3547 161.024 62.5948 165.015 72.045C163.355 83.1233 157.321 99.5653 154.894 103.045C149.595 110.644 125.331 103.875 125.331 103.875L118.339 80.5373C138.74 73.1943 128.013 51.708 128.013 51.708L131.205 49.6966C131.205 49.6966 134.462 60.2642 147.743 59.8811C147.743 59.8811 152.117 57.0397 148.892 44.9716C148.924 44.9716 150.84 45.0354 152.117 45.3547Z" fill="#6652A2"/>
<path d="M129.927 143.719C129.927 143.719 132.289 190.236 140.877 215.266C142.154 219.001 156.872 214.052 156.872 214.052C156.872 214.052 164.279 174.017 163.864 157.447C163.609 148.061 160.257 127.852 160.257 127.852C160.257 127.852 132.64 124.244 129.927 143.719Z" fill="#E59375"/>
<path d="M141.293 215.106L156.873 214.053C156.873 214.053 147.295 293.485 146.433 296.805C146.433 296.805 139.729 299.232 139.888 297.316C140.207 292.687 134.62 257.025 134.461 249.746C134.173 237.997 134.652 230.59 141.293 215.106Z" fill="#E59375"/>
<path d="M129.927 143.719C129.927 143.719 132.289 190.236 140.877 215.266C142.154 219.001 156.872 214.052 156.872 214.052C156.872 214.052 164.279 174.017 163.864 157.447C163.609 148.061 160.257 127.852 160.257 127.852C160.257 127.852 132.64 124.244 129.927 143.719Z" fill="#171F29"/>
<path d="M148.381 297.316C149.945 294.251 156.873 214.053 156.873 214.053L141.293 215.106C134.621 230.59 134.174 237.997 134.429 249.714C134.589 257.025 138.132 292.655 137.813 297.284C137.845 297.316 146.306 301.339 148.381 297.316Z" fill="#171F29"/>
<path d="M180.274 101.832L168.461 59.0511C164.215 47.5896 157.862 47.3342 157.862 47.3342C145.698 49.1859 153.488 70.5126 153.488 70.5126L168.493 106.046" fill="#E59375"/>
<path d="M214.5 133.822C209.391 130.023 209.04 129.001 208.274 127.469C204.954 120.86 213.446 122.297 215.489 123.127C216.671 123.574 216.319 126.511 219.608 130.662C219.608 130.662 225.099 135.035 226.6 135.004C226.6 135.004 228.1 135.451 227.941 136.568C227.941 136.536 223.375 138.388 214.5 133.822Z" fill="#E59375"/>
<path d="M179.381 99.374L213.957 125.522C214.915 130.279 212.712 130.63 212.712 130.63L184.841 117.955C172.9 112.751 168.75 106.813 168.75 106.813C168.75 106.813 163.865 102.247 171.623 97.65C171.623 97.6819 175.167 95.6387 179.381 99.374Z" fill="#E59375"/>
<path d="M214.499 122.808C214.499 122.808 212.999 125.745 216.926 125.553L221.108 123.255C221.108 123.255 222.353 122.808 222.13 121.627C222.13 121.627 221.778 120.924 220.47 121.371L214.499 122.808Z" fill="#E59375"/>
<path d="M110.899 147.614C110.899 147.614 111.091 194.163 117.221 219.895C118.147 223.726 132.162 222.545 132.162 222.545C132.162 222.545 141.325 178.519 142.474 161.981C143.145 152.627 144.997 136.249 144.997 136.249C144.997 136.249 112.176 133.024 110.899 147.614Z" fill="#F7A483"/>
<path d="M117.667 57.2951C110.516 62.531 114.156 70.3848 114.156 70.3848L127.66 103.205C127.66 103.205 149.562 110.644 154.861 103.045C157.288 99.5654 159.523 90.3706 162.46 77.1213C164.471 68.1181 164.599 52.3465 159.523 47.6853C156.585 45.0035 147.135 45.0354 147.04 44.7162L131.683 49.6647L117.667 57.2951Z" fill="#F7A483"/>
<path d="M146.593 100.555C147.902 100.331 154.894 103.077 154.894 103.077C154.894 103.077 159.938 124.595 160.226 127.852C160.513 131.108 138.037 148.061 112.911 138.419C112.911 138.419 125.586 108.504 127.438 102.247C129.577 95.0315 146.593 100.555 146.593 100.555Z" fill="#F7A483"/>
<path d="M158.821 58.6681C158.821 58.6681 166.228 67.3839 166.866 73.8969C167.217 77.5045 162.652 83.5386 160.385 85.7734C158.725 87.3378 149.147 64.7021 158.821 58.6681Z" fill="#6652A2"/>
<path d="M119.072 131.268C119.072 131.268 110.228 133.247 111.027 149.466C111.793 165.333 140.686 168.622 144.389 152.659C148.348 135.45 134.843 125.394 119.072 131.268Z" fill="#1F2732"/>
<path d="M132.289 33.4784C132.225 28.019 132.353 28.3383 132.353 28.3383C132.481 26.7419 135.609 30.19 135.546 28.1148C135.258 18.5688 138.706 14.0353 140.079 13.301C143.751 11.3216 147.646 10.7469 150.711 11.2897C155.531 12.1517 155.34 18.5688 155.34 18.5688C159.458 -4.92882 133.215 2.57383 133.215 2.57383C120.445 5.92608 121.753 17.9622 121.753 17.9622C120.189 30.8923 132.417 38.3631 132.417 38.3631L132.289 33.4784Z" fill="#2B3B6F"/>
<path d="M133.119 31.6266C132.704 31.9458 132.13 32.1374 131.459 32.1374C129.608 32.1055 128.075 30.3814 128.011 28.2743C127.979 26.1672 129.448 24.4751 131.3 24.507C132.194 24.507 132.992 24.9221 133.598 25.5606C134.492 26.4865 134.524 28.2105 134.301 29.3917C134.141 30.3176 133.758 31.1158 133.119 31.6266Z" fill="#F8A07D"/>
<path d="M132.033 26.4546C131.938 25.3372 129.671 26.3908 130.022 27.0293C130.214 27.3805 130.597 27.6359 130.916 27.8913C131.331 28.2425 131.555 28.5617 131.618 29.1045C131.618 29.1683 131.65 29.3599 131.586 29.3918C131.299 29.5834 130.341 28.4979 130.15 28.2744C129.735 27.8274 129.671 27.0612 129.894 26.4865C130.118 25.8799 130.501 25.6245 131.14 25.6565C131.65 25.6884 132.161 25.7203 132.129 26.3588C132.065 26.3908 132.065 26.4865 132.033 26.4546Z" fill="#E98B6F"/>
<path d="M131.331 27.6042C131.555 27.3807 131.778 27.5722 132.034 27.7319C132.257 27.8915 132.385 28.115 132.449 28.3704C132.577 28.9451 132.513 29.7113 132.162 30.2221C131.906 30.6371 131.459 30.8606 130.948 30.8606C130.278 30.8287 130.086 30.254 130.054 29.6794C130.054 29.5197 130.022 29.1685 130.182 29.0728C130.342 28.977 130.469 29.2324 130.565 29.3282C130.725 29.4559 130.948 29.5197 131.14 29.5517C131.523 29.5836 131.906 29.392 132.13 29.1047C132.161 29.0408 132.225 29.0089 132.225 28.9451C132.225 29.3282 132.193 29.392 132.162 29.2005C132.13 29.1047 132.098 29.0089 132.034 28.9451C131.874 28.6897 131.619 28.4981 131.427 28.2746C131.363 28.115 131.204 27.6999 131.331 27.6042Z" fill="#E98B6F"/>
<path d="M143.752 23.4539C143.815 24.1243 143.496 24.699 143.049 24.7309C142.602 24.7628 142.187 24.2839 142.123 23.6135C142.06 22.943 142.379 22.3684 142.826 22.3364C143.273 22.2726 143.688 22.7834 143.752 23.4539Z" fill="#3C2415"/>
<path d="M152.978 22.2086C153.01 22.8791 152.659 23.4218 152.212 23.4537C151.765 23.4857 151.382 22.9429 151.35 22.2725C151.318 21.602 151.669 21.0593 152.116 21.0273C152.563 21.0273 152.946 21.5382 152.978 22.2086Z" fill="#3C2415"/>
<path d="M139.792 22.5598C141.516 20.74 145.603 20.8996 145.603 20.8996C145.603 20.8996 145.89 20.8996 145.794 20.0696C145.794 20.0696 145.762 19.3353 145.188 19.3991C145.188 19.3672 140.015 19.016 139.792 22.5598Z" fill="#2B3B6F"/>
<path d="M155.341 19.0794C153.521 17.6108 150.201 18.7602 150.201 18.7602C149.626 18.856 149.786 19.5583 149.786 19.5583C149.946 20.3884 150.201 20.3246 150.201 20.3246C150.201 20.3246 152.947 19.4626 155.118 19.9734C155.182 19.686 155.245 19.3668 155.341 19.0794Z" fill="#2B3B6F"/>
<path d="M151.828 31.8823L145.251 33.0955C144.9 33.1593 144.772 33.3509 144.964 33.5425C144.964 33.5425 146.848 35.4261 148.987 35.043C151.126 34.6599 152.179 32.2016 152.179 32.2016C152.243 31.9781 152.084 31.8504 151.828 31.8823Z" fill="white"/>
<path d="M147.104 29.8067C150.552 29.5513 150.743 28.6574 150.743 28.6574L148.923 25.0178C148.923 25.0178 149.338 28.6574 147.104 29.8067Z" fill="#E98B6F"/>
<path d="M110.899 147.614C110.899 147.614 111.091 194.163 117.221 219.895C118.147 223.726 132.162 222.545 132.162 222.545C132.162 222.545 141.325 178.519 142.474 161.981C143.145 152.627 144.997 136.249 144.997 136.249C144.997 136.249 112.176 133.024 110.899 147.614Z" fill="#1F2732"/>
<path d="M155.595 103.971C155.595 103.971 162.395 132.8 161.501 135.961C158.852 145.028 134.428 157.767 112.144 139.186C112.144 139.186 117.252 117.859 127.819 99.8207C127.787 99.8207 131.682 103.843 155.595 103.971Z" fill="#1F2732"/>
<path d="M125.361 103.875C125.361 103.875 150.296 111.569 155.595 103.971C158.022 100.491 163.353 83.1552 165.014 72.0768C161.023 62.6267 152.115 45.3865 152.115 45.3865C150.838 45.0673 148.923 45.0034 148.923 45.0034C152.147 57.0715 147.773 59.9129 147.773 59.9129C134.492 60.2961 131.236 49.7285 131.236 49.7285L128.043 51.7398C128.043 51.7398 137.94 72.3003 118.848 81.6866C118.816 81.6547 118.369 103.716 125.361 103.875Z" fill="#6652A2"/>
<path d="M133.216 32.0095C133.216 32.648 132.705 33.1588 132.066 33.1588C131.428 33.1588 130.917 32.648 130.917 32.0095C130.917 31.3709 131.428 30.8601 132.066 30.8601C132.705 30.8601 133.216 31.3709 133.216 32.0095Z" fill="white"/>
<path d="M128.393 60.2965C132.288 64.415 132.064 70.928 127.946 74.791C123.827 78.686 110.865 86.061 110.738 80.41C110.514 69.2678 110.929 63.2338 115.048 59.3388C119.166 55.4757 124.498 56.1781 128.393 60.2965Z" fill="#F7A483"/>
<path d="M128.84 69.7146L119.901 64.5426L110.898 70.1935C110.898 70.1935 105.63 103.78 107.578 111.474C109.653 119.679 113.42 113.645 115.176 111.378C115.176 111.378 129.862 76.2276 128.84 69.7146Z" fill="#F7A483"/>
<path d="M108.919 114.731C108.919 114.731 125.042 126.224 139.345 132.514C139.345 132.514 144.07 130.534 141.707 128.331C137.684 124.628 120.157 107.835 116.102 104.099C108.919 101.641 108.919 114.731 108.919 114.731Z" fill="#F7A483"/>
<path d="M147.487 138.93C141.645 136.408 141.07 135.482 139.984 134.173C135.227 128.491 143.816 127.98 146.018 128.267C147.296 128.459 147.615 131.396 151.765 134.652C151.765 134.652 158.087 137.653 159.555 137.27C159.555 137.27 161.12 137.366 161.215 138.483C161.215 138.483 157.193 141.357 147.487 138.93Z" fill="#F7A483"/>
<path d="M145.73 128.203C145.73 128.203 143.24 130.342 146.975 131.651L151.7 131.077C151.7 131.077 153.041 131.141 153.233 129.959C153.233 129.959 153.169 129.161 151.796 129.097L145.73 128.203Z" fill="#F7A483"/>
<path d="M246.714 169.994C246.65 169.962 246.587 169.962 246.491 169.962C246.395 169.93 246.267 169.898 246.172 169.898C246.108 169.898 246.012 169.867 245.948 169.867C245.884 169.867 245.788 169.835 245.725 169.835L245.565 188.16L215.203 208.657L215.395 186.755L240.553 169.771C240.169 169.803 239.818 169.867 239.435 169.93C239.339 169.93 239.275 169.962 239.18 169.962C239.052 169.994 238.892 170.026 238.765 170.026C238.669 170.058 238.573 170.058 238.477 170.09C238.35 170.122 238.19 170.154 238.062 170.186C237.966 170.218 237.903 170.218 237.807 170.25C237.583 170.313 237.36 170.345 237.136 170.409C237.073 170.409 237.009 170.441 236.945 170.441C236.658 170.505 236.402 170.601 236.115 170.665C236.051 170.665 236.019 170.697 235.955 170.697C235.572 170.792 235.221 170.92 234.838 171.048H234.806C234.423 171.176 234.072 171.303 233.688 171.463C233.656 171.463 233.625 171.495 233.625 171.495C233.209 171.654 232.794 171.846 232.379 172.006C232.347 172.006 232.347 172.006 232.316 172.038C231.901 172.229 231.485 172.421 231.102 172.644C231.102 172.644 231.07 172.644 231.07 172.676C230.655 172.9 230.272 173.123 229.889 173.346C229.889 173.346 229.889 173.346 229.857 173.346C229.474 173.57 229.059 173.825 228.708 174.081C225.356 176.348 223.6 178.87 223.568 181.041C223.632 173.762 223.696 166.45 223.759 159.171C223.791 157 225.547 154.478 228.899 152.211C229.283 151.956 229.666 151.701 230.049 151.477C230.049 151.477 230.049 151.477 230.081 151.477C230.464 151.254 230.879 151.03 231.262 150.807C231.262 150.807 231.294 150.807 231.294 150.775C231.709 150.551 232.092 150.36 232.507 150.168C232.539 150.168 232.539 150.136 232.571 150.136C232.986 149.945 233.401 149.785 233.816 149.625H233.848C233.88 149.625 233.88 149.593 233.912 149.593C234.263 149.466 234.646 149.306 234.997 149.178C235.029 149.178 235.029 149.178 235.061 149.146C235.444 149.019 235.795 148.891 236.179 148.795C236.211 148.795 236.242 148.763 236.274 148.763C236.306 148.763 236.306 148.763 236.338 148.731C236.594 148.668 236.881 148.572 237.136 148.508C237.2 148.476 237.264 148.476 237.328 148.476C237.551 148.412 237.775 148.38 237.967 148.316C237.998 148.316 238.062 148.284 238.094 148.284C238.158 148.284 238.19 148.253 238.254 148.253C238.382 148.221 238.509 148.189 238.637 148.157C238.733 148.125 238.829 148.125 238.956 148.093C239.084 148.061 239.212 148.029 239.371 148.029C239.435 148.029 239.499 147.997 239.595 147.997C239.627 147.997 239.627 147.997 239.659 147.997C240.042 147.933 240.393 147.869 240.776 147.837C240.808 147.837 240.84 147.837 240.872 147.837C240.904 147.837 240.904 147.837 240.936 147.837C241.255 147.806 241.574 147.774 241.893 147.742C241.925 147.742 241.957 147.742 241.989 147.742C242.021 147.742 242.053 147.742 242.085 147.742C242.372 147.71 242.692 147.71 242.979 147.71C243.266 147.71 243.522 147.71 243.809 147.71C243.841 147.71 243.873 147.71 243.905 147.71C243.937 147.71 243.969 147.71 244.001 147.71C244.256 147.71 244.543 147.742 244.799 147.742C244.799 147.742 244.799 147.742 244.831 147.742C244.863 147.742 244.863 147.742 244.894 147.742C245.182 147.774 245.437 147.806 245.693 147.837C245.725 147.837 245.756 147.837 245.788 147.837C245.82 147.837 245.82 147.837 245.852 147.837C245.948 147.837 246.076 147.869 246.172 147.901C246.267 147.901 246.331 147.933 246.427 147.933C246.523 147.965 246.618 147.965 246.714 147.997C246.778 147.997 246.842 148.029 246.906 148.029H246.938C247.161 148.093 247.385 148.157 247.608 148.221C247.672 148.221 247.704 148.253 247.768 148.284C247.991 148.348 248.215 148.444 248.406 148.54C248.566 148.604 248.726 148.699 248.885 148.763C248.917 148.795 248.981 148.827 249.013 148.827C249.077 148.859 249.109 148.891 249.173 148.923C249.205 148.955 249.268 148.987 249.3 149.019C249.364 149.051 249.396 149.083 249.46 149.115C249.556 149.178 249.62 149.242 249.683 149.274C249.715 149.306 249.779 149.338 249.811 149.37L249.843 149.402C249.939 149.466 250.003 149.561 250.098 149.625L250.13 149.657C250.194 149.721 250.258 149.785 250.322 149.849C250.354 149.881 250.354 149.881 250.386 149.913C250.418 149.945 250.45 149.977 250.482 150.008C250.545 150.072 250.577 150.136 250.641 150.2C250.673 150.232 250.705 150.264 250.705 150.296C250.705 150.296 250.737 150.328 250.737 150.36C250.769 150.392 250.769 150.423 250.801 150.455C250.833 150.519 250.897 150.583 250.929 150.647C250.96 150.711 250.992 150.743 251.024 150.807C251.056 150.87 251.088 150.934 251.152 151.03C251.152 151.062 251.184 151.062 251.184 151.094C251.184 151.126 251.216 151.158 251.216 151.158C251.28 151.286 251.344 151.413 251.407 151.541C251.407 151.573 251.439 151.573 251.439 151.605C251.503 151.764 251.599 151.956 251.663 152.116C251.695 152.211 251.759 152.339 251.791 152.435C251.822 152.499 251.822 152.531 251.854 152.594C251.918 152.754 251.982 152.882 252.046 153.01C252.078 153.073 252.11 153.137 252.174 153.233C252.206 153.265 252.206 153.297 252.237 153.361C252.301 153.456 252.365 153.584 252.429 153.68C252.461 153.744 252.525 153.808 252.589 153.872C252.653 153.967 252.716 154.063 252.812 154.159C252.844 154.191 252.876 154.255 252.908 154.287C253.004 154.414 253.131 154.542 253.227 154.67C253.227 154.67 253.227 154.67 253.259 154.702C253.387 154.829 253.515 154.957 253.642 155.085C253.674 155.117 253.706 155.149 253.77 155.18C253.866 155.276 253.961 155.372 254.057 155.436C254.121 155.468 254.153 155.532 254.217 155.564C254.313 155.659 254.44 155.723 254.536 155.819C254.6 155.851 254.632 155.883 254.696 155.915C254.855 156.042 255.015 156.138 255.207 156.234C255.207 156.234 255.239 156.234 255.239 156.266C255.239 156.266 255.27 156.298 255.302 156.298H255.334C255.366 156.298 255.366 156.33 255.398 156.33C255.398 156.33 255.43 156.362 255.462 156.362C255.494 156.362 255.526 156.394 255.558 156.394C255.59 156.394 255.59 156.426 255.622 156.426C255.654 156.458 255.686 156.458 255.717 156.489C255.749 156.489 255.781 156.521 255.813 156.521C255.845 156.553 255.877 156.553 255.909 156.585C255.941 156.617 256.005 156.617 256.037 156.649C256.069 156.649 256.101 156.681 256.101 156.681C256.164 156.713 256.196 156.713 256.26 156.745C256.292 156.745 256.324 156.777 256.356 156.777C256.452 156.809 256.516 156.841 256.611 156.873C257.186 157.128 257.856 157.415 258.495 157.607L288.793 137.206L288.601 159.107L258.208 179.636C257.569 179.412 256.899 179.157 256.324 178.902C256.228 178.87 256.164 178.838 256.069 178.774C256.069 178.774 256.037 178.774 256.037 178.742C255.973 178.71 255.909 178.678 255.845 178.646C255.813 178.646 255.813 178.614 255.781 178.614C255.717 178.582 255.686 178.582 255.654 178.55C255.622 178.55 255.59 178.519 255.558 178.519C255.526 178.487 255.494 178.487 255.462 178.455C255.43 178.455 255.43 178.423 255.398 178.423C255.366 178.391 255.334 178.391 255.302 178.359C255.27 178.359 255.27 178.327 255.239 178.327C255.207 178.327 255.175 178.295 255.143 178.295C255.143 178.295 255.111 178.295 255.111 178.263C255.079 178.263 255.047 178.231 255.047 178.231H255.015C255.015 178.231 254.983 178.231 254.983 178.199C254.824 178.103 254.664 177.976 254.504 177.88C254.44 177.848 254.408 177.816 254.345 177.784C254.249 177.72 254.121 177.625 254.025 177.529C253.993 177.497 253.962 177.497 253.93 177.465C253.898 177.433 253.898 177.433 253.866 177.401C253.77 177.305 253.674 177.241 253.578 177.146C253.546 177.114 253.483 177.082 253.451 177.018C253.323 176.89 253.195 176.763 253.068 176.635C253.068 176.635 253.068 176.603 253.036 176.603C252.908 176.475 252.812 176.348 252.716 176.22C252.684 176.188 252.653 176.124 252.621 176.092C252.557 175.996 252.461 175.901 252.397 175.805C252.365 175.773 252.365 175.773 252.333 175.741C252.301 175.709 252.269 175.645 252.237 175.613C252.174 175.517 252.11 175.39 252.046 175.294C252.014 175.23 251.982 175.198 251.95 175.134C251.918 175.07 251.886 175.039 251.854 174.975C251.791 174.815 251.727 174.687 251.631 174.528C251.599 174.496 251.599 174.432 251.567 174.4C251.503 174.272 251.439 174.145 251.407 174.017C251.344 173.857 251.28 173.73 251.216 173.57C251.216 173.538 251.184 173.506 251.184 173.474C251.12 173.346 251.088 173.251 251.024 173.123C250.992 173.091 250.992 173.027 250.96 172.995C250.929 172.931 250.897 172.868 250.833 172.804C250.801 172.74 250.769 172.708 250.737 172.644C250.705 172.58 250.641 172.516 250.609 172.453C250.577 172.389 250.545 172.357 250.513 172.293C250.482 172.261 250.45 172.229 250.45 172.197C250.386 172.133 250.354 172.069 250.29 172.006C250.258 171.974 250.226 171.942 250.194 171.91C250.13 171.814 250.035 171.75 249.971 171.654L249.939 171.622C249.843 171.527 249.747 171.431 249.651 171.367C249.62 171.335 249.556 171.303 249.524 171.271C249.46 171.207 249.364 171.144 249.3 171.112C249.236 171.08 249.205 171.048 249.141 171.016C249.045 170.952 248.949 170.888 248.853 170.856C248.821 170.824 248.758 170.792 248.726 170.792C248.566 170.729 248.406 170.633 248.247 170.569C248.023 170.473 247.832 170.409 247.608 170.314C247.544 170.282 247.512 170.282 247.449 170.25C247.193 170.09 246.97 170.026 246.714 169.994Z" fill="#0093C6"/>
<path d="M121.085 169.036L121.277 147.135L160.258 163.545L160.099 181.775H160.131C160.226 181.775 160.29 181.807 160.386 181.807C160.705 181.839 160.993 181.871 161.312 181.903C161.344 181.903 161.376 181.903 161.408 181.903C161.631 181.935 161.855 181.935 162.078 181.935C162.174 181.935 162.238 181.935 162.334 181.935C162.493 181.935 162.653 181.935 162.844 181.966C162.908 181.966 162.972 181.966 163.036 181.966C163.419 181.966 163.802 181.966 164.185 181.966C164.249 181.966 164.281 181.966 164.345 181.966C164.664 181.966 164.983 181.935 165.271 181.935C165.303 181.935 165.303 181.935 165.335 181.935C165.622 181.903 165.909 181.903 166.165 181.871C166.229 181.871 166.292 181.871 166.356 181.839C166.58 181.807 166.803 181.775 167.027 181.743C167.059 181.743 167.091 181.743 167.123 181.743C167.378 181.711 167.601 181.647 167.825 181.615C167.889 181.615 167.953 181.583 168.016 181.583C168.24 181.52 168.431 181.488 168.655 181.424C168.687 181.424 168.719 181.424 168.751 181.392C168.783 181.392 168.847 181.36 168.878 181.36C168.974 181.328 169.102 181.296 169.198 181.264C169.262 181.232 169.293 181.232 169.357 181.2C169.453 181.168 169.549 181.136 169.645 181.104C169.709 181.073 169.74 181.073 169.804 181.041C169.9 181.009 169.964 180.977 170.06 180.913C170.092 180.881 170.155 180.881 170.187 180.849C170.283 180.817 170.347 180.753 170.443 180.721C170.475 180.689 170.507 180.689 170.571 180.657C170.698 180.594 170.794 180.53 170.922 180.434C172.39 179.444 172.614 178.167 172.646 176.858C172.646 176.507 172.646 176.156 172.646 175.805C172.646 174.719 172.742 173.666 173.444 172.708C173.604 172.516 175.168 171.175 176.477 170.409L215.395 186.787L215.203 208.689L176.285 192.311C174.944 193.077 173.38 194.418 173.252 194.609C172.614 195.439 172.486 196.397 172.454 197.355C172.454 197.706 172.454 198.057 172.454 198.408C172.454 199.845 172.326 201.25 170.73 202.303C170.634 202.367 170.507 202.463 170.379 202.527C170.347 202.559 170.315 202.559 170.251 202.591C170.155 202.623 170.092 202.687 169.996 202.718C169.964 202.75 169.9 202.75 169.836 202.782C169.74 202.814 169.677 202.846 169.581 202.91C169.517 202.942 169.485 202.942 169.421 202.974C169.389 202.974 169.357 203.006 169.325 203.006C169.262 203.038 169.198 203.038 169.134 203.07C169.07 203.102 169.038 203.102 168.974 203.134C168.878 203.165 168.751 203.197 168.655 203.229C168.623 203.229 168.559 203.261 168.527 203.261C168.527 203.261 168.527 203.261 168.495 203.261C168.463 203.261 168.463 203.261 168.431 203.261C168.24 203.325 168.016 203.389 167.793 203.421C167.761 203.421 167.729 203.421 167.697 203.453C167.665 203.453 167.633 203.453 167.633 203.453C167.41 203.517 167.154 203.549 166.931 203.58C166.899 203.58 166.899 203.58 166.867 203.58C166.644 203.612 166.388 203.644 166.165 203.676C166.133 203.676 166.101 203.676 166.069 203.676C166.037 203.676 166.005 203.676 165.973 203.676C165.686 203.708 165.43 203.74 165.143 203.74C165.143 203.74 165.143 203.74 165.111 203.74C165.079 203.74 165.079 203.74 165.047 203.74C164.728 203.772 164.441 203.772 164.121 203.772C164.09 203.772 164.058 203.772 164.026 203.772H163.994C163.611 203.772 163.228 203.772 162.844 203.772C162.812 203.772 162.781 203.772 162.749 203.772C162.717 203.772 162.685 203.772 162.653 203.772C162.493 203.772 162.334 203.772 162.142 203.74C162.046 203.74 161.982 203.74 161.887 203.74C161.663 203.74 161.408 203.708 161.184 203.676H161.152C160.833 203.644 160.546 203.612 160.226 203.58C160.131 203.58 160.067 203.549 159.971 203.549C159.684 203.517 159.428 203.485 159.141 203.453C159.109 203.453 159.077 203.453 159.045 203.453H159.013C158.758 203.421 158.502 203.389 158.247 203.325C158.215 203.325 158.151 203.293 158.119 203.293C157.896 203.261 157.672 203.229 157.449 203.165C157.353 203.134 157.257 203.134 157.162 203.102C157.002 203.07 156.842 203.038 156.651 203.006C156.555 202.974 156.427 202.942 156.331 202.942C156.172 202.91 156.012 202.878 155.853 202.846C155.821 202.846 155.757 202.814 155.725 202.814C155.693 202.814 155.661 202.782 155.629 202.782C155.214 202.687 154.799 202.559 154.352 202.463C154.288 202.463 154.256 202.431 154.192 202.431C153.777 202.303 153.33 202.176 152.915 202.048C152.883 202.048 152.82 202.016 152.788 202.016C152.341 201.856 151.926 201.729 151.479 201.569C151.447 201.569 151.415 201.537 151.415 201.537C150.968 201.378 150.521 201.186 150.074 200.994C149.85 200.899 149.659 200.803 149.435 200.707C149.148 200.579 148.861 200.452 148.573 200.292C148.478 200.26 148.382 200.196 148.286 200.164C148.095 200.069 147.935 199.973 147.743 199.877C147.648 199.813 147.552 199.781 147.424 199.717C147.264 199.622 147.105 199.526 146.945 199.462C146.849 199.398 146.754 199.334 146.658 199.302C146.594 199.27 146.53 199.239 146.466 199.207C146.37 199.143 146.275 199.079 146.179 199.015C146.083 198.951 146.019 198.919 145.924 198.855C145.764 198.76 145.572 198.632 145.413 198.536C145.349 198.504 145.317 198.472 145.253 198.44C145.03 198.281 144.838 198.153 144.646 197.993C144.583 197.961 144.551 197.93 144.487 197.866C144.359 197.77 144.263 197.674 144.136 197.578C144.104 197.546 144.104 197.546 144.072 197.515C143.944 197.387 143.784 197.259 143.657 197.163C143.593 197.099 143.529 197.068 143.465 197.004C143.274 196.844 143.114 196.653 142.954 196.493C142.827 196.333 142.667 196.174 142.571 196.046C142.539 195.982 142.507 195.95 142.475 195.886C142.412 195.791 142.348 195.727 142.284 195.631C142.284 195.599 142.252 195.599 142.252 195.567C142.22 195.535 142.188 195.471 142.156 195.439C142.092 195.344 142.029 195.216 141.965 195.12C141.933 195.088 141.901 195.024 141.901 194.992C141.901 194.96 141.869 194.928 141.869 194.928C141.805 194.801 141.773 194.705 141.709 194.577C141.709 194.545 141.709 194.545 141.677 194.513C141.645 194.45 141.613 194.354 141.582 194.29C141.55 194.226 141.55 194.194 141.55 194.13C141.55 194.098 141.518 194.066 141.518 194.066C141.486 193.939 141.454 193.843 141.454 193.747C141.454 193.715 141.454 193.715 141.454 193.683C141.454 193.651 141.454 193.651 141.454 193.62C141.422 193.492 141.422 193.364 141.422 193.236V193.204C141.454 188.001 141.518 182.828 141.55 177.625L121.085 169.036Z" fill="#3DAFE4"/>
<path d="M288.793 137.206L194.707 97.6176L121.276 147.135L160.258 163.545C159.396 164.279 157.928 165.109 157.64 165.269C156.267 165.876 154.512 166.355 152.819 166.674C149.531 167.28 145.508 167.185 143.178 168.749C139.538 171.207 142.411 175.677 149.595 178.902C149.818 178.997 150.01 179.093 150.233 179.189C157.896 182.413 167.122 182.956 170.89 180.434C173.955 178.391 171.592 175.102 173.412 172.708C173.571 172.516 175.136 171.175 176.445 170.409L215.363 186.787L245.725 166.291C245.597 166.227 245.469 166.163 245.341 166.099C243.841 165.429 241.702 164.726 241.351 164.631C236.817 163.641 230.687 164.854 226.792 163.194C222.003 161.055 222.961 156.202 228.868 152.243C234.838 148.221 243.586 146.592 248.406 148.636C251.407 149.976 251.28 152.052 252.429 153.776C253.036 154.67 253.93 155.627 255.111 156.362C255.239 156.457 255.781 156.713 256.484 157.032C257.058 157.288 257.729 157.575 258.367 157.766L288.793 137.206Z" fill="#80BBE6"/>
<path d="M202.689 226.312C202.689 226.376 202.689 226.408 202.689 226.471C202.689 226.535 202.689 226.599 202.689 226.631C202.689 226.663 202.689 226.727 202.689 226.759C202.689 226.823 202.689 226.855 202.657 226.918C202.657 226.982 202.625 227.014 202.625 227.078C202.625 227.11 202.593 227.174 202.593 227.206C202.593 227.27 202.561 227.301 202.561 227.365C202.561 227.397 202.529 227.429 202.529 227.493C202.529 227.525 202.497 227.525 202.497 227.557C202.433 227.717 202.369 227.844 202.305 228.004C202.242 228.132 202.146 228.291 202.05 228.419C202.05 228.451 202.018 228.451 202.018 228.483C201.922 228.61 201.827 228.738 201.731 228.866C201.699 228.898 201.667 228.93 201.635 228.962C201.603 228.994 201.571 229.025 201.539 229.057C201.507 229.089 201.443 229.121 201.412 229.185C201.38 229.217 201.348 229.249 201.284 229.281C201.252 229.313 201.22 229.345 201.156 229.377C201.092 229.441 201.028 229.472 200.933 229.536C200.901 229.568 200.869 229.6 200.805 229.632C200.741 229.696 200.645 229.728 200.55 229.792C200.518 229.824 200.486 229.824 200.454 229.856C200.39 229.887 200.294 229.951 200.23 229.983C200.198 230.015 200.134 230.047 200.103 230.047C199.975 230.111 199.847 230.175 199.719 230.239C199.209 230.462 198.698 230.622 198.155 230.75C197.708 230.845 197.261 230.941 196.814 231.005C196.367 231.069 195.92 231.133 195.473 231.165C194.835 231.228 194.164 231.26 193.526 231.26C192.089 231.292 190.589 231.292 189.152 231.324C188.513 231.356 187.843 231.388 187.236 231.42L187.428 253.673C188.066 253.609 188.705 253.577 189.343 253.577C190.78 253.545 192.281 253.545 193.717 253.513C194.388 253.481 195.026 253.449 195.665 253.417C196.112 253.385 196.591 253.321 197.006 253.257C197.485 253.194 197.932 253.098 198.347 253.002C198.889 252.874 199.432 252.715 199.911 252.491C200.039 252.427 200.166 252.364 200.294 252.3C200.326 252.268 200.358 252.268 200.39 252.236C200.486 252.204 200.55 252.14 200.645 252.108H200.677C200.709 252.108 200.709 252.076 200.741 252.076C200.837 252.012 200.901 251.98 200.997 251.917C201.028 251.885 201.06 251.853 201.124 251.821C201.188 251.757 201.284 251.725 201.348 251.661C201.38 251.629 201.38 251.629 201.412 251.597C201.443 251.597 201.443 251.565 201.475 251.565C201.507 251.533 201.539 251.502 201.603 251.47C201.635 251.438 201.699 251.406 201.731 251.342C201.763 251.31 201.795 251.278 201.827 251.246C201.859 251.214 201.859 251.214 201.89 251.182L201.922 251.15C202.018 251.023 202.146 250.895 202.21 250.767C202.21 250.767 202.21 250.767 202.242 250.735C202.242 250.735 202.242 250.703 202.274 250.703C202.369 250.576 202.433 250.448 202.529 250.288C202.593 250.129 202.657 250.001 202.721 249.841V249.809C202.721 249.809 202.721 249.809 202.721 249.778C202.721 249.746 202.752 249.682 202.752 249.65C202.752 249.586 202.784 249.554 202.784 249.49C202.784 249.458 202.816 249.394 202.816 249.362C202.816 249.331 202.848 249.299 202.848 249.267V249.235C202.848 249.171 202.88 249.107 202.88 249.043C202.88 249.011 202.88 248.947 202.88 248.916C202.88 248.852 202.88 248.788 202.88 248.724C202.88 248.692 202.88 248.66 202.88 248.628V248.596L202.689 226.312Z" fill="#7C294B"/>
<path d="M184.746 231.771C184.299 231.867 182.192 232.601 180.692 233.272C180.564 233.335 180.404 233.399 180.309 233.463L180.5 255.716C180.628 255.652 180.756 255.588 180.883 255.524C182.384 254.854 184.523 254.151 184.906 254.056H184.938C185.289 253.992 185.64 253.928 186.023 253.864C186.47 253.8 186.917 253.768 187.364 253.704L187.173 231.452C186.726 231.484 186.279 231.548 185.832 231.611C185.481 231.643 185.098 231.707 184.746 231.771Z" fill="#7C294B"/>
<path d="M211.372 276.532L211.18 254.279L171.56 270.945L171.72 289.462C167.122 290.004 162.972 289.589 160.769 288.089C159.3 287.099 159.045 285.79 159.013 284.481C159.013 284.13 159.013 283.747 159.013 283.396C159.013 282.31 158.917 281.225 158.215 280.267C158.055 280.075 156.459 278.703 155.118 277.904L115.562 294.57L115.753 316.822L155.31 300.157C156.651 300.955 158.247 302.296 158.406 302.52C159.045 303.382 159.173 304.339 159.205 305.297C159.205 305.68 159.205 306.031 159.205 306.415C159.205 307.883 159.332 309.288 160.961 310.373C164.792 312.959 174.178 312.385 181.968 309.128C182.191 309.032 182.415 308.937 182.606 308.841C187.779 306.542 190.748 303.573 190.748 301.179C190.716 295.911 190.652 290.611 190.62 285.343L211.372 276.532Z" fill="#A1426F"/>
<path d="M199.72 230.239L199.911 252.491C195.761 254.247 189.535 253.002 184.938 254.024C184.587 254.088 182.416 254.822 180.883 255.524C180.756 255.588 180.596 255.652 180.5 255.716L180.309 233.463C180.436 233.399 180.564 233.336 180.692 233.272C182.224 232.601 184.395 231.867 184.746 231.771C189.344 230.75 195.601 231.995 199.72 230.239Z" fill="#7C294B"/>
<path d="M115.53 294.506L40.9189 244.159L41.1105 266.411L115.722 316.759L115.53 294.506Z" fill="#7C294B"/>
<path d="M188.897 276.212C186.534 274.616 182.416 274.712 179.095 274.105C177.371 273.786 175.584 273.307 174.211 272.669C173.923 272.541 172.423 271.679 171.529 270.945L211.149 254.279L180.277 233.463C180.404 233.399 180.532 233.336 180.66 233.272C182.192 232.601 184.363 231.867 184.714 231.771C189.312 230.749 195.537 231.995 199.688 230.239C204.413 228.132 203.423 223.215 197.421 219.16C191.355 215.074 182.48 213.414 177.435 215.553C174.53 216.83 174.658 218.969 173.476 220.725C172.87 221.651 171.944 222.608 170.731 223.343C170.571 223.438 170.028 223.726 169.326 224.013C168.751 224.268 168.049 224.556 167.41 224.779L136.538 203.932L40.9189 244.158L115.53 294.506L155.087 277.841C156.428 278.639 158.024 279.98 158.184 280.203C160.036 282.63 157.641 285.95 160.738 288.057C164.569 290.643 173.955 290.068 181.745 286.812C181.969 286.716 182.192 286.62 182.384 286.525C189.695 283.268 192.632 278.735 188.897 276.212Z" fill="#CC4E7E"/>
<path d="M422.691 356.124C418.891 359.955 412.634 361.998 412.634 361.998C407.366 363.339 404.269 359.827 404.269 359.827C403.152 358.231 404.525 357.369 404.525 357.369C415.635 348.908 418.987 346.514 418.987 346.514H429.204C429.714 350.632 429.427 352.293 429.427 352.293C428.533 353.506 426.681 355.198 423.808 355.677C423.584 355.709 423.201 355.389 423.01 355.485L422.691 356.124Z" fill="#17181C"/>
<path d="M404.461 357.401C404.493 357.624 404.557 357.88 404.685 358.103C405.547 359.955 407.941 360.721 409.857 360.689C412.156 360.657 414.231 359.54 416.21 358.518C418.126 357.56 419.818 356.315 421.478 354.942C422.627 353.985 424.096 353.538 425.469 352.963C427.001 352.293 428.151 351.239 429.491 350.249C429.491 351.335 429.428 352.261 429.428 352.261C428.534 353.474 426.682 355.166 423.809 355.645C423.585 355.677 423.202 355.357 423.01 355.453L422.723 356.092C418.924 359.923 412.666 361.966 412.666 361.966C407.399 363.307 404.302 359.795 404.302 359.795C403.248 358.422 404.238 357.592 404.461 357.401Z" fill="black"/>
<path d="M430.323 263.697C418.957 276.244 414.456 262.963 414.456 262.963L413.051 185.893C412.891 187.043 412.54 178.135 426.875 180.051C441.178 181.966 444.785 187.554 444.785 187.554C444.785 187.554 436.9 240.774 430.323 263.697Z" fill="#E59375"/>
<path d="M414.391 261.974C414.391 261.974 420.169 343.162 420.616 346.003C420.616 346.003 427.608 347.568 427.64 345.939C427.704 342.044 435.717 294.538 435.813 288.44C436.069 272.956 432.078 270.051 428.119 259.643C428.119 259.643 414.359 249.459 414.391 261.974Z" fill="#E59375"/>
<path d="M433.738 266.603C440.347 243.712 444.785 187.554 444.785 187.554C444.785 187.554 441.177 181.966 426.874 180.051C412.539 178.135 412.922 187.043 413.05 185.893C413.05 185.893 408.708 227.685 412.699 265.677C412.667 265.677 424.926 272.158 433.738 266.603Z" fill="#104473"/>
<path d="M455.417 144.549C457.428 151.764 465.793 179.285 465.793 179.285C435.846 215.106 413.306 183.754 413.019 180.498C412.668 176.603 417.042 161.661 417.808 145.539C417.808 145.539 425.949 132.96 455.417 144.549Z" fill="#F7A483"/>
<path d="M413.178 189.437C411.773 179.796 414.71 170.058 416.211 160.321H460.078C462.887 169.675 465.792 179.285 465.792 179.285C465.792 179.285 467.676 201.41 448.903 204.06C448.872 204.028 416.147 209.711 413.178 189.437Z" fill="#104473"/>
<path d="M463.047 265.358C453.661 279.437 447.244 266.986 447.244 266.986L432.047 191.895C432.079 193.045 432.494 182.126 446.956 181.903C461.387 181.679 465.793 186.66 465.793 186.66C465.793 186.66 466.208 241.732 463.047 265.358Z" fill="#F7A483"/>
<path d="M447.053 266.06C447.053 266.06 462.122 351.59 463.016 354.336C463.016 354.336 470.167 354.815 469.976 353.218C469.465 349.355 470.774 295.432 469.976 289.366C467.933 274.042 465.826 271.392 460.334 261.686C460.302 261.686 445.169 253.641 447.053 266.06Z" fill="#F7A483"/>
<path d="M462.313 352.676L458.066 365.606C458.066 365.606 458.928 377.163 468.219 370.012L470.997 367.33C472.401 366.149 471.986 364.489 471.986 364.489L471.156 359.54L470.166 352.676C470.166 352.676 464.356 348.749 462.313 352.676Z" fill="#17181C"/>
<path d="M468.218 368.352L470.996 365.67C471.539 365.191 471.826 364.68 471.954 364.201L472.017 364.489C472.017 364.489 472.433 366.149 471.028 367.33L468.25 370.012C458.96 377.163 458.098 365.606 458.098 365.606L458.257 365.095C458.768 367.841 460.811 374.098 468.218 368.352Z" fill="black"/>
<path d="M445.422 269.093C440.154 253.577 430.161 189.469 430.161 189.469C430.193 190.619 433.162 174.145 447.625 173.953C462.055 173.73 465.791 179.317 465.791 179.317C465.791 179.317 470.324 242.084 467.164 265.709C467.164 265.677 457.011 277.394 445.422 269.093Z" fill="#065099"/>
<path d="M420.01 95.1911C420.01 95.1911 395.523 123.989 383.327 133.534C383.327 133.534 375.154 130.501 375.409 124.946C375.409 124.946 393.352 98.4157 404.59 82.708C404.622 82.7399 419.818 78.366 420.01 95.1911Z" fill="#E59375"/>
<path d="M378.953 122.552C378.953 122.552 352.199 138.132 341.12 143.336C341.12 143.336 339.141 146.433 342.333 146.752C347.697 147.231 384.955 134.62 385.881 131.683C390.159 118.018 378.953 122.552 378.953 122.552Z" fill="#E59375"/>
<path d="M403.408 91.9986C405.324 97.1387 411.039 99.7886 416.179 97.9049C421.287 96.0213 423.905 90.3384 421.958 85.1664C420.042 80.0263 414.327 77.3764 409.187 79.26C404.079 81.1437 401.461 86.8266 403.408 91.9986Z" fill="#E59375"/>
<path d="M415.636 78.7173C415.636 78.7173 406.888 75.6524 400.886 84.2405L379.527 115.241C379.527 115.241 383.933 125.106 394.341 130.502C394.341 130.47 432.589 95.2551 415.636 78.7173Z" fill="#872952"/>
<path d="M440.379 68.3091C440.379 68.3091 442.135 64.925 446.03 58.412C446.03 58.412 454.299 49.9197 449.669 39.2244C449.669 39.2244 447.115 30.2851 431.503 31.594C431.503 31.594 430.003 56.1772 440.379 68.3091Z" fill="#F8A07D"/>
<path d="M440.985 54.3895C440.985 54.3895 438.368 78.9088 443.955 80.7605L423.969 79.5793C423.969 79.5793 427.098 72.1724 423.458 66.713L440.985 54.3895Z" fill="#F7A483"/>
<path d="M425.088 75.2692C425.407 69.6822 424.704 68.5328 423.491 66.6811L441.019 54.3895C441.019 54.3895 440.157 62.3072 440.476 69.4906C435.368 74.2795 431.185 75.3969 425.088 75.2692Z" fill="#E1876F"/>
<path d="M409.89 78.6535C405.452 81.9099 404.941 89.668 406.505 94.5527C408.325 100.14 409.06 107.259 410.879 115.337C413.37 126.255 415.03 134.684 417.807 145.539C420.106 154.51 456.183 147.295 456.183 147.295L469.113 103.109C469.113 103.109 471.347 91.5836 460.876 87.7205C460.876 87.7205 449.861 81.7822 441.816 79.0366C434.696 76.6102 432.11 76.3867 424.799 76.8337C424.799 76.8337 414.998 77.2168 409.89 78.6535Z" fill="#F7A483"/>
<path d="M416.307 33.446C415.286 38.1392 414.105 40.5975 415.413 44.9075C416.595 48.7706 416.307 52.8572 417.999 56.5925C420.426 61.9561 423.555 61.2537 425.949 56.3371C428.407 51.2928 430.962 44.4925 425.406 40.7571C421.863 38.3627 420.586 34.2442 416.307 33.446Z" fill="#271000"/>
<path d="M419.404 70.1932L418.574 67.4156L416.466 57.1673C416.211 55.8903 416.307 54.1982 416.626 52.9211C416.977 51.5164 417.233 50.0797 416.977 48.5472C415.7 41.2042 419.723 37.3731 419.723 37.3731C424.288 30.8601 434.345 31.371 434.345 31.371C446.732 32.6161 447.179 44.6842 447.179 44.6842C448.808 52.7934 442.103 59.1148 442.071 59.1467C441.529 59.6576 441.656 62.3074 441.465 63.0417C440.635 66.2024 437.506 68.0222 434.728 69.2354C431.663 70.5763 427.992 71.981 424.671 72.1087C423.426 72.1407 419.883 71.7576 419.404 70.1932Z" fill="#F8A07D"/>
<path d="M416.722 56.9757C418.35 58.4443 420.553 57.7739 422.309 58.8274C423.458 59.5298 424.001 59.466 425.246 59.1148C426.236 58.8274 427.034 58.9232 428.055 59.2105C429.077 59.4979 430.961 60.4237 431.982 60.8068C433.515 61.4134 435.239 61.2219 436.42 59.7852C437.665 58.2528 438.144 57.9654 438.719 56.1456C439.804 52.7934 443.188 52.6018 445.519 54.4855C443.987 57.3588 442.103 59.1467 442.103 59.1467C441.56 59.6575 441.688 64.4784 441.496 65.2127C440.666 68.3733 437.537 70.1931 434.76 71.4063C431.695 72.7472 427.066 72.9388 423.713 73.0665C422.436 73.1303 419.882 71.7894 419.403 70.1931L418.573 67.4156L416.466 57.1673C416.434 56.9757 416.402 56.7841 416.402 56.5926C416.498 56.7203 416.594 56.848 416.722 56.9757Z" fill="#271000"/>
<path d="M416.498 37.8199C419.308 37.8199 419.276 40.1824 421.415 41.4914C426.012 44.3009 433.164 40.1824 436.899 44.7159C437.218 45.131 437.538 45.6099 437.825 46.1526C438.911 48.1959 439.262 50.6861 439.613 52.9529C439.709 53.6234 439.23 55.3474 439.836 55.8582C440.188 56.1455 440.794 56.0817 441.433 55.8582C441.56 56.8798 440.73 57.678 440.379 58.6038C440.028 59.5616 439.485 60.3598 439.964 61.3176C441.273 63.7759 440.251 63.3608 440.379 68.3094C441.177 67.1281 443.157 65.7234 443.763 65.1806C445.551 63.6162 447.275 61.8922 448.552 59.8809C449.829 57.9015 450.659 55.6666 451.457 53.4637C452.798 49.8561 453.565 45.993 452.511 42.2257C452.511 42.2257 451.649 33.4779 444.338 32.5201C444.338 32.5201 445.264 26.8692 431.887 25.4006C431.887 25.4006 421.319 25.5602 420.745 21.9207C420.745 21.9207 418.605 23.7404 419.148 26.5819C419.148 26.5819 414.806 27.9228 412.827 22.9423C412.827 22.8784 409.187 36.0001 416.498 37.8199Z" fill="#271000"/>
<path d="M440.187 61.1899C440.506 61.605 440.985 61.9242 441.592 62.02C443.252 62.3393 444.944 60.7749 445.327 58.5401C445.71 56.3371 444.689 54.2619 443.028 53.9746C442.23 53.8469 441.432 54.1023 440.794 54.677C439.836 55.5071 439.517 57.2949 439.517 58.6039C439.517 59.6575 439.708 60.5514 440.187 61.1899Z" fill="#F8A07D"/>
<path d="M441.975 55.9858C442.231 54.8365 444.466 56.2412 444.051 56.8478C443.795 57.199 443.348 57.4225 442.997 57.6779C442.518 57.9972 442.231 58.2845 442.103 58.8911C442.071 58.955 442.039 59.1465 442.103 59.2104C442.39 59.4658 443.54 58.4441 443.795 58.2207C444.274 57.8056 444.434 56.9755 444.306 56.3689C444.146 55.6985 443.795 55.3792 443.093 55.3154C442.55 55.2834 442.007 55.2515 441.943 55.922C441.975 55.922 441.975 56.0177 441.975 55.9858Z" fill="#E98B6F"/>
<path d="M442.613 57.2949C442.39 57.0076 442.134 57.1991 441.847 57.3587C441.592 57.4864 441.432 57.7418 441.336 57.9973C441.113 58.6039 441.113 59.4339 441.4 60.0086C441.623 60.4875 442.07 60.8068 442.613 60.8387C443.348 60.9025 443.635 60.2959 443.731 59.6894C443.763 59.5297 443.826 59.1466 443.667 59.0189C443.507 58.8912 443.347 59.1466 443.22 59.2424C443.028 59.3701 442.805 59.402 442.581 59.402C442.166 59.402 441.783 59.1466 441.56 58.7954C441.528 58.7316 441.496 58.6677 441.464 58.6039C441.432 58.987 441.432 59.0828 441.496 58.8912C441.528 58.7954 441.592 58.6996 441.655 58.6358C441.847 58.3804 442.166 58.2207 442.39 57.9973C442.485 57.8376 442.709 57.4226 442.613 57.2949Z" fill="#E98B6F"/>
<path d="M422.979 56.3692L426.363 57.6782C426.363 57.6782 421.797 57.9656 421.638 56.6247C421.638 56.6247 422.34 54.0386 423.074 51.5803C423.042 51.5803 422.468 56.1777 422.979 56.3692Z" fill="#E98B6F"/>
<path d="M428.854 51.5799C428.854 52.2823 429.237 52.857 429.747 52.857C430.226 52.857 430.609 52.2823 430.609 51.5799C430.609 50.8775 430.226 50.3029 429.747 50.3029C429.269 50.3029 428.854 50.8775 428.854 51.5799Z" fill="#271000"/>
<path d="M419.115 50.4947C419.115 51.1971 419.498 51.7717 420.009 51.7717C420.488 51.7717 420.871 51.1971 420.871 50.4947C420.871 49.7923 420.488 49.2177 420.009 49.2177C419.53 49.2177 419.115 49.7923 419.115 50.4947Z" fill="#271000"/>
<path d="M427.959 49.0897C427.64 49.1536 427.576 48.7385 427.576 48.7385C427.48 48.3235 427.608 47.9723 427.608 47.9723C427.735 47.685 427.991 47.5892 427.991 47.5892C428.821 47.4615 430.385 47.685 431.726 48.0681C432.46 48.2916 433.674 48.8343 433.737 49.5367C433.769 49.7282 433.769 50.0794 433.546 50.1433C433.514 50.1433 430.96 49.3451 427.959 49.0897Z" fill="#271000"/>
<path d="M416.88 47.9725C417.774 47.9725 419.339 48.0682 421.222 48.4194C421.51 48.5791 421.701 48.1959 421.701 48.1959C421.893 47.8128 421.893 47.4616 421.893 47.4616C421.861 47.1424 421.637 46.9827 421.637 46.9827C420.871 46.6635 419.818 46.4719 418.413 46.4719C417.998 46.4719 417.264 46.5358 416.785 46.6954C416.785 46.6954 416.689 46.9508 416.88 47.9725Z" fill="#271000"/>
<path d="M421.096 60.4874C420.808 60.4874 420.681 60.6151 420.777 60.8067C420.777 60.8067 421.99 63.1054 424.129 63.3608C426.268 63.6162 427.992 61.7006 427.992 61.7006C428.152 61.5091 428.024 61.3175 427.673 61.2856C427.641 61.2537 423.969 60.8067 421.096 60.4874Z" fill="white"/>
<path d="M462.759 170.505C462.759 170.505 470.454 182.892 462.759 196.78C455.065 210.668 431.631 205.624 431.568 187.617C431.504 169.866 447.658 163.066 462.759 170.505Z" fill="#065099"/>
<path d="M424.799 76.8337C424.799 76.8337 414.998 77.1849 409.89 78.6535C405.452 81.91 404.941 89.6681 406.505 94.5528C408.325 100.14 409.06 107.259 410.879 115.337C413.37 126.255 410.241 134.269 412.986 145.124C415.285 154.095 463.015 145.124 463.015 145.124L469.081 103.109C469.081 103.109 471.316 91.5836 460.844 87.7206C460.844 87.7206 450.34 81.9419 442.263 79.2282C442.263 79.2282 443.508 87.7206 429.652 85.39C429.716 85.358 421.255 83.3148 424.799 76.8337Z" fill="#872952"/>
<path d="M463.046 145.124C465.058 152.339 466.686 176.667 466.686 176.667C461.195 199.43 410.687 183.052 410.4 179.796C410.049 175.901 411.581 157.288 412.38 141.165C412.348 141.133 433.61 133.535 463.046 145.124Z" fill="#872952"/>
<path d="M448.169 104.163C451.457 110.867 463.685 144.677 467.644 150.04C468.697 151.477 478.786 157.958 481.053 149.115C475.498 113.996 467.101 93.978 467.101 93.978C467.101 93.978 457.3 85.805 449.446 93.3715C449.382 93.3395 445.838 99.5013 448.169 104.163Z" fill="#F7A483"/>
<path d="M446.765 98.1603C445.679 104.609 450.021 110.675 456.439 111.761C462.888 112.846 468.954 108.504 470.039 102.087C471.125 95.6381 466.783 89.5721 460.366 88.4867C453.948 87.4012 447.85 91.7431 446.765 98.1603Z" fill="#F7A483"/>
<path d="M458.416 86.4116C458.416 86.4116 468.569 90.2108 470.963 98.4478L477.221 120.86C477.221 120.86 469.016 132.8 456.756 132.417L444.656 105.567C444.688 105.567 436.547 90.4982 458.416 86.4116Z" fill="#872952"/>
<path d="M328.446 150.551L331.575 150.455C331.575 150.455 325.86 151.924 324.04 150.072C324.04 150.072 323.561 149.785 324.295 149.114C324.295 149.114 329.34 148.955 331.543 148.316C331.543 148.316 326.562 149.529 322.987 149.178C322.987 149.178 321.582 148.252 323.082 147.422C321.965 146.975 322.923 146.241 322.923 146.241C322.923 146.241 323.944 145.666 326.307 144.932C326.307 144.932 329.946 143.751 334.097 141.899C334.097 141.899 330.808 139.76 332.054 138.004L337.13 140.686L341.727 143.623L342.334 146.72L337.545 150.04C337.545 150.04 332.884 151.892 330.266 151.988C330.298 152.02 322.763 151.764 328.446 150.551Z" fill="#E59375"/>
<path d="M445.423 269.093L458.545 350.952C458.545 350.952 462.886 355.134 473.007 350.952L474.667 310.948C474.667 310.948 477.636 284.513 467.165 265.677C467.165 265.677 446.572 249.043 445.423 269.093Z" fill="#065099"/>
<path d="M433.739 266.603C433.739 266.603 439.326 274.68 434.313 305.042L429.173 346.514C429.173 346.514 423.267 350.058 416.626 346.674L412.508 264.081C412.508 264.081 416.211 250.065 433.739 266.603Z" fill="#104473"/>
<path d="M337.895 166.674C337.895 165.684 337.352 164.79 336.299 164.056C336.139 163.928 335.947 163.832 335.756 163.737C335.692 163.705 335.628 163.673 335.564 163.641C335.436 163.577 335.277 163.513 335.149 163.449C335.117 163.449 335.085 163.417 335.053 163.417C335.021 163.417 334.99 163.385 334.958 163.385C334.734 163.29 334.479 163.226 334.255 163.13C334 163.066 333.744 163.002 333.489 162.938C333.457 162.938 333.425 162.907 333.393 162.907C333.361 162.907 333.329 162.907 333.297 162.875C332.978 162.811 332.691 162.747 332.372 162.683C332.372 162.683 332.372 162.683 332.34 162.683C332.308 162.683 332.276 162.683 332.276 162.683C331.957 162.619 331.605 162.587 331.286 162.523C331.254 162.523 331.222 162.523 331.19 162.523C330.839 162.491 330.488 162.428 330.137 162.396C330.105 162.396 330.105 162.396 330.073 162.396C329.786 162.364 329.498 162.332 329.211 162.3C328.86 162.268 328.54 162.236 328.189 162.172C328.125 162.172 328.062 162.172 327.998 162.14C327.678 162.108 327.359 162.045 327.04 162.013C326.88 161.981 326.721 161.949 326.529 161.917C326.21 161.853 325.859 161.789 325.507 161.725C325.444 161.725 325.38 161.693 325.316 161.693C325.06 161.629 324.837 161.566 324.582 161.534C324.582 161.534 324.582 161.534 324.55 161.534C324.294 161.47 324.071 161.406 323.815 161.342C323.751 161.31 323.656 161.31 323.592 161.278C323.432 161.214 323.273 161.183 323.113 161.119C323.049 161.087 322.953 161.055 322.89 161.023C322.73 160.959 322.57 160.895 322.411 160.831C322.347 160.799 322.283 160.799 322.219 160.767C322.027 160.672 321.804 160.608 321.612 160.512C321.325 160.384 319.825 159.522 318.931 158.756L319.122 181.009C319.984 181.743 321.485 182.605 321.804 182.765C321.996 182.86 322.187 182.924 322.411 183.02C322.411 183.02 322.443 183.02 322.443 183.052C322.474 183.084 322.538 183.084 322.57 183.116C322.73 183.18 322.89 183.243 323.081 183.307C323.145 183.339 323.241 183.371 323.305 183.371C323.464 183.435 323.624 183.467 323.815 183.531C323.847 183.531 323.911 183.563 323.943 183.563C323.975 183.563 324.007 183.563 324.007 183.595C324.262 183.659 324.486 183.722 324.741 183.786C324.997 183.85 325.252 183.914 325.476 183.978C325.507 183.978 325.507 183.978 325.539 183.978C325.571 183.978 325.603 183.978 325.635 184.01C325.986 184.074 326.306 184.169 326.657 184.201C326.784 184.233 326.944 184.265 327.072 184.265C327.104 184.265 327.136 184.265 327.168 184.265C327.487 184.329 327.806 184.361 328.125 184.393C328.189 184.393 328.253 184.425 328.317 184.425C328.636 184.457 328.987 184.489 329.307 184.552C329.53 184.584 329.754 184.616 329.945 184.616C330.041 184.616 330.137 184.648 330.201 184.648C330.552 184.68 330.903 184.744 331.286 184.776C331.318 184.776 331.35 184.776 331.382 184.776C331.733 184.808 332.052 184.872 332.372 184.936C332.404 184.936 332.435 184.936 332.467 184.936C332.787 184.999 333.106 185.063 333.393 185.127C333.457 185.127 333.521 185.159 333.585 185.159C333.84 185.223 334.096 185.287 334.351 185.351C334.606 185.414 334.83 185.51 335.053 185.606C335.117 185.638 335.181 185.67 335.245 185.67C335.405 185.734 335.532 185.798 335.66 185.861C335.724 185.893 335.788 185.925 335.852 185.957C336.043 186.053 336.235 186.149 336.394 186.276C337.48 187.011 337.991 187.905 337.991 188.894L337.895 166.674Z" fill="#394472"/>
<path d="M305.65 215.681C305.714 215.649 305.81 215.649 305.874 215.617C305.969 215.585 306.065 215.585 306.193 215.553C306.289 215.553 306.353 215.521 306.448 215.521C306.512 215.521 306.608 215.489 306.672 215.489L306.831 234.134L337.704 254.95L337.512 232.697L311.94 215.457C312.323 215.489 312.674 215.553 313.057 215.617C313.153 215.617 313.217 215.649 313.312 215.649C313.44 215.681 313.6 215.713 313.727 215.713C313.823 215.744 313.919 215.744 314.047 215.776C314.174 215.808 314.302 215.84 314.462 215.872C314.558 215.904 314.653 215.904 314.749 215.936C314.973 216 315.196 216.032 315.42 216.096C315.483 216.096 315.547 216.128 315.611 216.128C315.898 216.191 316.154 216.287 316.441 216.351C316.505 216.351 316.537 216.383 316.601 216.383C316.984 216.511 317.367 216.606 317.718 216.734C317.75 216.734 317.75 216.734 317.782 216.766C318.165 216.894 318.516 217.022 318.9 217.181C318.931 217.181 318.963 217.213 318.995 217.213C319.41 217.373 319.825 217.564 320.24 217.756C320.272 217.756 320.272 217.788 320.304 217.788C320.719 217.979 321.134 218.171 321.549 218.394C321.549 218.394 321.581 218.394 321.581 218.426C321.996 218.65 322.411 218.873 322.794 219.097C322.794 219.097 322.794 219.097 322.826 219.097C323.241 219.352 323.625 219.576 324.008 219.831C327.424 222.13 329.212 224.716 329.212 226.919C329.148 219.512 329.084 212.073 329.02 204.666C328.988 202.463 327.2 199.877 323.816 197.578C323.433 197.323 323.05 197.068 322.635 196.844C322.635 196.844 322.635 196.844 322.603 196.844C322.22 196.621 321.805 196.397 321.39 196.174C321.39 196.174 321.358 196.174 321.358 196.142C320.943 195.918 320.528 195.727 320.113 195.535C320.081 195.535 320.081 195.503 320.049 195.503C319.634 195.312 319.219 195.152 318.804 194.961H318.772C318.74 194.961 318.74 194.961 318.708 194.929C318.325 194.769 317.974 194.641 317.591 194.514H317.559C317.175 194.386 316.792 194.258 316.409 194.162C316.377 194.162 316.345 194.13 316.313 194.13C316.282 194.13 316.282 194.13 316.25 194.13C315.962 194.035 315.707 193.971 315.42 193.907C315.356 193.907 315.292 193.875 315.26 193.875C315.036 193.811 314.813 193.747 314.589 193.715C314.558 193.715 314.494 193.683 314.462 193.683C314.43 193.683 314.366 193.652 314.334 193.652C314.206 193.62 314.047 193.588 313.919 193.556C313.823 193.524 313.727 193.524 313.632 193.492C313.504 193.46 313.344 193.428 313.217 193.428C313.153 193.428 313.089 193.396 313.025 193.396C312.993 193.396 312.993 193.396 312.961 193.396C312.578 193.332 312.195 193.268 311.812 193.237C311.78 193.237 311.748 193.237 311.716 193.237C311.684 193.237 311.684 193.237 311.652 193.237C311.333 193.205 310.982 193.173 310.663 193.141C310.631 193.141 310.599 193.141 310.599 193.141C310.567 193.141 310.535 193.141 310.503 193.141C309.896 193.109 309.322 193.077 308.747 193.109C308.715 193.109 308.683 193.109 308.651 193.109C308.619 193.109 308.587 193.109 308.555 193.109C308.268 193.109 308.013 193.141 307.725 193.141C307.725 193.141 307.725 193.141 307.693 193.141H307.661C307.374 193.173 307.087 193.205 306.831 193.237C306.799 193.237 306.768 193.237 306.736 193.237C306.704 193.237 306.704 193.237 306.672 193.237C306.544 193.268 306.448 193.268 306.353 193.3C306.289 193.3 306.193 193.332 306.129 193.332C306.001 193.364 305.906 193.396 305.778 193.396C305.714 193.396 305.65 193.428 305.586 193.428H305.554C305.299 193.492 305.075 193.556 304.852 193.62C304.788 193.652 304.756 193.652 304.692 193.683C304.469 193.747 304.245 193.843 304.022 193.939C303.862 194.003 303.703 194.099 303.543 194.162C303.511 194.194 303.447 194.226 303.415 194.226C303.351 194.258 303.32 194.29 303.256 194.322C303.224 194.354 303.16 194.386 303.128 194.418C303.064 194.45 303.032 194.482 302.968 194.514C302.873 194.577 302.809 194.641 302.713 194.673C302.681 194.705 302.617 194.737 302.585 194.769C302.585 194.769 302.553 194.801 302.521 194.801C302.426 194.865 302.33 194.961 302.266 195.024L302.234 195.056C302.17 195.12 302.106 195.184 302.042 195.248C302.011 195.28 302.011 195.28 301.979 195.312C301.947 195.344 301.915 195.376 301.883 195.407C301.819 195.471 301.755 195.535 301.723 195.631C301.691 195.663 301.659 195.695 301.659 195.727C301.659 195.759 301.627 195.759 301.627 195.791C301.596 195.823 301.596 195.854 301.564 195.886C301.532 195.95 301.468 196.014 301.436 196.078C301.404 196.142 301.372 196.174 301.34 196.238C301.308 196.301 301.276 196.365 301.212 196.429C301.212 196.461 301.18 196.461 301.18 196.493C301.18 196.525 301.149 196.557 301.149 196.557C301.085 196.685 301.021 196.78 300.989 196.908C300.989 196.94 300.957 196.972 300.957 196.972C300.893 197.132 300.829 197.291 300.734 197.451C300.67 197.578 300.638 197.706 300.574 197.834C300.542 197.866 300.542 197.93 300.51 197.962C300.446 198.121 300.382 198.249 300.318 198.409C300.287 198.472 300.223 198.568 300.191 198.632C300.159 198.664 300.159 198.696 300.127 198.728C300.063 198.824 299.999 198.951 299.935 199.047C299.903 199.111 299.84 199.175 299.808 199.239C299.744 199.334 299.648 199.43 299.584 199.526C299.552 199.558 299.52 199.622 299.488 199.654C299.393 199.781 299.265 199.909 299.169 200.037L299.137 200.069C299.01 200.196 298.882 200.324 298.754 200.452C298.722 200.484 298.69 200.516 298.626 200.548C298.531 200.643 298.435 200.739 298.339 200.803C298.275 200.835 298.243 200.899 298.179 200.931C298.084 201.026 297.956 201.09 297.86 201.186C297.796 201.218 297.764 201.25 297.701 201.314C297.541 201.442 297.381 201.537 297.19 201.633C297.19 201.633 297.158 201.665 297.126 201.665C297.126 201.665 297.126 201.665 297.094 201.665C297.062 201.665 297.062 201.697 297.03 201.697C297.03 201.697 296.998 201.697 296.998 201.729C296.966 201.729 296.934 201.761 296.902 201.761C296.87 201.761 296.87 201.793 296.839 201.793C296.807 201.793 296.775 201.825 296.743 201.825C296.711 201.825 296.679 201.857 296.647 201.857C296.615 201.857 296.583 201.888 296.551 201.888C296.519 201.92 296.487 201.92 296.455 201.952C296.423 201.952 296.392 201.984 296.36 201.984C296.328 202.016 296.296 202.016 296.232 202.048C296.168 202.08 296.136 202.112 296.072 202.112C296.04 202.112 296.008 202.144 296.008 202.144C295.913 202.176 295.849 202.208 295.753 202.272C295.178 202.527 294.476 202.814 293.869 203.038L262.965 182.19L263.156 204.443L294.061 225.29C294.699 225.067 295.37 224.78 295.945 224.524C296.104 224.46 296.264 224.365 296.423 224.301C296.487 224.269 296.551 224.237 296.615 224.205C296.679 224.173 296.711 224.173 296.743 224.141C296.775 224.141 296.775 224.109 296.807 224.109C296.839 224.077 296.87 224.077 296.902 224.045C296.934 224.045 296.934 224.013 296.966 224.013C296.998 224.013 297.03 223.981 297.03 223.981C297.062 223.981 297.062 223.949 297.094 223.949C297.126 223.949 297.126 223.918 297.158 223.918C297.19 223.918 297.19 223.886 297.222 223.886C297.222 223.886 297.254 223.886 297.254 223.854C297.254 223.854 297.285 223.854 297.285 223.822C297.445 223.726 297.637 223.598 297.796 223.471C297.86 223.439 297.892 223.407 297.956 223.375C298.052 223.279 298.179 223.215 298.275 223.119C298.307 223.087 298.339 223.087 298.339 223.056C298.371 223.024 298.371 223.024 298.403 222.992C298.499 222.896 298.594 222.8 298.69 222.736C298.722 222.704 298.786 222.672 298.818 222.609C298.946 222.481 299.073 222.353 299.201 222.225L299.233 222.194C299.361 222.066 299.456 221.938 299.552 221.81C299.584 221.779 299.616 221.715 299.648 221.683C299.712 221.587 299.808 221.491 299.871 221.395C299.903 221.363 299.903 221.332 299.935 221.332C299.967 221.3 299.999 221.236 300.031 221.204C300.095 221.108 300.159 220.98 300.223 220.885C300.255 220.853 300.255 220.821 300.287 220.757C300.318 220.693 300.35 220.629 300.382 220.565C300.446 220.406 300.51 220.278 300.606 220.118C300.638 220.086 300.638 220.023 300.67 219.991C300.733 219.863 300.765 219.735 300.829 219.639C300.893 219.48 300.957 219.32 301.053 219.161C301.053 219.129 301.085 219.129 301.085 219.097C301.149 218.969 301.212 218.841 301.244 218.714C301.276 218.65 301.308 218.618 301.308 218.586C301.34 218.522 301.372 218.458 301.436 218.362C301.468 218.299 301.5 218.267 301.532 218.203C301.564 218.139 301.627 218.075 301.659 218.011C301.691 217.947 301.723 217.915 301.755 217.852C301.787 217.82 301.819 217.788 301.819 217.756C301.883 217.692 301.915 217.628 301.979 217.564C302.011 217.532 302.042 217.5 302.074 217.468C302.138 217.373 302.234 217.309 302.33 217.213L302.362 217.181C302.458 217.085 302.553 216.99 302.681 216.926C302.713 216.894 302.777 216.862 302.809 216.83C302.873 216.766 302.968 216.702 303.064 216.638C303.128 216.606 303.16 216.575 303.224 216.543C303.32 216.479 303.415 216.415 303.511 216.383C303.543 216.351 303.607 216.351 303.639 216.319C303.798 216.223 303.958 216.159 304.118 216.096C304.341 216 304.565 215.936 304.788 215.84C304.852 215.808 304.884 215.808 304.948 215.776C305.171 215.776 305.427 215.713 305.65 215.681Z" fill="#424888"/>
<path d="M433.164 192.438L433.356 214.691L337.705 254.95L337.514 232.697L433.164 192.438Z" fill="#5860AB"/>
<path d="M262.902 182.349L302.459 165.684C303.8 166.482 305.396 167.823 305.556 168.047C307.407 170.473 305.013 173.793 308.11 175.9C311.941 178.486 321.327 177.912 329.117 174.655C329.341 174.559 329.532 174.464 329.756 174.368C337.067 171.111 340.004 166.546 336.269 164.056C333.906 162.459 329.82 162.555 326.467 161.949C324.743 161.629 322.955 161.151 321.583 160.512C321.295 160.384 319.795 159.522 318.901 158.756L358.521 142.091L433.165 192.438L337.514 232.697L306.641 211.881C306.769 211.817 306.897 211.753 307.024 211.69C308.557 211.019 310.76 210.285 311.111 210.189C315.708 209.167 321.934 210.413 325.925 208.721C330.809 206.55 329.82 201.633 323.817 197.578C317.751 193.492 308.876 191.832 303.959 193.907C300.926 195.248 301.054 197.387 299.873 199.143C299.266 200.069 298.34 201.026 297.127 201.761C296.968 201.856 296.425 202.144 295.722 202.431C295.148 202.686 294.445 202.974 293.839 203.197L262.902 182.349Z" fill="#6174B8"/>
<path d="M128.781 287.163C128.781 287.163 132.069 285.024 128.908 281.129C120.799 280.619 111.221 276.213 111.221 276.213C99.2809 272.445 82.5197 253.96 74.8893 245.564C66.3012 236.114 53.3392 244.127 60.2991 254.918C73.325 275.095 107.582 288.377 128.589 287.61" fill="#F8A07D"/>
<path d="M39.8659 380.994C44.8464 357.688 46.3469 303.701 46.3469 303.701C46.3469 303.701 42.3561 298.401 27.9574 297.475C13.5268 296.55 14.5165 305.425 14.5804 304.276C14.5804 304.276 14.5804 342.491 21.221 380.1C21.221 380.1 31.4693 387.156 39.8659 380.994Z" fill="#053B6B"/>
<path d="M14.7396 306.894C13.3348 297.252 16.272 287.514 17.7725 277.777H61.6391C64.4486 287.131 67.3539 296.741 67.3539 296.741C67.3539 296.741 69.2375 318.866 50.4649 321.516C50.433 321.484 17.7087 327.167 14.7396 306.894Z" fill="#007EA3"/>
<path d="M108.665 474.027L106.174 473.868C105.312 473.74 105.344 475.081 105.217 475.113C102.599 476.134 100.268 476.933 99.3103 476.996C99.3103 476.996 94.681 476.39 94.2021 474.985L94.8407 466.397C99.9808 465.95 105.376 464.96 105.376 464.96L116.71 463.364C122.169 462.789 123.159 464.769 123.159 464.769C123.159 464.769 126.448 469.781 108.665 474.027Z" fill="#17181C"/>
<path d="M101.769 473.517C102.599 473.133 103.812 472.718 104.706 472.559C110.293 471.569 115.752 471.026 120.414 467.451C121.563 466.589 122.361 465.471 122.425 464.194C122.936 464.545 123.095 464.833 123.095 464.833C123.095 464.833 126.416 469.813 108.665 474.027L106.174 473.868C105.312 473.74 105.344 475.081 105.217 475.113C102.599 476.135 100.268 476.933 99.3103 476.997C99.3103 476.997 94.681 476.39 94.2021 474.985L94.3618 472.91C96.1496 473.964 99.4061 474.602 101.769 473.517Z" fill="#040308"/>
<path d="M33.0319 471.888L30.5417 471.729C29.6796 471.601 29.7116 472.942 29.5839 472.974C26.9659 473.995 24.6353 474.793 23.6775 474.857C23.6775 474.857 19.0482 474.251 18.5693 472.846L19.2079 464.258C24.348 463.811 29.7435 462.821 29.7435 462.821L41.0773 461.225C46.5367 460.65 47.5264 462.63 47.5264 462.63C47.5264 462.63 50.8148 467.674 33.0319 471.888Z" fill="#17181C"/>
<path d="M26.1358 471.377C26.9659 470.994 28.1791 470.579 29.073 470.42C34.6601 469.43 40.1195 468.887 44.7807 465.312C45.9301 464.45 46.7282 463.332 46.7921 462.055C47.3029 462.406 47.4625 462.694 47.4625 462.694C47.4625 462.694 50.8148 467.674 33.0319 471.888L30.5417 471.729C29.6796 471.601 29.7116 472.942 29.5839 472.974C26.9659 473.995 24.6353 474.794 23.6775 474.857C23.6775 474.857 19.0482 474.251 18.5693 472.846L18.729 470.771C20.5168 471.856 23.7733 472.495 26.1358 471.377Z" fill="#040308"/>
<path d="M32.0429 464.928C33.8946 462.725 39.9925 381.41 39.9925 381.41C41.0142 368.894 20.2302 374.162 20.2302 374.162C17.1972 386.613 17.7081 388.944 16.7503 404.396C16.3672 410.494 17.3569 461.001 17.1334 464.896C17.1015 464.865 26.7432 471.25 32.0429 464.928Z" fill="#053B6B"/>
<path d="M48.0065 289.079C48.0065 289.079 60.4896 310.342 52.7954 324.23C45.1012 338.118 12.76 323.016 14.7394 306.926C16.9423 289.271 32.9054 281.64 48.0065 289.079Z" fill="#30528B"/>
<path d="M56.9453 262.006C58.9886 269.221 67.3213 296.741 67.3213 296.741C44.3983 318.355 14.8347 301.211 14.5474 297.954C14.1962 294.059 18.5701 279.118 19.3363 262.995C19.3682 262.995 27.5094 250.416 56.9453 262.006Z" fill="#F7A483"/>
<path d="M84.5292 376.972C82.1028 353.25 65.2139 292.75 65.2139 292.75C65.2139 292.75 60.2653 288.217 46.2817 291.761C32.2661 295.336 30.7336 313.566 30.4463 312.449C30.4463 312.449 46.7286 350.728 68.3746 384.474C68.3746 384.474 78.8464 389.838 84.5292 376.972Z" fill="#30528B"/>
<path d="M105.633 464.034C105.218 461.161 84.1463 376.205 84.1463 376.205C79.1978 365.734 64.9268 376.748 64.9268 376.748C64.9906 384.347 65.1822 393.541 70.0988 408.195C72.0463 414.006 89.9569 466.461 91.202 470.132C91.1701 470.164 101.77 473.516 105.633 464.034Z" fill="#30528B"/>
<path d="M2.83148 206.933C2.83148 206.933 0.564726 245.085 2.0014 260.505C2.0014 260.505 2.0014 267.497 14.3249 271.009C14.3249 271.009 18.8265 228.515 22.4661 209.551C22.498 209.551 15.2188 195.472 2.83148 206.933Z" fill="#E59375"/>
<path d="M16.6243 216.798C11.5799 218.937 5.70551 216.607 3.56646 211.594C1.39548 206.582 3.75802 200.771 8.83428 198.632C13.8786 196.493 19.753 198.824 21.8921 203.836C24.0311 208.849 21.6686 214.659 16.6243 216.798Z" fill="#E59375"/>
<path d="M11.4507 196.11C11.4507 196.11 2.4475 198.185 1.96861 208.657L0.5 246.266C0.5 246.266 9.50319 252.236 21.1562 251.214C21.1562 251.246 34.6291 200.995 11.4507 196.11Z" fill="#FFD47C"/>
<path d="M45.4835 172.229C45.4835 172.229 45.5474 185.67 46.7286 199.047L29.0096 196.11C29.0096 196.11 31.5956 190.012 27.9561 184.521L45.4835 172.229Z" fill="#F7A483"/>
<path d="M11.4511 196.11C7.01336 199.366 6.50255 207.156 8.06694 212.009C9.88673 217.596 10.621 224.716 12.4408 232.793C14.9311 243.712 16.5912 252.14 19.3688 262.995C21.6675 271.966 57.7441 264.751 57.7441 264.751L70.6742 220.565C70.6742 220.565 72.909 209.04 62.4372 205.177C62.4372 205.177 51.4227 199.239 43.3773 196.493C36.2577 194.067 33.6717 193.843 26.3606 194.322C26.3606 194.29 16.5593 194.673 11.4511 196.11Z" fill="#F7A483"/>
<path d="M64.32 287.994C64.32 287.994 72.0142 300.381 64.32 314.269C56.6258 328.157 33.192 323.112 33.1281 305.106C33.0643 287.323 49.2189 280.523 64.32 287.994Z" fill="#30528B"/>
<path d="M26.3607 194.29C26.3607 194.29 16.5594 194.641 11.4512 196.11C6.82187 199.494 6.91765 206.135 7.81159 211.179C9.50367 220.789 11.2596 230.526 12.1535 240.232C12.5367 244.542 13.6222 253.322 13.9414 257.632C14.2607 261.814 15.5697 264.113 19.8797 266.348C23.1362 268.04 25.5625 266.699 29.1063 266.795C38.1415 267.05 47.0489 266.06 55.9882 264.943C56.3713 264.911 70.323 274.297 65.7257 267.401L70.7062 220.565C70.7062 220.565 72.941 209.04 62.4692 205.177C62.4692 205.177 55.1262 200.58 47.0489 197.834C47.0169 197.834 33.0013 198.185 26.3607 194.29Z" fill="#FFD47C"/>
<path d="M51.4225 187.745L52.1887 184.84L53.9766 174.081C54.2 172.74 54.0404 170.984 53.6254 169.643C53.2103 168.207 52.8591 166.706 53.0826 165.11C54.1043 157.416 49.7942 153.584 49.7942 153.584C44.7818 146.976 34.31 147.902 34.31 147.902C28.8826 148.732 24.1575 150.966 21.4757 155.915C19.0174 160.385 17.7084 165.876 19.1451 170.856C20.7414 176.348 23.8063 180.626 27.8609 184.521C30.4789 187.011 33.1288 187.33 36.5449 188.575C38.9074 189.437 43.4728 189.948 45.9631 189.98C47.3359 189.948 51.0074 189.437 51.4225 187.745Z" fill="#F8A07D"/>
<path d="M49.3792 158.054L47.7191 164.727C45.8035 165.557 45.0692 166.291 45.3246 168.781L45.9312 174.304L44.4307 174.879C44.5584 172.676 41.4935 172.644 41.4935 172.644C39.2586 172.517 38.8755 174.432 39.0032 176.252C39.3225 181.041 37.5985 188.607 33.6077 189.948C32.0114 190.491 29.0422 191.034 28.5634 188.895C27.9568 186.277 23.0082 181.073 23.0082 181.073C17.038 175.294 15.5694 165.461 18.3789 157.926C19.2409 155.66 20.9011 153.265 22.657 151.605C26.3604 148.061 31.0536 146.305 35.9702 145.667C35.9702 145.667 42.7705 144.837 46.5697 147.518C48.9322 149.179 50.4966 150.711 51.4863 152.02C51.4225 152.052 52.8911 155.117 49.3792 158.054Z" fill="#3F1901"/>
<path d="M43.8872 179.572C43.4402 179.955 42.8655 180.178 42.1312 180.242C40.1518 180.338 38.3959 178.582 38.2043 176.347C38.0127 174.08 39.4813 172.197 41.4608 172.101C42.3866 172.069 43.2806 172.42 43.9829 173.059C45.0046 173.985 45.1323 175.836 45.0046 177.113C44.9088 178.103 44.5576 178.997 43.8872 179.572Z" fill="#F8A07D"/>
<path d="M42.3853 174.113C42.1938 172.932 39.8632 174.209 40.2782 174.879C40.5017 175.262 40.9487 175.518 41.2998 175.741C41.7787 176.092 42.0022 176.412 42.1299 176.986C42.1299 177.05 42.1618 177.274 42.098 177.305C41.8107 177.529 40.7252 176.443 40.4698 176.22C39.9909 175.773 39.8951 174.943 40.0547 174.336C40.2463 173.698 40.6294 173.379 41.2998 173.379C41.8426 173.379 42.3853 173.379 42.3853 174.049C42.4173 174.049 42.4173 174.177 42.3853 174.113Z" fill="#E98B6F"/>
<path d="M41.7158 175.39C41.9393 175.134 42.1947 175.326 42.4821 175.486C42.7375 175.645 42.8652 175.869 42.9609 176.156C43.1525 176.763 43.1206 177.593 42.8013 178.135C42.5459 178.582 42.067 178.87 41.5562 178.902C40.8219 178.934 40.5665 178.295 40.5026 177.689C40.4707 177.529 40.4388 177.146 40.5984 177.018C40.758 176.89 40.9177 177.146 41.0134 177.273C41.1731 177.401 41.4285 177.465 41.652 177.465C42.067 177.465 42.4501 177.242 42.7055 176.922C42.7375 176.858 42.7694 176.795 42.8013 176.731C42.8332 177.114 42.8013 177.21 42.7694 177.018C42.7375 176.922 42.6736 176.827 42.6098 176.731C42.4182 176.475 42.1309 176.284 41.9393 176.028C41.7797 175.933 41.5881 175.518 41.7158 175.39Z" fill="#E98B6F"/>
<path d="M141.296 283.109C140.37 281.736 141.168 281.034 139.316 280.97C137.209 280.906 135.294 279.852 133.857 279.884C131.367 279.948 121.885 282.151 128.238 287.579C129.707 288.856 133.953 294.507 136.858 292.814C141.168 290.324 139.699 291.25 141.902 285.886L141.296 283.109Z" fill="#F7A483"/>
<path d="M53.1148 213.669C49.7945 218.841 51.295 225.706 56.4671 228.994C61.6391 232.314 68.5033 230.814 71.7916 225.642C75.112 220.47 73.6114 213.606 68.4394 210.317C63.2674 207.029 56.4032 208.529 53.1148 213.669Z" fill="#F7A483"/>
<path d="M67.0028 254.79C68.4395 269.923 69.3654 306.99 69.3654 306.99C64.0018 321.325 12.7603 309.225 12.4729 305.968C12.1217 302.073 13.1753 274.521 13.9415 258.43C13.9734 258.398 37.5669 243.233 67.0028 254.79Z" fill="#FFD47C"/>
<path d="M60.0418 203.9C73.5466 207.699 75.2067 224.013 75.2067 224.013L81.3046 250.831C81.3046 250.831 65.9801 262.995 56.6257 259.579C56.6257 259.579 49.0273 239.338 46.6328 219.161C46.6328 219.161 46.7286 204.347 60.0418 203.9Z" fill="#FFD47C"/>
<path d="M52.2518 157.894C50.7194 159.107 48.7719 158.309 47.0479 157.926C44.6853 160.704 47.5268 163.513 43.9191 164.854C42.0035 165.557 39.194 165.78 37.0869 166.099C35.3948 166.387 33.7027 165.972 32.4895 167.249C31.1806 168.621 32.4257 172.868 30.8932 173.666C28.2114 175.102 26.0724 167.696 22.6563 168.302C19.7191 168.813 19.2083 173.442 20.2299 175.741C19.8787 175.454 19.6552 175.326 19.4637 175.23C18.0589 171.591 16.271 171.527 14.7386 168.941C12.3441 164.918 12.7592 165.876 12.2803 162.013C12.2803 161.981 12.7592 160.321 12.7592 160.289C13.8766 156.17 15.7922 155.5 16.718 153.744C17.6758 151.892 19.1763 150.615 20.4534 148.987C21.6027 147.486 22.1774 145.475 23.4864 144.134C25.4977 142.123 28.7861 141.101 31.5318 140.718C34.5009 140.335 37.3104 142.155 40.2795 141.644C41.4927 141.42 42.6101 140.335 43.8233 140.399C45.2919 140.494 46.3136 141.931 47.5906 142.506C49.9532 143.559 53.6885 143.144 55.7318 144.805C57.9666 146.656 57.4877 149.306 56.1149 151.573C55.3487 152.85 53.7843 153.584 53.0819 154.893C52.8265 155.308 52.2838 157.862 52.2518 157.894Z" fill="#3F1901"/>
<path d="M469.081 147.103C469.081 147.103 456.79 168.621 447.084 192.853C447.084 192.853 447.276 197.451 450.66 196.046C454.044 194.609 481.468 155.787 481.5 152.243C481.532 143.176 469.081 147.103 469.081 147.103Z" fill="#F7A483"/>
<path d="M440.507 202.112L443.476 201.09C443.476 201.09 438.464 204.187 436.165 202.942C436.165 202.942 435.622 202.814 436.133 201.952C436.133 201.952 440.89 200.292 442.838 199.015C442.838 199.015 438.432 201.633 434.92 202.367C434.92 202.367 433.324 201.921 434.505 200.675C433.292 200.58 433.994 199.59 433.994 199.59C433.994 199.59 434.792 198.76 436.868 197.323C436.868 197.323 440.028 195.12 443.412 192.119C443.412 192.119 439.645 191.034 440.284 189.022L445.935 190.076L451.202 191.545L452.703 194.322L449.127 198.919C449.127 198.919 445.232 202.08 442.742 202.942C442.71 202.942 435.431 204.922 440.507 202.112Z" fill="#F7A483"/>
<path d="M316.567 276.277C316.567 275.287 317.078 274.393 318.164 273.691C318.323 273.563 318.515 273.467 318.706 273.371C318.77 273.339 318.834 273.307 318.898 273.276C319.026 273.212 319.153 273.148 319.313 273.084C319.345 273.084 319.377 273.052 319.409 273.052C319.441 273.052 319.472 273.02 319.504 273.02C319.728 272.924 319.951 272.86 320.207 272.797C320.462 272.733 320.686 272.669 320.941 272.605C320.973 272.605 321.005 272.573 321.037 272.573C321.069 272.573 321.101 272.573 321.165 272.541C321.452 272.477 321.771 272.414 322.059 272.382H322.09C322.122 272.382 322.154 272.382 322.186 272.382C322.505 272.318 322.793 272.286 323.112 272.254C323.144 272.254 323.208 272.254 323.24 272.254C323.591 272.222 323.91 272.158 324.261 272.126C324.293 272.126 324.293 272.126 324.325 272.126C324.389 272.126 324.485 272.094 324.549 272.094C324.772 272.062 324.996 272.03 325.251 272.03C325.57 271.999 325.89 271.967 326.209 271.903C326.273 271.903 326.337 271.903 326.4 271.871C326.72 271.839 327.039 271.775 327.326 271.743C327.486 271.711 327.646 271.679 327.805 271.647C328.124 271.583 328.476 271.52 328.795 271.456C328.859 271.456 328.923 271.424 328.987 271.424C329.21 271.36 329.465 271.328 329.689 271.264C329.689 271.264 329.689 271.264 329.721 271.264C329.944 271.2 330.2 271.137 330.423 271.073C330.487 271.041 330.583 271.041 330.647 271.009C330.806 270.945 330.966 270.913 331.126 270.849C331.189 270.817 331.285 270.785 331.349 270.785C331.509 270.721 331.668 270.658 331.828 270.626C331.892 270.594 331.956 270.594 332.019 270.562C332.211 270.466 332.435 270.402 332.626 270.306C332.913 270.179 334.382 269.317 335.244 268.582L335.052 290.484C334.19 291.218 332.722 292.048 332.435 292.208C332.243 292.304 332.051 292.367 331.828 292.463C331.828 292.463 331.796 292.463 331.796 292.495C331.764 292.495 331.7 292.527 331.668 292.559C331.509 292.623 331.349 292.687 331.189 292.719C331.126 292.751 331.03 292.782 330.966 292.782C330.806 292.846 330.647 292.878 330.487 292.942C330.423 292.942 330.391 292.974 330.327 292.974C330.295 292.974 330.264 292.974 330.264 293.006C330.04 293.07 329.785 293.134 329.561 293.197H329.529C329.306 293.261 329.05 293.325 328.827 293.357C328.795 293.357 328.763 293.357 328.763 293.389C328.731 293.389 328.699 293.389 328.635 293.421C328.316 293.485 327.965 293.549 327.646 293.613C327.518 293.644 327.39 293.676 327.231 293.676C327.199 293.676 327.167 293.676 327.135 293.676C326.816 293.74 326.528 293.772 326.209 293.804C326.145 293.804 326.081 293.836 325.985 293.836C325.666 293.868 325.379 293.9 325.06 293.964H325.028C324.804 293.996 324.581 294.028 324.357 294.028C324.261 294.028 324.134 294.059 324.038 294.059C323.687 294.091 323.367 294.123 323.016 294.187C322.984 294.187 322.921 294.187 322.889 294.187C322.569 294.219 322.25 294.283 321.963 294.315C321.931 294.315 321.867 294.315 321.835 294.347C321.516 294.411 321.228 294.443 320.909 294.506C320.845 294.506 320.781 294.538 320.718 294.538C320.462 294.602 320.207 294.666 319.983 294.73C319.728 294.794 319.504 294.89 319.281 294.985C319.217 295.017 319.153 295.049 319.089 295.049C318.962 295.113 318.802 295.177 318.674 295.241C318.61 295.273 318.547 295.305 318.483 295.337C318.291 295.432 318.132 295.528 317.94 295.656C316.886 296.39 316.376 297.252 316.344 298.242L316.567 276.277Z" fill="#004E89"/>
<path d="M231.068 296.901C231.068 296.869 231.036 296.805 231.036 296.773C231.036 296.741 231.005 296.709 231.005 296.645V296.614C231.005 296.55 231.005 296.486 230.973 296.454C230.973 296.422 230.973 296.358 230.973 296.326C230.973 296.262 230.973 296.199 230.973 296.135C230.973 296.103 230.973 296.071 230.973 296.039V296.007L231.164 274.106C231.164 274.169 231.164 274.201 231.164 274.265C231.164 274.329 231.164 274.393 231.164 274.457C231.164 274.489 231.164 274.553 231.164 274.584C231.164 274.648 231.164 274.712 231.196 274.744C231.196 274.808 231.228 274.84 231.228 274.904C231.228 274.936 231.26 274.999 231.26 275.031C231.26 275.095 231.292 275.127 231.292 275.191C231.292 275.223 231.324 275.255 231.324 275.319C231.324 275.351 231.324 275.351 231.356 275.383C231.42 275.542 231.483 275.67 231.547 275.83C231.611 275.957 231.707 276.085 231.803 276.245C231.803 276.277 231.835 276.277 231.835 276.308C231.93 276.436 232.026 276.564 232.122 276.692C232.154 276.724 232.186 276.755 232.218 276.787C232.25 276.819 232.282 276.851 232.314 276.883C232.345 276.915 232.409 276.947 232.441 277.011C232.473 277.043 232.505 277.075 232.569 277.107C232.601 277.139 232.633 277.17 232.697 277.202C232.761 277.266 232.824 277.298 232.92 277.362C232.952 277.394 232.984 277.426 233.048 277.426C233.144 277.49 233.207 277.522 233.303 277.586C233.335 277.617 233.367 277.617 233.399 277.649C233.463 277.681 233.559 277.745 233.654 277.777C233.686 277.809 233.718 277.809 233.75 277.841C233.878 277.905 234.006 277.969 234.133 278.032C234.389 278.128 234.644 278.224 234.9 278.32C234.995 278.352 235.091 278.384 235.155 278.384C235.347 278.448 235.506 278.479 235.698 278.543C235.762 278.543 235.793 278.575 235.857 278.575C236.081 278.639 236.272 278.671 236.496 278.703C236.592 278.703 236.656 278.735 236.751 278.735C236.943 278.767 237.166 278.799 237.358 278.831C237.422 278.831 237.486 278.863 237.549 278.863C237.805 278.894 238.092 278.926 238.348 278.926C238.507 278.926 238.699 278.958 238.858 278.958C239.018 278.958 239.146 278.99 239.305 278.99C239.497 278.99 239.657 278.99 239.848 279.022C239.976 279.022 240.135 279.022 240.263 279.022C240.614 279.022 240.934 279.022 241.285 279.054H241.317C241.732 279.054 242.115 279.054 242.53 279.054C242.785 279.054 243.041 279.054 243.296 279.054C243.424 279.054 243.552 279.054 243.679 279.054C243.903 279.054 244.126 279.054 244.35 279.054C244.414 279.054 244.477 279.054 244.509 279.054C244.605 279.054 244.701 279.054 244.797 279.054C244.956 279.054 245.116 279.054 245.308 279.086C245.467 279.086 245.627 279.118 245.786 279.118C245.946 279.118 246.106 279.15 246.265 279.15C246.329 279.15 246.361 279.15 246.425 279.15C246.616 279.15 246.776 279.182 246.968 279.214C247 279.214 247.032 279.214 247.063 279.214C247.287 279.246 247.51 279.278 247.734 279.31C247.766 279.31 247.798 279.31 247.798 279.31C248.117 279.373 248.468 279.405 248.787 279.501H248.819H248.851H248.883C248.915 279.501 248.915 279.501 248.947 279.533C248.979 279.533 248.979 279.533 249.011 279.565C249.043 279.565 249.075 279.597 249.107 279.597C249.139 279.597 249.139 279.597 249.171 279.629C249.202 279.629 249.234 279.661 249.298 279.661C249.33 279.661 249.33 279.661 249.362 279.693C249.394 279.693 249.458 279.725 249.49 279.725C249.522 279.725 249.554 279.757 249.586 279.757C249.649 279.757 249.681 279.788 249.745 279.82C249.777 279.82 249.809 279.852 249.841 279.852C249.905 279.884 249.937 279.884 250.001 279.916C250.033 279.916 250.065 279.948 250.096 279.948C250.16 279.98 250.224 279.98 250.256 280.012C250.288 280.012 250.32 280.044 250.352 280.044C250.416 280.076 250.448 280.076 250.511 280.108C250.543 280.108 250.607 280.14 250.639 280.172C250.703 280.203 250.735 280.203 250.799 280.235C250.831 280.267 250.895 280.267 250.927 280.299C250.99 280.331 251.022 280.331 251.086 280.363C251.118 280.395 251.182 280.395 251.246 280.427C251.31 280.459 251.342 280.459 251.405 280.491C251.469 280.523 251.501 280.523 251.565 280.555C251.629 280.587 251.661 280.587 251.725 280.619C251.789 280.65 251.82 280.65 251.884 280.682C251.948 280.714 251.98 280.714 252.044 280.746C252.076 280.778 252.14 280.778 252.172 280.81C252.235 280.842 252.299 280.874 252.331 280.874C252.363 280.906 252.427 280.906 252.459 280.938C252.555 280.97 252.651 281.034 252.746 281.065C252.874 281.129 253.002 281.193 253.129 281.257L252.938 303.126C252.81 303.063 252.682 302.999 252.555 302.935C252.459 302.903 252.363 302.839 252.267 302.807C252.235 302.807 252.204 302.775 252.172 302.775C252.108 302.743 252.044 302.711 251.98 302.68C251.948 302.68 251.916 302.648 251.852 302.648C251.789 302.616 251.725 302.584 251.661 302.584C251.629 302.552 251.565 302.552 251.533 302.52C251.469 302.488 251.405 302.488 251.342 302.456C251.31 302.424 251.246 302.424 251.214 302.392C251.15 302.36 251.086 302.36 251.054 302.328C250.99 302.296 250.958 302.296 250.927 302.264C250.863 302.233 250.831 302.233 250.767 302.201C250.735 302.169 250.671 302.169 250.639 302.137C250.575 302.105 250.543 302.105 250.48 302.073C250.448 302.073 250.384 302.041 250.352 302.041C250.288 302.009 250.256 302.009 250.192 301.977C250.128 301.945 250.096 301.945 250.064 301.913C250.033 301.913 249.969 301.881 249.937 301.881C249.905 301.849 249.841 301.849 249.809 301.817C249.777 301.817 249.713 301.786 249.681 301.786C249.649 301.786 249.586 301.754 249.554 301.754C249.522 301.754 249.458 301.722 249.426 301.722C249.394 301.722 249.362 301.69 249.33 301.69C249.298 301.69 249.266 301.658 249.234 301.658C249.202 301.658 249.171 301.626 249.139 301.626C249.107 301.626 249.075 301.594 249.043 301.594C249.011 301.594 248.979 301.562 248.947 301.562C248.915 301.562 248.883 301.53 248.883 301.53C248.851 301.53 248.851 301.53 248.819 301.498C248.787 301.498 248.787 301.498 248.756 301.466C248.724 301.466 248.724 301.466 248.724 301.466C248.692 301.466 248.692 301.466 248.66 301.466C248.34 301.402 248.021 301.339 247.67 301.275C247.415 301.243 247.159 301.211 246.904 301.179C246.872 301.179 246.808 301.179 246.776 301.179C246.553 301.147 246.329 301.147 246.106 301.115C245.946 301.115 245.786 301.083 245.627 301.083C245.467 301.083 245.308 301.051 245.148 301.051C244.988 301.051 244.829 301.051 244.669 301.019C244.509 301.019 244.35 301.019 244.19 301.019C243.967 301.019 243.775 301.019 243.552 301.019C243.424 301.019 243.296 301.019 243.137 301.019C242.881 301.019 242.626 301.019 242.37 301.019C242.051 301.019 241.7 301.019 241.381 301.019C241.285 301.019 241.221 301.019 241.125 301.019C240.774 301.019 240.455 301.019 240.104 300.987C240.072 300.987 240.072 300.987 240.04 300.987C239.912 300.987 239.752 300.987 239.625 300.987C239.465 300.987 239.273 300.987 239.114 300.955C238.954 300.955 238.826 300.924 238.667 300.924C238.507 300.924 238.348 300.892 238.156 300.892C238.124 300.892 238.124 300.892 238.092 300.892C237.837 300.86 237.581 300.86 237.326 300.828C237.262 300.828 237.198 300.828 237.134 300.796C237.007 300.764 236.879 300.764 236.751 300.732C236.656 300.732 236.592 300.7 236.496 300.7C236.4 300.7 236.336 300.668 236.24 300.668C236.017 300.636 235.825 300.572 235.602 300.54C235.538 300.54 235.506 300.509 235.442 300.509H235.41C235.251 300.477 235.059 300.413 234.9 300.381C234.804 300.349 234.708 300.349 234.644 300.317C234.389 300.221 234.133 300.125 233.878 300.03C233.75 299.966 233.623 299.902 233.495 299.838C233.463 299.806 233.399 299.806 233.367 299.774C233.303 299.742 233.207 299.678 233.144 299.647H233.112C233.08 299.615 233.048 299.615 233.048 299.583C232.952 299.519 232.888 299.487 232.792 299.423C232.761 299.391 232.729 299.359 232.665 299.327C232.601 299.263 232.537 299.231 232.473 299.168C232.441 299.136 232.441 299.136 232.409 299.104C232.377 299.104 232.377 299.072 232.345 299.072C232.314 299.04 232.282 299.008 232.25 298.976C232.218 298.944 232.154 298.912 232.122 298.848C232.09 298.816 232.058 298.785 232.026 298.753C231.994 298.721 231.994 298.721 231.962 298.689L231.93 298.657C231.835 298.529 231.707 298.401 231.643 298.274C231.643 298.274 231.643 298.274 231.611 298.242C231.611 298.242 231.611 298.21 231.579 298.21C231.483 298.082 231.42 297.954 231.324 297.795C231.26 297.667 231.196 297.507 231.132 297.348V297.316V297.284C231.132 297.252 231.1 297.22 231.1 297.156C231.1 296.997 231.1 296.965 231.068 296.901Z" fill="#004E89"/>
<path d="M222.832 301.626L222.641 323.527L316.759 363.116L316.951 341.214L222.832 301.626Z" fill="#0061A2"/>
<path d="M316.951 341.215L316.76 363.116L390.158 313.566L390.35 291.697L316.951 341.215Z" fill="#004E89"/>
<path d="M390.348 291.697L351.43 275.319C350.121 276.085 348.557 277.426 348.397 277.618C346.577 280.012 348.94 283.268 345.875 285.344C342.108 287.866 332.881 287.323 325.219 284.099C324.995 284.003 324.804 283.907 324.58 283.811C317.397 280.619 314.523 276.117 318.163 273.659C320.494 272.094 324.516 272.19 327.805 271.584C329.497 271.264 331.253 270.817 332.625 270.179C332.913 270.051 334.381 269.189 335.243 268.455L296.262 252.045L265.868 272.573C265.229 272.35 264.559 272.094 263.984 271.839C263.282 271.52 262.771 271.264 262.611 271.168C261.43 270.434 260.536 269.508 259.93 268.582C258.78 266.858 258.876 264.751 256.035 263.506C251.086 261.431 242.338 263.027 236.368 267.05C230.462 271.041 229.504 275.862 234.133 277.937C238.22 279.661 244.318 278.448 248.851 279.437C249.202 279.501 251.341 280.235 252.842 280.906C252.97 280.97 253.097 281.034 253.225 281.097L222.863 301.594L316.982 341.183L390.348 291.697Z" fill="#196EAB"/>
<path d="M363.724 519.267C363.724 519.267 358.009 518.213 359.638 522.874C359.638 522.874 372.951 528.589 382.241 527.312C382.241 527.312 388.786 527.088 387.765 520.001L387.86 514.254L379.081 515.914L379.591 521.374L363.724 519.267Z" fill="#E59375"/>
<path d="M387.731 520.001C387.731 520.927 387.444 521.789 386.869 522.459C384.571 525.109 380.069 525.173 376.877 524.981C371.864 524.662 366.628 523.896 361.68 522.842C360.594 522.619 360.307 522.268 360.275 521.948C360.85 520.671 361.871 519.586 363.691 519.267L358.838 518.66C354.369 518.5 352.325 519.522 351.272 520.192C350.027 523.736 356.061 526.099 356.061 526.099C356.061 526.099 362.478 528.525 370.204 530.058C370.204 530.058 387.253 534.08 389.296 528.844L387.731 520.001Z" fill="#4F1531"/>
<path d="M397.566 511.349C397.566 511.349 391.851 510.295 393.479 514.956C393.479 514.956 406.793 520.671 416.083 519.394C416.083 519.394 422.628 519.171 421.606 512.083L421.702 506.336L412.922 507.997L413.433 513.488L397.566 511.349Z" fill="#E59375"/>
<path d="M421.574 512.083C421.574 513.009 421.287 513.871 420.712 514.541C418.414 517.191 413.912 517.255 410.719 517.064C405.707 516.744 400.471 515.978 395.523 514.925C394.437 514.701 394.15 514.35 394.118 514.031C394.692 512.754 395.714 511.668 397.534 511.349L392.681 510.742C388.211 510.583 386.168 511.604 385.115 512.275C383.869 515.819 389.903 518.181 389.903 518.181C389.903 518.181 396.321 520.607 404.047 522.14C404.047 522.14 421.095 526.163 423.139 520.927L421.574 512.083Z" fill="#4F1531"/>
<path d="M396.001 357.497C396.001 366.468 403.28 373.779 412.283 373.779C421.255 373.779 428.566 366.5 428.566 357.497C428.566 348.525 421.287 341.214 412.283 341.214C403.28 341.214 396.001 348.525 396.001 357.497Z" fill="#00468B"/>
<path d="M422.5 435.812C422.5 435.812 422.277 439.898 414.933 439.994C414.933 439.994 407.974 442.357 404.973 433.321C393.128 397.66 396.257 360.434 396.257 360.434C396.257 360.434 412.954 351.143 428.534 357.497C428.534 357.497 426.012 404.301 422.5 435.812Z" fill="#00468B"/>
<path d="M404.972 433.321C404.972 433.321 410.718 510.423 411.229 513.169C416.816 516.712 421.765 513.073 421.765 513.073C421.733 509.305 425.851 477.762 426.298 471.856C427.033 461.672 428.246 448.837 421.829 434.215L404.972 433.321Z" fill="#00468B"/>
<path d="M375.345 438.174C375.345 438.174 373.781 441.941 366.821 439.611C366.821 439.611 359.478 439.547 359.637 430.001C360.276 392.424 376.75 353.474 376.75 353.474C376.75 353.474 395.299 351.718 407.878 362.86C407.846 362.892 389.105 409.6 375.345 438.174Z" fill="#0058A9"/>
<path d="M377.164 352.101C374.195 360.593 378.632 369.852 387.125 372.853C395.617 375.822 404.876 371.385 407.877 362.892C410.846 354.4 406.376 345.141 397.916 342.14C389.424 339.171 380.133 343.641 377.164 352.101Z" fill="#0058A9"/>
<path d="M428.533 355.134C426.553 337.032 417.486 328.635 417.486 328.635L386.039 324.676C386.039 324.676 377.355 339.777 376.461 355.134C380.228 365.382 393.605 368.383 393.605 368.383L403.79 371.416C403.79 371.384 426.84 367.873 428.533 355.134Z" fill="#0058A9"/>
<path d="M361.073 437.503C361.073 437.503 376.685 518.468 377.611 521.118C377.196 520.927 384.986 524.694 388.434 519.809C387.859 516.074 387.508 474.953 387.061 469.015C386.295 458.83 386.391 449.348 377.866 435.843C377.866 435.875 356.572 420.614 361.073 437.503Z" fill="#0058A9"/>
<path d="M430.864 295.688C430.864 295.688 425.15 302.424 413.752 318.738L415.731 322.09C415.731 322.09 435.238 312.257 441.464 301.211L430.864 295.688Z" fill="#E59375"/>
<path d="M414.709 271.551C414.709 271.551 429.395 303.605 438.239 302.392C438.239 302.392 441.272 302.583 441.879 300.285C441.879 300.285 448.104 294.762 422.212 254.886C422.212 254.886 419.69 251.502 414.486 252.364C414.486 252.396 406.632 257.6 414.709 271.551Z" fill="#E59375"/>
<path d="M406.825 246.457H390.958V263.346H406.825V246.457Z" fill="#F4B78E"/>
<path d="M381.156 246.841L380.549 244.127L379.368 234.23C379.208 232.985 379.496 231.388 379.942 230.207C380.453 228.93 380.868 227.557 380.741 226.089C380.134 219.033 384.699 215.744 384.699 215.744C390.127 209.998 400.567 211.371 400.567 211.371C405.962 212.392 410.592 214.691 413.018 219.32C415.221 223.534 416.243 228.579 414.519 233.048C412.603 237.965 409.283 241.7 404.973 245.053C402.227 247.192 399.513 247.319 396.033 248.277C393.607 248.948 389.01 249.171 386.487 249.043C385.146 249.075 381.475 248.405 381.156 246.841Z" fill="#F7A483"/>
<path d="M388.372 237.709C389.17 236.592 392.011 235.922 392.011 235.922C395.459 235.922 395.012 240.519 395.332 242.53C395.427 243.169 395.555 243.839 395.715 244.51C397.343 250.352 402.26 250.32 406.474 251.023C406.633 250.927 406.793 250.831 406.953 250.735C407.719 248.149 410.145 245.436 410.145 245.436C416.467 239.976 418.51 230.175 416.116 222.449C415.381 220.118 413.849 217.628 412.189 215.872C408.645 212.105 404.047 210.061 399.131 209.135C394.246 208.21 376.751 210.572 381.54 221.204C381.54 221.204 388.723 229.504 388.372 237.709Z" fill="#340E08"/>
<path d="M388.372 237.709C388.979 236.145 390.543 234.932 392.267 235.443C393.544 235.826 394.278 236.943 394.183 238.252C394.151 238.539 394.087 238.827 394.055 239.114C393.544 242.147 390.351 243.297 390.351 243.297" fill="#F8B78F"/>
<path d="M391.947 236.847C391.787 236.72 391.404 236.656 391.181 236.624C390.031 236.56 389.105 238.348 390.255 238.667C390.702 239.082 390.255 239.593 390.255 239.593C389.872 240.04 389.329 240.647 389.457 241.253C389.52 241.604 389.935 241.796 390.287 241.892C390.574 241.956 390.638 241.732 390.414 241.636C390.223 241.541 390.095 241.413 389.967 241.285C389.967 241.253 389.935 241.253 389.935 241.221L389.903 241.189C389.872 241.094 389.872 241.03 389.903 240.934C390.159 241.126 390.606 241.158 390.797 240.934C391.021 240.679 390.861 240.264 390.925 239.944C390.989 239.721 391.085 239.529 391.181 239.338C391.723 238.444 390.765 238.316 390.765 238.316C390.606 238.316 390.51 238.316 390.414 238.348C389.935 238.093 390.478 237.358 390.765 237.263C391.117 237.135 391.532 237.167 391.787 237.454C392.043 237.709 392.138 238.124 392.106 238.476C392.074 238.891 391.979 239.306 391.787 239.689C391.691 239.912 391.564 240.168 391.436 240.391C391.308 240.647 391.596 240.742 391.723 240.487C391.979 239.976 392.458 239.21 392.553 238.476C392.585 237.837 392.489 237.231 391.947 236.847Z" fill="#DD9D7E"/>
<path d="M388.372 237.709C388.372 237.709 388.5 237.518 388.723 237.167C388.819 236.975 389.011 236.816 389.202 236.624C389.362 236.432 389.681 236.209 389.936 236.049C390.224 235.89 390.575 235.73 390.926 235.698C391.277 235.666 391.692 235.666 392.044 235.762C392.171 235.794 392.459 235.922 392.618 236.017C392.778 236.113 392.937 236.209 393.065 236.369C393.353 236.656 393.576 237.007 393.672 237.39C393.768 237.805 393.768 238.188 393.704 238.667L393.672 239.018V239.05C393.672 239.018 393.672 239.114 393.672 239.018V239.05L393.64 239.146L393.608 239.306C393.576 239.561 393.512 239.721 393.448 239.912C393.321 240.295 393.129 240.679 392.906 240.998C392.682 241.317 392.459 241.604 392.203 241.86C391.724 242.371 391.245 242.722 390.894 242.945C390.543 243.169 390.32 243.297 390.32 243.297C390.32 243.297 390.543 243.233 390.958 243.073C391.341 242.913 391.916 242.658 392.491 242.179C392.778 241.956 393.097 241.668 393.353 241.317C393.64 240.998 393.895 240.583 394.055 240.136C394.151 239.912 394.246 239.657 394.278 239.433L394.31 239.274L394.342 239.178V239.146V239.082V239.05L394.406 238.699C394.502 238.252 394.534 237.678 394.406 237.135C394.278 236.592 393.959 236.113 393.544 235.762C393.448 235.666 393.353 235.57 393.225 235.507L392.874 235.315C392.618 235.187 392.491 235.155 392.171 235.06C391.692 234.932 391.182 234.964 390.735 235.091C390.288 235.187 389.936 235.443 389.617 235.666C389.298 235.922 389.106 236.145 388.915 236.432C388.755 236.688 388.596 236.911 388.532 237.103C388.436 237.486 388.372 237.709 388.372 237.709Z" fill="#DD9D7E"/>
<path d="M390.35 242.53C390.35 243.073 389.935 243.488 389.392 243.488C388.85 243.488 388.435 243.041 388.435 242.53C388.435 241.988 388.882 241.573 389.392 241.573C389.935 241.573 390.35 241.988 390.35 242.53Z" fill="white"/>
<path d="M389.616 243.041C389.201 243.041 388.85 242.69 388.85 242.275C388.85 241.924 389.073 241.668 389.392 241.573C388.85 241.573 388.435 242.02 388.435 242.53C388.435 243.073 388.882 243.488 389.392 243.488C389.935 243.488 390.35 243.041 390.35 242.53C390.35 242.498 390.35 242.498 390.35 242.467C390.254 242.786 389.967 243.041 389.616 243.041Z" fill="#E6E7E8"/>
<path d="M432.333 336.17C432.269 336.074 414.805 311.012 414.805 311.012C413.975 307.309 415.827 299.966 415.827 299.966L421.446 261.431C420.775 257.025 420.488 251.406 414.486 252.396C410.272 253.098 409.442 253.705 406.824 254.535C407.59 258.11 401.396 260.409 401.396 260.409C392.904 264.081 390.925 261.654 390.925 261.654C388.658 262.867 381.027 266.698 379.016 268.327C376.941 270.019 375.696 272.669 376.366 277.106L382.496 313.63L381.41 322.697L370.236 351.015C373.684 349.77 377.484 349.26 381.123 349.707C384.603 350.122 387.604 352.165 391.052 352.548C396.256 353.123 400.151 351.239 404.078 348.749C408.867 347.727 413.975 346.067 419.147 343.449C419.243 343.449 419.371 343.449 419.467 343.449C423.362 343.481 427.799 343.417 430.673 340.352C431.311 339.778 433.099 337.255 432.333 336.17Z" fill="#4F1531"/>
<path d="M371.834 326.816L371.93 282.438C373.015 270.274 379.049 268.327 379.049 268.327C391.245 266.89 389.361 289.526 389.361 289.526L384.253 327.774" fill="#F7A483"/>
<path d="M332.979 351.111C338.566 348.11 339.077 347.152 340.067 345.748C344.313 339.714 335.725 339.905 333.554 340.384C332.309 340.671 332.245 343.641 328.382 347.248C328.382 347.248 322.316 350.76 320.815 350.505C320.815 350.505 319.251 350.728 319.251 351.846C319.251 351.814 323.529 354.336 332.979 351.111Z" fill="#F7A483"/>
<path d="M372.76 322.154L334.736 342.97C333.107 347.536 335.214 348.206 335.214 348.206L364.65 339.746C377.229 336.393 382.21 331.094 382.21 331.094C382.21 331.094 387.701 327.294 380.677 321.612C380.677 321.612 377.485 319.089 372.76 322.154Z" fill="#F7A483"/>
<path d="M384.987 234.996C385.977 242.371 384.859 252.108 388.531 260.154C390.159 263.729 391.979 265.517 390.989 269.668C390.191 273.084 388.594 276.276 387.701 279.788C385.785 287.546 388.403 295.145 397.438 292.335C401.78 290.994 402.259 290.994 406.218 292.527C409.538 293.804 412.667 294.187 415.955 292.559C421.063 290.068 419.531 286.301 422.404 282.534C424.575 279.661 427.672 279.724 429.332 275.861C431.312 271.2 428.949 268.71 426.523 264.751C424.001 260.633 423.586 257.919 424.416 252.938C425.118 248.756 424.064 246.649 422.692 242.818C421.287 238.891 421.893 235.443 421.223 231.516C419.882 223.726 415.636 213.126 407.463 210.828C403.44 209.71 398.268 208.816 394.437 210.253C389.201 212.169 383.327 214.244 383.55 220.693C383.837 227.302 384.125 228.419 384.987 234.996Z" fill="#340E08"/>
<path d="M334.575 340.193C334.575 340.193 335.628 343.321 331.765 342.555L327.966 339.65C327.966 339.65 326.785 339.011 327.2 337.894C327.2 337.894 327.647 337.255 328.86 337.894L334.575 340.193Z" fill="#F7A483"/>
</svg>
