<svg width="489" height="340" viewBox="0 0 489 340" fill="none" xmlns="http://www.w3.org/2000/svg">
<g opacity="0.25">
<path d="M212.27 59.0018C195.828 -0.757325 121.63 -20.0447 79.0498 24.643C78.4174 25.2753 77.7851 25.9077 77.2581 26.6455C16.2342 92.9392 45.1125 256.302 172.325 297.722C299.537 339.143 431.913 263.469 439.397 195.91C446.88 128.352 388.069 107.062 297.007 126.033C245.469 136.678 222.493 96.2064 212.27 59.0018Z" fill="#FFB400"/>
<path d="M318.085 69.2252C301.011 71.9655 296.374 87.037 309.443 97.7873C313.764 101.371 319.983 104.216 328.836 105.692C362.562 111.278 380.374 96.4172 366.883 77.0244C358.663 65.2201 334.949 66.4849 318.085 69.2252Z" fill="#FFB400"/>
<path d="M46.5876 189.903C36.0481 176.307 20.4496 179.363 17.3931 196.016C16.3392 201.496 16.7607 208.347 19.7118 216.884C30.8837 249.135 52.5952 257.672 63.0293 236.593C69.5638 223.524 57.1272 203.499 46.5876 189.903Z" fill="#FFB400"/>
<path d="M451.412 203.71C449.831 211.931 456.576 217.727 464.27 214.565C466.799 213.511 469.329 211.509 471.647 207.925C480.29 194.435 475.969 182.841 463.848 184.001C456.365 184.844 452.887 195.594 451.412 203.71Z" fill="#FFB400"/>
<path d="M408.305 117.075C416.525 118.761 422.428 112.121 419.371 104.322C418.317 101.792 416.42 99.1575 412.942 96.8388C399.557 87.8802 387.963 92.096 388.912 104.216C389.544 111.7 400.189 115.388 408.305 117.075Z" fill="#FFB400"/>
<path d="M209.423 29.1749C215.852 34.4447 224.284 31.2828 225.127 22.9566C225.443 20.2163 224.811 17.0545 222.808 13.3656C215.009 -0.651967 202.783 -2.3383 198.041 8.83361C195.195 15.7897 202.994 24.0105 209.423 29.1749Z" fill="#FFB400"/>
</g>
<path d="M471.648 244.814C484.612 231.745 494.519 216.99 484.717 214.671C474.915 212.352 458.263 238.069 455.417 261.466L452.571 269.16C454.995 252.086 449.093 231.429 440.556 230.586C432.019 229.742 437.184 243.233 443.929 254.721C449.093 263.469 450.464 270.425 450.78 274.008L437.184 310.475C440.873 283.494 431.703 250.821 418.107 249.451C404.617 248.081 412.837 269.476 423.482 287.71C431.598 301.517 433.706 312.372 434.338 318.169L431.598 325.441C432.757 326.074 434.022 326.812 435.181 327.444L451.412 284.021C454.574 281.702 459.317 278.857 466.062 276.538C478.709 272.217 491.357 265.471 484.401 260.518C478.393 256.197 464.165 264.417 454.363 276.116L459.949 261.045C462.479 256.618 466.062 250.4 471.648 244.814Z" fill="#A57200"/>
<path d="M62.0812 74.3897C63.7675 58.5804 62.5028 43.4035 54.5981 47.0923C46.6934 50.8865 49.5391 77.0246 60.1841 94.3094L62.3974 101.055C54.8089 88.3019 39.7374 77.5515 33.519 81.5566C27.4061 85.5616 38.051 91.7799 48.8014 95.8904C56.9168 99.0522 61.5542 102.952 63.7675 105.165L74.307 136.995C62.1866 116.969 38.3672 100.001 28.5654 106.324C18.7637 112.648 35.7323 122.661 52.8064 129.09C65.6646 134.043 73.0423 140.156 76.4149 143.634L78.5229 149.958C79.6822 149.747 80.8415 149.537 82.0009 149.326L69.4589 111.383C70.302 108.116 71.9883 103.69 75.2556 98.5252C81.4739 88.8289 86.3221 77.4462 78.9444 77.8677C72.6207 78.2893 67.4563 91.4637 67.1401 104.533L62.9243 91.5691C62.292 87.3533 61.3434 81.2404 62.0812 74.3897Z" fill="#A57200"/>
<path d="M383.957 288.237C384.168 289.08 384.274 290.134 384.484 291.188C386.803 302.044 392.6 319.855 405.458 323.334C405.458 323.334 398.397 286.656 423.481 277.065C448.565 267.474 445.824 258.41 444.349 242.179C442.873 225.948 437.393 222.892 454.783 207.715C472.173 192.538 468.801 169.983 468.801 169.983C468.801 169.983 452.359 195.805 434.758 196.332C417.157 196.964 414.1 211.931 414.838 223.103C415.576 234.274 400.61 235.539 392.6 241.968C384.484 248.397 383.009 282.44 383.009 282.44C383.009 282.44 383.325 284.759 383.957 288.237Z" fill="#FFB400"/>
<path d="M383.958 288.237C384.169 289.08 384.274 290.134 384.485 291.188C386.277 285.708 388.806 281.176 391.23 277.592C396.816 269.266 404.826 262.415 411.888 259.675C423.27 255.354 428.751 244.287 429.805 223.63C430.437 211.615 442.979 204.553 443.085 204.448C443.401 204.237 443.612 203.815 443.401 203.394C443.19 202.972 442.769 202.867 442.347 203.078C441.82 203.394 428.962 210.666 428.224 223.524C427.17 243.549 422.006 254.194 411.255 258.305C403.772 261.15 395.762 268.001 389.86 276.749C387.858 279.805 385.644 283.6 383.958 288.237Z" fill="#B77E00"/>
<path d="M106.452 323.123H124.054C114.568 321.542 90.9594 311.424 88.8514 291.083C86.2166 265.366 77.0472 265.682 61.554 262.942C46.0609 260.202 41.8451 264.628 32.0433 244.709C22.2416 224.683 0.319336 222.259 0.319336 222.259C0.319336 222.259 20.2391 243.971 16.4448 260.518C12.6506 277.065 25.825 283.705 36.4699 285.707C47.0095 287.815 44.48 302.044 48.5904 311.108C50.3821 315.323 57.9706 319.645 65.5591 323.017H106.452V323.123Z" fill="#A57200"/>
<path d="M68.1938 297.723C68.9316 305.416 73.3582 314.586 79.9981 322.28C80.2089 322.596 80.5251 322.807 80.7359 323.123H82.8438C82.3168 322.49 81.6844 321.963 81.2628 321.331C74.9391 314.059 70.5125 304.889 69.7747 297.617C68.6154 286.024 59.6568 278.014 40.5802 271.901C29.5137 268.317 26.0357 254.827 26.0357 254.721C25.9303 254.3 25.5087 254.089 25.1925 254.194C24.7709 254.3 24.5601 254.721 24.6655 255.037C24.7709 255.67 28.3544 269.371 40.1586 273.271C58.4974 279.278 67.1399 286.761 68.1938 297.723Z" fill="#FFB400"/>
<path d="M115.939 275.379C115.517 276.643 115.095 278.014 114.674 279.384C109.615 294.561 99.3915 320.066 80.4203 323.123C80.4203 323.123 95.4919 270.847 61.133 253.351C26.7741 235.855 32.1492 223.313 36.6812 200.442C41.2132 177.572 49.6449 173.988 27.0903 149.747C4.64105 125.401 12.8619 93.677 12.8619 93.677C12.8619 93.677 32.36 132.989 57.3387 136.573C82.3174 140.156 84.4253 161.973 81.6851 177.782C78.9448 193.592 100.024 197.702 110.563 208.136C121.103 218.571 118.046 267.369 118.046 267.369C118.046 267.369 117.309 270.53 115.939 275.379Z" fill="#FFB400"/>
<path d="M115.938 275.379C115.517 276.643 115.095 278.013 114.674 279.384C112.987 271.268 110.036 264.417 107.191 259.042C100.445 246.289 90.2219 235.328 80.4201 230.375C64.927 222.576 58.7087 205.818 60.395 176.202C61.3435 159.022 44.4803 146.902 44.3749 146.796C43.8479 146.48 43.7425 145.742 44.0587 145.321C44.3749 144.794 45.1127 144.688 45.5342 145.005C46.272 145.531 63.5569 157.863 62.5029 176.307C60.922 204.974 66.7187 221.1 81.3687 228.478C91.6974 233.642 102.026 244.709 109.088 258.094C111.617 262.731 114.147 268.528 115.938 275.379Z" fill="#B77E00"/>
<path d="M129.534 310.791C129.639 314.796 129.639 318.907 129.745 323.123H168.109C168.214 318.591 168.214 314.164 168.32 310.054C168.425 298.882 168.425 289.712 168.425 284.021C168.425 280.016 168.425 277.697 168.425 277.697L129.323 277.276C129.323 277.276 129.323 280.648 129.323 286.129C129.323 292.242 129.323 301.095 129.534 310.791Z" fill="#18315B"/>
<path d="M129.323 286.129C129.323 292.242 129.429 301.095 129.534 310.791C141.549 311.74 154.724 311.74 168.214 309.948C168.32 298.776 168.32 289.607 168.32 283.916L129.323 286.129Z" fill="#000B29"/>
<path d="M81.2616 302.044C81.2616 308.262 81.367 315.429 81.4724 323.123H119.836C119.942 318.591 120.047 314.164 120.047 309.948C120.153 300.779 120.258 292.558 120.258 286.656C120.258 280.859 120.258 277.276 120.258 277.276L81.1562 277.697C81.1562 277.697 81.1562 281.808 81.1562 288.869C81.1563 292.453 81.1562 296.879 81.2616 302.044Z" fill="#18315B"/>
<path d="M81.1562 288.764C81.1562 292.453 81.1562 296.879 81.1562 302.044C88.9555 304.362 102.868 307.946 119.942 309.948C120.047 300.779 120.153 292.558 120.153 286.656L81.1562 288.764Z" fill="#000B29"/>
<path d="M145.449 71.6493C145.449 71.6493 151.562 65.7471 151.562 59.845C151.562 53.9429 147.557 55.7346 145.449 50.254C143.341 44.7735 137.017 41.5062 133.434 42.1386C129.956 42.771 122.578 29.175 112.671 31.5991C102.658 34.0231 103.607 46.776 99.2857 48.6731C94.9645 50.5702 96.2292 58.1587 98.4425 59.845C100.656 61.5313 101.71 68.4874 102.975 68.382C104.134 68.1712 145.449 71.6493 145.449 71.6493Z" fill="#18315B"/>
<path d="M103.923 71.4384C103.923 71.4384 100.023 66.2741 97.1778 70.5953C94.3321 74.9165 98.3371 87.4585 105.399 84.402L103.923 71.4384Z" fill="#F97853"/>
<path d="M103.923 80.5025C103.712 80.5025 103.396 80.2917 103.396 80.0809C102.342 76.1813 98.2317 74.6003 98.2317 74.6003C97.9155 74.4949 97.8101 74.1787 97.9155 73.8625C98.0209 73.5464 98.3371 73.441 98.6533 73.5464C98.8641 73.6518 103.291 75.3381 104.555 79.8701C104.661 80.1863 104.45 80.5025 104.134 80.6079C104.028 80.5025 103.923 80.5025 103.923 80.5025Z" fill="#EA5143"/>
<path d="M99.8117 78.4999C99.7063 78.4999 99.6009 78.4999 99.4955 78.3945C99.1793 78.1837 99.1793 77.8675 99.2847 77.5513C99.2847 77.5513 100.022 76.392 101.498 75.7596C101.814 75.6542 102.13 75.7596 102.236 76.0758C102.341 76.392 102.236 76.7082 101.92 76.8136C100.76 77.3405 100.233 78.1837 100.233 78.1837C100.233 78.3945 100.022 78.4999 99.8117 78.4999Z" fill="#EA5143"/>
<path d="M143.868 71.4385C143.868 71.4385 147.768 66.2742 150.613 70.5954C153.459 74.9166 149.454 87.4586 142.393 84.4022L143.868 71.4385Z" fill="#F97853"/>
<path d="M143.869 80.5026C144.08 80.5026 144.396 80.2918 144.396 80.081C145.45 76.1814 149.56 74.6004 149.56 74.6004C149.876 74.495 149.982 74.1789 149.876 73.8627C149.771 73.5465 149.455 73.4411 149.139 73.5465C148.928 73.6519 144.501 75.3382 143.236 79.8702C143.131 80.1864 143.342 80.5026 143.658 80.608C143.763 80.5026 143.869 80.5026 143.869 80.5026Z" fill="#EA5143"/>
<path d="M147.979 78.5C148.085 78.5 148.19 78.5 148.295 78.3946C148.612 78.1838 148.612 77.8676 148.506 77.5515C148.506 77.5515 147.768 76.3921 146.293 75.7597C145.977 75.6543 145.661 75.7597 145.555 76.0759C145.45 76.3921 145.555 76.7083 145.871 76.8137C147.031 77.3407 147.558 78.1838 147.558 78.1838C147.558 78.3946 147.768 78.5 147.979 78.5Z" fill="#EA5143"/>
<path d="M133.434 95.0471V107.589C133.434 107.589 129.746 114.018 124.687 114.44C119.628 114.861 115.096 108.959 115.096 108.959V95.9957L133.434 95.0471Z" fill="#FFA681"/>
<path d="M133.434 95.0471V100.633C130.062 104.427 124.054 105.376 115.096 104.006V95.8903L133.434 95.0471Z" fill="#F97853"/>
<path d="M146.713 62.9015C146.502 67.7497 145.975 73.8626 145.132 78.7108C144.921 79.9756 144.605 81.0295 144.394 82.0835C141.759 91.3583 135.119 107.168 116.675 100.528C108.56 97.5766 104.766 88.5126 103.079 79.2378C101.92 72.9141 101.814 66.5904 101.814 62.0583C101.92 57.421 104.449 53.2051 108.454 50.8864C119.31 44.6681 130.904 46.9868 138.492 49.9379C143.551 52.1512 146.924 57.3156 146.713 62.9015Z" fill="#FFA681"/>
<path d="M102.869 79.3432C102.869 79.3432 104.661 89.9881 106.347 93.8877C108.034 97.7873 112.671 98.5251 114.357 101.792C116.887 106.535 120.576 110.224 126.794 107.905C131.958 106.008 131.747 103.373 134.593 101.371C139.547 97.8927 141.971 93.9931 142.182 90.8313C142.392 87.6694 144.816 78.7108 144.816 78.7108L142.182 78.5C142.182 78.5 140.706 81.6618 138.387 85.1399C136.174 80.1863 125.318 83.7698 125.318 83.7698L123.21 84.4021L121.103 83.7698C121.103 83.7698 110.141 80.2917 108.034 85.4561C106.663 83.4536 105.609 81.1349 105.188 78.7108L102.869 79.3432ZM123.527 86.0885C135.858 83.9806 133.645 91.2528 133.645 91.4636C132.801 92.3068 131.958 92.9392 131.115 93.3607C126.267 95.9956 125.845 95.574 123.948 95.6794C122.051 95.7848 119.416 95.1525 116.676 93.6769C115.833 93.2553 114.568 92.3068 113.198 91.042C113.092 91.1474 111.195 84.5075 123.527 86.0885Z" fill="#18315B"/>
<path d="M116.044 73.1249C116.044 74.495 115.306 75.549 114.463 75.549C113.62 75.549 112.882 74.495 112.882 73.1249C112.882 71.7548 113.62 70.7008 114.463 70.7008C115.411 70.7008 116.044 71.7548 116.044 73.1249Z" fill="#18315B"/>
<path d="M134.383 73.1249C134.383 74.495 133.645 75.549 132.802 75.549C131.958 75.549 131.221 74.495 131.221 73.1249C131.221 71.7548 131.958 70.7008 132.802 70.7008C133.75 70.7008 134.383 71.7548 134.383 73.1249Z" fill="#18315B"/>
<path d="M138.914 65.1149C138.914 65.1149 132.59 62.5854 127.637 64.6933L128.164 67.4336C128.164 67.4336 135.331 66.8012 139.019 68.2767C139.336 67.3282 139.336 66.2742 138.914 65.1149Z" fill="#18315B"/>
<path d="M108.666 65.1149C108.666 65.1149 115.095 62.5854 120.048 64.6933L119.522 67.4336C119.522 67.4336 112.249 66.8012 108.666 68.2767C108.244 67.3282 108.244 66.2742 108.666 65.1149Z" fill="#18315B"/>
<path d="M124.159 83.2428C125.213 83.2428 126.162 82.8212 126.267 82.8212C126.583 82.7158 126.689 82.3996 126.583 82.0834C126.478 81.7672 126.162 81.6618 125.846 81.7672C125.319 81.978 124.054 82.2942 123.421 81.978C123.316 81.8726 123.211 81.7672 123.105 81.451C122.895 79.3431 123.421 72.387 123.421 72.2817C123.421 71.9655 123.211 71.6493 122.895 71.6493C122.578 71.6493 122.262 71.8601 122.262 72.1763C122.262 72.4925 121.63 79.3431 121.946 81.5564C122.051 82.3996 122.473 82.8212 122.789 83.032C123.211 83.2428 123.632 83.2428 124.159 83.2428Z" fill="#F97853"/>
<path d="M116.57 87.3533C116.992 89.672 118.573 93.7824 123.632 93.7824C128.691 93.7824 130.166 89.9882 130.588 87.3533H116.57Z" fill="white"/>
<path d="M146.713 62.9016C146.502 67.7498 145.975 73.8627 145.132 78.7109L142.497 78.5001C142.497 78.5001 143.129 74.3897 143.446 71.7548C143.762 69.1199 144.289 64.0609 141.97 63.4286C139.651 62.7962 141.022 57.1048 137.86 54.5753C134.698 52.0459 127.636 49.9379 122.999 52.7836C118.362 55.6293 112.986 54.0484 110.878 54.5753C108.665 55.1023 105.819 58.0534 106.557 60.7937C107.4 63.534 104.976 65.2203 104.344 68.1714C103.817 71.017 105.609 78.8163 105.609 78.8163L103.079 79.3433C101.92 73.0195 101.814 66.6958 101.814 62.1638C101.92 57.5264 104.449 53.3106 108.454 50.9919C119.31 44.7736 130.904 47.0923 138.492 50.0434C143.551 52.1513 146.924 57.3156 146.713 62.9016Z" fill="#18315B"/>
<path d="M176.434 296.458C164.419 299.514 152.299 301.517 140.284 302.36C139.757 302.36 139.23 302.465 138.598 302.465C136.911 302.57 135.33 302.676 133.644 302.781C125.423 303.097 117.202 302.992 108.981 302.36C107.295 302.254 105.714 302.044 104.028 301.938C103.501 301.938 102.974 301.833 102.447 301.727C92.6451 300.673 82.8434 298.882 73.0416 296.458C72.9362 287.394 73.0416 258.831 73.5686 227.951C73.674 224.262 73.674 220.468 73.7794 216.673C74.6225 175.885 76.3089 134.465 79.3653 130.249C82.211 126.244 90.9588 121.185 99.2851 116.653C99.812 116.337 100.234 116.126 100.761 115.81C102.658 114.756 104.449 113.807 106.136 112.859C109.825 110.856 112.986 109.065 114.989 107.694V108.854C114.989 108.854 119.521 114.756 124.475 114.334C129.112 113.913 132.59 108.643 133.222 107.694C135.436 109.275 139.335 111.383 143.867 113.702C145.132 114.334 146.397 115.072 147.767 115.704C148.294 115.915 148.715 116.231 149.242 116.442C158.412 121.29 168.424 126.876 171.375 130.881C171.586 131.198 171.797 131.725 172.008 132.357C173.8 138.365 174.854 158.179 175.486 182.104C175.486 182.209 175.486 182.314 175.486 182.314C175.486 183.263 175.591 184.211 175.591 185.265C175.591 185.371 175.591 185.476 175.591 185.687C175.802 194.119 176.013 202.972 176.118 211.825C176.118 212.563 176.118 213.195 176.118 213.933C176.118 214.249 176.118 214.671 176.118 214.987C176.118 216.779 176.118 218.465 176.224 220.257C176.224 221.521 176.224 222.786 176.224 224.156C176.645 256.618 176.54 286.972 176.434 296.458Z" fill="#E29C00"/>
<path d="M175.697 185.582C172.746 180.839 169.689 175.991 166.738 171.775C165.474 169.983 164.314 168.297 163.155 166.716C163.155 166.716 163.155 166.611 163.049 166.611C162.733 166.084 162.312 165.662 161.996 165.24C161.89 165.135 161.89 165.03 161.89 165.03C161.785 164.713 161.89 164.397 162.206 164.186C162.522 163.87 163.049 163.976 163.366 164.292C166.844 168.929 171.376 175.674 175.697 182.525C175.697 182.631 175.697 182.736 175.697 182.736C175.592 183.685 175.697 184.633 175.697 185.582Z" fill="#A57200"/>
<path d="M171.587 130.46C171.587 130.46 189.715 163.765 200.887 180.628C200.887 180.628 207.211 174.831 215.432 167.137C224.285 158.706 236.511 144.688 236.511 144.688L243.256 152.698C243.256 152.698 215.958 201.813 203.733 208.031C191.507 214.249 168.952 170.51 168.952 170.51L171.587 130.46Z" fill="#E29C00"/>
<path d="M94.6481 261.677C94.1212 261.677 93.805 261.256 93.805 260.834C94.7535 233.958 80.8414 225.21 80.6306 225.105C80.209 224.894 80.1036 224.367 80.3144 223.946C80.5252 223.524 81.0521 223.419 81.4737 223.629C81.5791 223.735 85.268 225.948 88.8514 231.745C92.1187 237.015 95.9129 246.289 95.3859 260.834C95.3859 261.361 95.0697 261.677 94.6481 261.677Z" fill="#A57200"/>
<path d="M154.092 236.382C153.67 236.382 153.354 236.066 153.248 235.645C152.827 229.953 154.724 225.843 157.043 220.573C157.78 218.992 158.413 217.411 159.151 215.725C163.683 204.658 161.469 191.905 161.364 191.8C161.258 191.378 161.575 190.957 161.996 190.851C162.418 190.746 162.839 191.062 162.945 191.484C163.05 192.011 165.369 204.764 160.626 216.357C159.888 218.149 159.151 219.73 158.518 221.311C156.2 226.475 154.513 230.269 154.829 235.539C154.935 235.961 154.619 236.382 154.092 236.382Z" fill="#A57200"/>
<path d="M106.242 112.964C106.558 115.599 107.085 119.077 107.718 122.977C107.929 124.136 108.034 125.296 108.245 126.56C108.772 130.565 109.404 134.992 109.931 139.419C110.036 140.578 110.247 141.843 110.353 143.002C110.774 147.429 111.09 151.75 111.301 155.755C111.301 157.02 111.407 158.179 111.301 159.338C111.301 162.395 111.09 165.24 110.774 167.665C110.563 169.245 110.353 170.721 110.142 172.197C110.036 173.461 109.826 174.621 109.72 175.78C109.193 180.312 108.982 184.633 108.982 188.638C108.982 189.903 108.982 191.062 108.982 192.222C108.982 196.754 109.299 201.075 109.615 205.08C109.72 206.239 109.826 207.504 109.931 208.663C110.458 213.09 110.985 217.306 111.617 221.416C111.828 222.576 111.934 223.84 112.144 225C112.355 226.897 112.671 228.794 112.777 230.691C112.987 232.693 113.093 235.118 113.198 237.752C113.198 238.912 113.198 240.071 113.198 241.336C113.198 245.236 113.093 249.662 112.882 254.194C112.882 255.353 112.777 256.618 112.671 257.778C112.461 261.993 112.25 266.315 111.934 270.636C111.828 271.795 111.723 273.06 111.617 274.219C111.301 278.646 110.88 283.072 110.563 287.077C110.458 288.342 110.353 289.502 110.247 290.661C109.826 295.088 109.404 299.093 109.088 302.254C117.309 302.887 125.53 302.992 133.75 302.676C133.961 299.303 134.488 293.928 135.015 287.499C135.121 286.34 135.226 285.075 135.331 283.916C135.648 279.805 135.964 275.484 136.069 271.163C136.069 270.003 136.174 268.739 136.174 267.579C136.28 263.153 136.28 258.831 136.069 254.826C135.964 253.562 135.964 252.402 135.858 251.243C135.753 250.084 135.647 248.819 135.542 247.765C135.121 244.603 135.015 241.441 135.015 238.49C135.015 237.331 135.015 236.066 135.121 234.907C135.331 230.691 135.753 226.581 136.28 222.154C136.385 220.995 136.596 219.73 136.701 218.57C137.228 214.671 137.65 210.455 138.072 205.818C138.177 204.658 138.282 203.394 138.388 202.234C138.704 198.335 138.809 194.119 138.915 189.481C138.915 188.322 138.915 187.057 138.915 185.898C138.915 181.893 138.704 177.677 138.388 173.04C138.388 172.618 138.282 172.197 138.282 171.775C138.177 170.932 138.177 170.194 138.177 169.351C137.966 165.135 138.072 160.814 138.282 156.598C138.388 155.439 138.388 154.174 138.493 153.015C138.809 148.693 139.336 144.478 139.863 140.367C140.074 139.102 140.18 137.943 140.39 136.784C141.023 132.357 141.76 128.141 142.498 124.347C142.709 123.082 142.92 121.923 143.131 120.764C143.552 118.234 143.974 115.915 144.29 114.018C139.758 111.594 135.858 109.486 133.645 108.011C133.013 108.959 129.535 114.334 124.897 114.651C119.838 115.072 115.412 109.17 115.412 109.17V108.011C113.198 109.17 109.931 110.962 106.242 112.964Z" fill="white"/>
<path d="M107.718 122.977C107.929 124.136 108.034 125.295 108.245 126.56C112.777 126.666 118.152 126.033 124.476 124.452C131.326 122.871 137.439 123.188 142.182 124.031C142.393 122.766 142.604 121.607 142.814 120.447C137.65 119.499 131.116 119.183 123.632 120.974C117.309 122.45 112.039 123.188 107.718 122.977Z" fill="#E3E3E3"/>
<path d="M109.931 139.419C110.036 140.578 110.247 141.843 110.352 143.002C114.463 142.897 119.1 142.264 124.581 141C130.272 139.735 135.436 139.629 139.758 140.156C139.968 138.892 140.074 137.732 140.285 136.573C135.647 136.046 130.061 136.046 123.843 137.522C118.362 138.681 113.83 139.313 109.931 139.419Z" fill="#E3E3E3"/>
<path d="M111.195 155.755C111.195 157.02 111.301 158.179 111.195 159.338C114.99 159.127 119.416 158.495 124.475 157.336C129.429 156.176 134.066 156.071 137.966 156.387C138.071 155.228 138.071 153.963 138.177 152.804C133.961 152.488 129.007 152.698 123.632 153.858C118.995 154.912 114.779 155.649 111.195 155.755Z" fill="#E3E3E3"/>
<path d="M109.615 175.885C113.831 175.885 118.679 175.147 124.476 173.777C129.535 172.618 134.172 172.407 138.177 172.829C138.177 172.407 138.072 171.986 138.072 171.564C137.967 170.721 137.967 169.983 137.967 169.14C133.751 168.824 129.008 169.035 123.738 170.299C118.468 171.564 113.936 172.196 110.037 172.302C109.826 173.461 109.721 174.62 109.615 175.885Z" fill="#E3E3E3"/>
<path d="M108.771 192.222C113.198 192.222 118.362 191.589 124.475 190.114C129.745 188.849 134.593 188.744 138.704 189.165C138.704 188.006 138.704 186.741 138.704 185.582C134.383 185.16 129.218 185.371 123.632 186.636C117.835 188.006 112.882 188.638 108.771 188.638C108.771 189.903 108.771 191.062 108.771 192.222Z" fill="#E3E3E3"/>
<path d="M109.51 205.08C109.615 206.239 109.721 207.504 109.826 208.663C114.042 208.558 118.785 207.926 124.476 206.555C129.429 205.396 133.961 205.185 137.967 205.607C138.072 204.448 138.177 203.183 138.283 202.023C134.067 201.707 129.113 201.918 123.738 203.077C118.152 204.448 113.515 205.08 109.51 205.08Z" fill="#E3E3E3"/>
<path d="M111.511 221.416C111.722 222.576 111.827 223.84 112.038 225C115.727 224.789 119.837 224.157 124.58 222.997C128.796 222.049 132.695 221.732 136.279 221.943C136.384 220.784 136.595 219.519 136.7 218.36C132.801 218.149 128.479 218.465 123.842 219.519C119.099 220.573 114.989 221.311 111.511 221.416Z" fill="#E3E3E3"/>
<path d="M113.092 237.752C113.092 238.912 113.092 240.071 113.092 241.336C116.464 241.02 120.259 240.387 124.474 239.439C128.163 238.596 131.747 238.279 134.909 238.279C134.909 237.12 134.909 235.855 135.014 234.696C131.536 234.696 127.742 235.012 123.737 235.961C119.732 236.909 116.254 237.542 113.092 237.752Z" fill="#E3E3E3"/>
<path d="M112.671 257.883C116.149 257.567 120.049 256.934 124.475 255.986C128.691 255.037 132.485 254.721 135.963 254.932C135.858 253.667 135.858 252.508 135.752 251.349C132.064 251.243 128.059 251.559 123.632 252.613C119.627 253.562 116.044 254.194 112.776 254.405C112.776 255.459 112.776 256.618 112.671 257.883Z" fill="#E3E3E3"/>
<path d="M111.618 274.325C115.412 274.114 119.628 273.481 124.476 272.322C128.587 271.373 132.486 271.057 135.964 271.163C135.964 270.003 136.07 268.739 136.07 267.579C132.381 267.474 128.165 267.79 123.739 268.844C119.312 269.898 115.412 270.53 111.934 270.741C111.829 271.9 111.724 273.165 111.618 274.325Z" fill="#E3E3E3"/>
<path d="M110.248 290.766C114.358 290.661 118.996 290.029 124.476 288.764C128.165 287.921 131.643 287.604 134.911 287.604C135.016 286.445 135.121 285.18 135.227 284.021C131.749 284.021 127.849 284.337 123.739 285.286C118.785 286.445 114.358 287.077 110.67 287.288C110.459 288.448 110.353 289.607 110.248 290.766Z" fill="#E3E3E3"/>
<path d="M138.599 302.571C139.126 302.571 139.653 302.465 140.285 302.465C143.552 283.494 141.655 255.564 140.917 247.027C140.18 238.174 141.55 226.686 144.712 215.725C147.136 207.188 145.66 187.268 144.501 171.353C144.185 166.927 143.868 162.606 143.658 159.128C143.025 147.85 147.136 127.087 149.349 116.653C148.822 116.337 148.4 116.126 147.873 115.915C145.66 126.244 141.444 147.429 142.077 159.233C142.287 162.711 142.604 166.927 142.92 171.459C144.079 187.268 145.555 206.977 143.236 215.303C140.074 226.475 138.704 238.174 139.442 247.238C140.074 255.67 141.866 283.705 138.599 302.571Z" fill="#A57200"/>
<path d="M105.505 225.21C107.402 236.909 106.769 244.498 106.137 253.246C105.926 256.091 105.715 259.042 105.505 262.31C104.978 272.533 103.291 292.98 102.553 301.833C103.08 301.938 103.607 301.938 104.134 302.044C104.872 293.19 106.664 272.638 107.085 262.415C107.296 259.148 107.507 256.302 107.718 253.456C108.456 244.603 108.983 236.909 107.085 225C106.664 222.47 106.242 219.835 105.821 217.306C103.713 204.553 101.394 191.378 102.448 185.055C102.659 183.474 103.08 181.787 103.397 179.89C104.872 172.302 106.558 162.816 106.032 154.595C105.505 146.48 102.132 124.347 100.867 116.021C100.34 116.337 99.9186 116.548 99.3916 116.864C100.762 125.612 103.924 146.796 104.451 154.701C104.978 162.711 103.186 172.091 101.816 179.574C101.5 181.471 101.183 183.158 100.867 184.739C99.8132 191.273 101.921 204.026 104.24 217.516C104.661 220.046 105.083 222.575 105.505 225.21Z" fill="#A57200"/>
<path d="M74.0958 143.845C74.0958 143.845 57.865 198.124 53.7545 217.411C49.7495 236.698 49.4333 276.959 49.4333 276.959C49.4333 276.959 42.3718 291.715 42.1611 298.249C41.9503 305.205 45.6391 310.791 45.2175 315.429C44.7959 319.961 50.3819 317.537 48.801 308.262C47.22 298.987 51.6466 290.555 53.6492 290.872C55.5463 291.188 52.0682 300.99 53.7545 304.573C55.4409 308.156 57.6542 301.2 59.8675 296.985C62.1862 292.663 61.9754 283.178 61.0268 276.327C59.9729 269.582 72.3041 228.372 72.3041 216.463L87.9026 163.87C87.9026 163.976 82.7383 141.948 74.0958 143.845Z" fill="#FFA681"/>
<path d="M89.9052 162.606C89.3782 166.084 87.3757 172.091 84.9516 179.574C84.7408 180.207 84.53 180.839 84.3192 181.471V181.577C83.6868 183.474 83.0545 185.371 82.4221 187.479C79.6818 195.805 76.6253 205.396 74.0959 215.303C73.2527 218.676 72.4095 222.049 71.6718 225.527C70.7232 229.848 69.9854 234.169 69.3531 238.385C67.2452 253.667 63.3455 272.954 63.3455 272.954C57.5488 275.379 48.3794 272.217 48.3794 272.217C48.3794 272.217 48.1686 244.392 49.4333 233.642C51.0143 220.257 53.1222 210.771 55.6517 199.916C62.6078 169.878 74.939 140.473 78.3117 132.673C78.6279 132.041 78.8386 131.619 78.944 131.198H81.8951C87.2703 134.781 91.3807 153.225 89.9052 162.606Z" fill="#E29C00"/>
<path d="M47.6416 266.631L48.0632 273.06C48.0632 273.06 56.7056 275.906 63.2401 273.903L64.9264 268.212C58.7081 268.422 52.9114 268.317 47.6416 266.631Z" fill="#F7D300"/>
<path d="M84.8462 179.574C84.8462 179.68 84.8462 179.785 84.8462 179.89C84.6354 180.417 84.4246 180.944 84.2139 181.577V181.682C83.5815 183.474 82.9491 185.476 82.3167 187.584C78.9441 198.335 75.466 211.931 73.8851 220.678C73.8851 218.887 73.8851 217.2 73.9905 215.409C73.1473 218.781 72.3042 222.154 71.5664 225.632C71.8826 222.47 72.8311 217.727 74.0959 212.247C76.6254 201.286 80.4196 187.795 83.4761 179.469C83.5815 179.047 84.1084 178.837 84.53 178.942C84.6354 179.047 84.8462 179.258 84.8462 179.574Z" fill="#A57200"/>
<path d="M375.948 323.123H414.417C414.312 320.488 414.207 317.853 413.996 315.534C413.363 302.36 412.731 293.401 412.731 293.401L381.429 294.771L378.794 294.877L374.156 295.087C374.156 295.087 374.578 303.097 375.316 314.796C375.526 317.431 375.737 320.172 375.948 323.123Z" fill="#18315B"/>
<path d="M378.899 294.877L374.262 295.088C374.262 295.088 374.683 303.098 375.421 314.796C387.436 315.745 400.505 316.167 413.996 315.429C413.363 302.254 412.731 293.296 412.731 293.296L381.429 294.666L378.899 294.877Z" fill="#000B29"/>
<path d="M383.116 323.123C382.378 310.897 381.851 300.568 381.535 294.771L378.9 294.877C379.217 300.674 379.744 311.002 380.481 323.123H383.116Z" fill="#000B29"/>
<path d="M364.672 323.123C364.883 319.855 365.094 316.693 365.199 313.848C365.832 302.676 366.253 295.087 366.253 295.087L361.3 294.877L358.665 294.771L327.784 293.401C327.784 293.401 327.468 298.776 326.941 307.208C326.73 311.74 326.414 317.115 326.098 323.123H364.672Z" fill="#18315B"/>
<path d="M327.046 307.208C335.478 309.21 348.968 311.951 365.199 313.848C365.831 302.676 366.253 295.088 366.253 295.088L361.299 294.877L358.665 294.771L327.784 293.401C327.784 293.296 327.467 298.671 327.046 307.208Z" fill="#000B29"/>
<path d="M359.718 323.123C360.456 311.002 360.983 300.568 361.299 294.877L358.664 294.771C358.348 300.568 357.821 311.002 357.083 323.123H359.718Z" fill="#000B29"/>
<path d="M418.318 299.303C410.519 301.411 402.614 303.098 394.815 304.152C392.075 304.573 389.334 304.889 386.699 305.1C383.01 305.416 379.322 305.627 375.738 305.733C369.625 305.943 363.618 305.838 357.505 305.311C345.806 304.468 334.002 302.36 322.303 299.198C322.197 288.237 322.408 249.03 323.146 211.193C323.146 209.507 323.251 207.82 323.251 206.134C323.251 205.818 323.251 205.396 323.251 205.08C323.251 204.658 323.251 204.342 323.251 203.921C323.251 202.761 323.357 201.497 323.357 200.337C323.462 197.913 323.462 195.489 323.568 193.065C323.568 191.589 323.673 190.219 323.673 188.849C323.673 188.533 323.673 188.217 323.673 188.006C323.673 187.057 323.778 186.109 323.778 185.266C323.778 184.949 323.778 184.739 323.778 184.422C323.778 183.579 323.884 182.736 323.884 181.893C323.884 181.155 323.884 180.523 323.989 179.785C324.938 154.279 326.202 134.149 328.1 131.303C331.367 126.455 342.328 120.131 351.181 114.862C354.343 112.964 358.137 111.067 360.245 109.697C363.407 112.227 365.62 114.545 370.258 114.335C375.422 114.124 376.792 111.067 378.689 108.327C379.849 109.065 383.01 111.594 384.591 112.543C385.962 113.386 387.437 114.229 389.018 115.072C391.442 116.442 393.972 117.918 396.501 119.394C400.19 121.607 403.879 123.82 406.935 126.033C409.992 128.247 412.416 130.249 413.575 132.041C415.261 134.676 416.421 151.434 417.159 173.461C417.159 174.199 417.159 175.042 417.264 175.78C417.264 175.885 417.264 175.991 417.264 176.096C417.264 176.939 417.369 177.677 417.369 178.52C417.475 181.05 417.475 183.579 417.58 186.109C417.58 186.636 417.58 187.163 417.58 187.795C417.58 188.217 417.58 188.638 417.58 189.06C417.58 190.114 417.58 191.168 417.686 192.222C417.686 192.433 417.686 192.643 417.686 192.854C417.791 195.7 417.791 198.545 417.896 201.497C417.896 202.34 417.896 203.183 417.896 204.026C418.634 243.971 418.423 287.605 418.318 299.303Z" fill="#FFC239"/>
<path d="M418.002 204.237L405.566 216.779L393.972 205.08L382.379 216.779L370.785 204.975L359.192 216.779L347.493 204.975L335.794 216.779L323.146 204.026C323.146 202.867 323.252 201.602 323.252 200.442C323.357 198.018 323.357 195.594 323.463 193.17L335.794 180.628L347.493 192.432L359.192 180.628L370.785 192.432L382.379 180.628L393.972 192.327L405.566 180.628L417.792 192.959C417.897 195.805 417.897 198.651 418.002 201.602C417.897 202.55 417.897 203.394 418.002 204.237Z" fill="#A57200"/>
<path d="M396.606 269.055C379.954 268.95 365.831 261.467 356.872 255.143C347.176 248.292 341.274 241.336 341.274 241.336C340.958 241.02 341.063 240.493 341.379 240.177C341.695 239.86 342.222 239.966 342.539 240.282C342.644 240.387 348.335 247.133 357.926 253.878C366.674 260.096 380.586 267.474 396.712 267.474C397.133 267.474 397.555 267.79 397.555 268.317C397.344 268.739 397.028 269.055 396.606 269.055Z" fill="#A57200"/>
<path d="M386.173 259.253C372.05 256.513 359.508 245.657 358.981 245.13C358.665 244.814 358.665 244.287 358.875 243.971C359.192 243.655 359.719 243.655 360.035 243.866C360.14 243.971 374.896 256.724 389.862 258.094C390.283 258.094 390.599 258.515 390.599 258.937C390.599 259.359 390.178 259.675 389.756 259.675C388.597 259.675 387.438 259.464 386.173 259.253Z" fill="#A57200"/>
<path d="M357.926 136.362C357.505 136.362 357.188 136.046 357.188 135.73C357.083 135.308 357.399 134.887 357.821 134.781C378.057 130.987 384.17 117.918 384.17 117.812C384.38 117.391 384.802 117.18 385.224 117.391C385.645 117.602 385.856 118.023 385.645 118.445C385.434 118.972 379.111 132.357 358.137 136.362C358.032 136.362 357.926 136.362 357.926 136.362Z" fill="#A57200"/>
<path d="M333.159 171.459C333.159 171.564 333.053 171.67 333.053 171.67C332.737 172.197 332.421 172.618 332.105 173.145V173.25C331.051 174.937 329.997 176.623 328.943 178.52C327.256 181.471 325.465 184.739 323.778 188.006C323.778 187.057 323.884 186.109 323.884 185.266C323.884 184.949 323.884 184.739 323.884 184.422C326.624 179.258 329.47 174.41 331.788 170.826C331.999 170.405 332.526 170.299 332.842 170.616C333.159 170.826 333.264 171.143 333.159 171.459Z" fill="#A57200"/>
<path d="M435.182 141.843C435.182 141.843 461.109 133.516 468.698 116.548C470.911 111.594 452.678 61.7422 452.678 61.7422L443.825 62.1638C443.825 62.1638 446.354 79.4486 447.83 89.2504C449.094 97.3658 451.097 106.957 451.835 110.119C451.94 110.856 452.045 111.173 452.045 111.173C451.624 111.278 451.202 111.278 450.781 111.383C438.66 113.808 423.272 121.712 423.272 121.712L435.182 141.843Z" fill="#FFA681"/>
<path d="M458.58 116.021C458.896 116.337 459.423 116.232 459.739 115.81C460.055 115.388 459.95 114.967 459.528 114.651C457.631 113.281 454.785 111.7 451.834 110.119C451.94 110.856 452.045 111.173 452.045 111.173C451.623 111.278 451.202 111.278 450.78 111.383C453.837 112.964 456.788 114.651 458.58 116.021Z" fill="#F97853"/>
<path d="M395.553 118.972C395.553 118.972 387.754 137.311 407.674 147.534C421.48 154.596 452.888 136.151 452.888 136.151L441.716 112.332C441.716 112.437 412.943 124.242 395.553 118.972Z" fill="#FFC239"/>
<path d="M448.145 33.6016C447.407 34.1286 447.512 37.5012 447.828 40.6631C447.723 40.6631 447.618 40.6631 447.512 40.7685C446.564 36.5527 444.772 29.2804 443.191 30.6505C442.137 31.5991 443.507 37.8174 444.456 41.5063C444.245 41.6116 444.034 41.6116 443.823 41.717C442.664 37.2904 440.029 28.7534 438.343 30.4397C437.183 31.4937 439.397 39.0822 440.556 42.8764C440.345 42.9818 440.24 42.9818 440.029 43.0872C438.87 39.3983 436.446 32.3368 434.654 34.0232C433.073 35.4987 437.5 46.1436 437.5 46.1436L438.659 50.2541C438.659 50.2541 437.289 50.8864 435.181 48.4624C433.073 46.0383 430.438 45.6167 432.23 49.0947C434.232 53.0997 437.183 55.9454 438.554 58.6857C439.818 61.5314 444.034 62.3745 444.034 62.3745L452.255 61.9529C452.255 61.9529 453.836 47.9354 450.779 41.2955C450.463 37.3958 449.515 32.653 448.145 33.6016Z" fill="#FFA681"/>
<path d="M345.805 65.8527C345.805 79.9757 354.447 89.672 368.57 89.672C382.693 89.672 392.495 79.2379 392.495 65.1149C392.495 61.2153 391.862 57.6318 390.598 54.3646C390.492 54.1538 390.492 53.943 390.387 53.8376C390.282 53.5214 390.071 53.0998 389.965 52.7836C389.755 52.2567 389.438 51.7297 389.122 51.2027C385.433 44.5628 378.899 40.4524 370.046 40.4524C353.182 40.347 345.805 51.7297 345.805 65.8527Z" fill="#18315B"/>
<path d="M349.073 71.8603C349.073 71.8603 345.173 66.5905 342.222 70.9117C339.271 75.2329 343.381 87.9858 350.548 84.8239L349.073 71.8603Z" fill="#F97853"/>
<path d="M348.967 81.0297C348.756 81.0297 348.44 80.8189 348.44 80.6081C347.386 76.7085 343.276 75.1276 343.17 75.0222C342.854 74.9168 342.749 74.6006 342.854 74.2844C342.959 73.9682 343.276 73.8628 343.592 73.9682C343.803 74.0736 348.229 75.76 349.494 80.292C349.599 80.6081 349.388 80.9243 349.072 81.0297C349.072 81.0297 349.072 81.0297 348.967 81.0297Z" fill="#EA5143"/>
<path d="M344.858 79.0272C344.752 79.0272 344.647 79.0272 344.541 78.9218C344.225 78.7111 344.225 78.3949 344.331 78.0787C344.331 78.0787 345.068 76.9193 346.544 76.287C346.86 76.1816 347.176 76.287 347.387 76.6031C347.492 76.9193 347.387 77.2355 347.071 77.4463C345.912 77.9733 345.385 78.8164 345.385 78.8164C345.279 78.9218 345.068 79.0272 344.858 79.0272Z" fill="#EA5143"/>
<path d="M389.334 71.8603C389.334 71.8603 393.234 66.5905 396.185 70.9117C399.136 75.2329 395.025 87.9858 387.858 84.8239L389.334 71.8603Z" fill="#F97853"/>
<path d="M389.438 81.0297C389.649 81.0297 389.965 80.8189 389.965 80.6081C391.019 76.7085 395.13 75.1276 395.235 75.0222C395.551 74.9168 395.657 74.6006 395.551 74.2844C395.446 73.9682 395.13 73.8628 394.813 73.9682C394.603 74.0736 390.176 75.76 388.911 80.292C388.806 80.6081 389.017 80.9243 389.333 81.0297C389.333 81.0297 389.333 81.0297 389.438 81.0297Z" fill="#EA5143"/>
<path d="M393.548 79.0271C393.654 79.0271 393.759 79.0271 393.865 78.9217C394.181 78.7109 394.181 78.3947 394.075 78.0786C394.075 78.0786 393.338 76.9192 391.862 76.2868C391.546 76.1814 391.23 76.2868 391.019 76.603C390.914 76.9192 391.019 77.2354 391.335 77.4462C392.495 77.9732 393.022 78.8163 393.022 78.8163C393.127 78.9217 393.338 79.0271 393.548 79.0271Z" fill="#EA5143"/>
<path d="M378.795 95.785V108.432C378.795 108.432 375.001 114.862 369.942 115.283C364.883 115.705 360.351 109.697 360.351 109.697V96.6282L378.795 95.785Z" fill="#FFA681"/>
<path d="M378.794 95.785V101.371C375.316 105.165 369.308 106.114 360.244 104.849V96.7336L378.794 95.785Z" fill="#F97853"/>
<path d="M392.18 63.2178C391.969 68.1714 391.442 74.2844 390.493 79.2379C390.283 80.5027 389.966 81.662 389.65 82.6106C387.015 91.9908 380.27 108.011 361.615 101.266C353.394 98.3145 349.495 89.1451 347.808 79.7649C346.649 73.4412 346.438 67.0121 346.544 62.3747C346.649 57.7373 349.178 53.4161 353.289 51.0974C364.355 44.8791 375.949 47.1977 383.643 50.1488C389.018 52.3621 392.496 57.5265 392.18 63.2178Z" fill="#FFA681"/>
<path d="M361.193 73.5466C361.193 74.9168 360.455 75.9707 359.612 75.9707C358.769 75.9707 358.031 74.9168 358.031 73.5466C358.031 72.1765 358.769 71.1226 359.612 71.1226C360.455 71.1226 361.193 72.1765 361.193 73.5466Z" fill="#18315B"/>
<path d="M379.532 73.5466C379.532 74.9167 378.794 75.9707 377.951 75.9707C377.108 75.9707 376.37 74.9167 376.37 73.5466C376.37 72.1765 377.108 71.1225 377.951 71.1225C378.794 71.0171 379.532 72.1765 379.532 73.5466Z" fill="#18315B"/>
<path d="M383.01 65.1149C383.01 65.1149 378.056 63.2178 374.262 64.7988L374.683 66.9067C374.683 66.9067 380.269 66.4851 383.01 67.539C383.326 66.6959 383.326 65.9581 383.01 65.1149Z" fill="#18315B"/>
<path d="M354.448 65.1149C354.448 65.1149 359.402 63.2178 363.196 64.7988L362.774 66.9067C362.774 66.9067 357.188 66.4851 354.448 67.539C354.132 66.6959 354.132 65.9581 354.448 65.1149Z" fill="#18315B"/>
<path d="M369.414 83.8754C370.468 83.8754 371.417 83.4538 371.628 83.4538C371.944 83.3484 372.049 82.9268 371.944 82.716C371.838 82.3998 371.417 82.2944 371.206 82.3998C370.679 82.6106 369.309 82.9268 368.782 82.6106C368.676 82.5052 368.571 82.3998 368.466 82.0836C368.255 79.9757 368.782 72.9142 368.782 72.9142C368.782 72.5981 368.571 72.2819 368.255 72.2819C367.939 72.2819 367.623 72.4927 367.623 72.8088C367.623 73.125 366.99 80.0811 367.306 82.2944C367.412 83.1376 367.833 83.5592 368.149 83.77C368.466 83.77 368.887 83.8754 369.414 83.8754Z" fill="#F97853"/>
<path d="M361.299 86.9318C362.247 90.4098 365.093 93.8878 369.098 93.8878C372.998 93.8878 375.843 90.4098 376.897 86.9318H361.299Z" fill="white"/>
<path d="M368.781 97.6821C370.362 97.6821 371.627 96.9443 371.732 96.8389C372.049 96.6281 372.154 96.3119 371.943 95.9957C371.732 95.6796 371.416 95.5742 371.1 95.785C371.1 95.785 370.046 96.4173 368.781 96.4173C367.622 96.4173 366.568 95.785 366.568 95.785C366.252 95.5742 365.936 95.6796 365.725 95.9957C365.514 96.3119 365.62 96.6281 365.936 96.8389C365.936 96.8389 367.306 97.6821 368.781 97.6821Z" fill="#F97853"/>
<path d="M391.547 71.9656H388.807C389.123 69.2253 389.545 64.3771 387.332 63.7447C380.27 61.5314 389.44 56.5778 386.278 54.0483C383.116 51.5189 375.106 52.5728 369.52 52.4674C363.934 52.2566 354.975 52.362 352.762 52.889C350.549 53.416 351.813 56.9994 352.551 59.8451C353.394 62.6908 349.916 65.7472 349.284 68.6983C349.073 69.5415 349.179 70.8062 349.284 72.071H346.965C346.649 68.4875 346.649 65.2203 346.754 62.5854C346.86 57.948 349.389 53.6268 353.5 51.3081C364.566 45.0897 376.16 47.4084 383.854 50.3595C389.123 52.362 392.601 57.6318 392.285 63.3231C392.074 65.958 391.864 69.0145 391.547 71.9656Z" fill="#18315B"/>
<path d="M359.296 80.608C355.502 80.608 352.445 77.5515 352.445 73.7573C352.445 69.9631 355.502 66.9066 359.296 66.9066C363.09 66.9066 366.147 69.9631 366.147 73.7573C366.147 77.5515 363.09 80.608 359.296 80.608ZM359.296 68.066C356.134 68.066 353.499 70.5954 353.499 73.8627C353.499 77.0246 356.029 79.6594 359.296 79.6594C362.458 79.6594 365.093 77.13 365.093 73.8627C365.093 70.7008 362.563 68.066 359.296 68.066Z" fill="white"/>
<path d="M377.952 80.608C374.158 80.608 371.102 77.5515 371.102 73.7573C371.102 69.9631 374.158 66.9066 377.952 66.9066C381.746 66.9066 384.803 69.9631 384.803 73.7573C384.803 77.5515 381.746 80.608 377.952 80.608ZM377.952 68.066C374.79 68.066 372.156 70.5954 372.156 73.8627C372.156 77.0246 374.685 79.6594 377.952 79.6594C381.22 79.6594 383.749 77.13 383.749 73.8627C383.749 70.7008 381.114 68.066 377.952 68.066Z" fill="white"/>
<path d="M353.711 71.6494C353.606 71.6494 353.395 71.6494 353.29 71.544C353.29 71.544 350.128 68.4875 346.123 69.4361C345.806 69.5414 345.596 69.3307 345.49 69.0145C345.385 68.6983 345.596 68.4875 345.912 68.3821C350.549 67.3281 353.922 70.5954 354.133 70.7008C354.343 70.9116 354.343 71.2278 354.133 71.4386C353.922 71.544 353.817 71.6494 353.711 71.6494Z" fill="white"/>
<path d="M383.749 71.6495C383.539 71.6495 383.433 71.5441 383.328 71.4387C383.117 71.2279 383.222 70.9117 383.433 70.7009C383.644 70.5955 388.492 67.4336 392.603 68.1714C392.919 68.1714 393.13 68.4876 393.024 68.8038C393.024 69.12 392.708 69.3308 392.392 69.2254C388.703 68.593 384.066 71.6495 384.066 71.6495C383.96 71.6495 383.855 71.6495 383.749 71.6495Z" fill="white"/>
<path d="M371.523 72.282C371.523 72.282 370.258 70.5956 368.572 70.5956C366.885 70.5956 365.831 72.282 365.726 72.282L364.883 71.6496C364.988 71.5442 366.358 69.4363 368.572 69.4363C370.785 69.4363 372.26 71.5442 372.366 71.6496L371.523 72.282Z" fill="white"/>
<path d="M330.945 170.405C330.945 170.405 323.778 184.317 315.347 195.278C312.817 198.545 310.288 201.496 307.653 203.815C303.543 207.609 299.432 209.506 296.165 207.82C283.939 201.602 256.642 152.488 256.642 152.488L263.387 144.478C263.387 144.478 275.507 158.495 284.466 166.927C292.687 174.621 299.011 180.417 299.011 180.417C300.17 178.731 301.329 176.834 302.594 174.831C303.964 172.724 305.334 170.405 306.704 168.192C316.928 151.434 328.31 131.198 328.31 131.198L330.945 170.405Z" fill="#FFA681"/>
<path d="M315.347 195.384C312.817 198.651 310.288 201.602 307.653 203.921L302.488 175.042C303.858 172.934 305.229 170.616 306.599 168.402L315.347 195.384Z" fill="#F97853"/>
<path d="M328.205 131.408L303.647 169.983L311.868 203.92L332.21 170.826C332.21 170.826 334.634 148.272 328.205 131.408Z" fill="#FFC239"/>
<path d="M297.323 323.123C295.532 313.426 293.845 302.465 292.264 291.82C291.948 289.502 291.632 287.183 291.21 284.864C289.946 276.011 288.786 267.685 287.943 260.834C287.627 258.199 287.311 255.775 286.995 253.667C286.151 246.817 285.624 242.495 285.624 242.495L246.839 243.971L207.948 242.495C207.948 242.495 206.894 250.927 205.313 263.258C204.997 265.472 204.681 267.896 204.365 270.32C203.521 276.749 202.467 283.916 201.413 291.188C201.413 291.293 201.413 291.399 201.413 291.504C201.097 293.823 200.781 296.036 200.36 298.355V298.46C199.516 303.941 198.673 309.527 197.725 314.797C197.408 317.01 196.987 319.118 196.671 321.226C196.565 321.858 196.46 322.49 196.354 323.123H297.323Z" fill="#FFDA00"/>
<path d="M216.907 253.983C216.907 255.986 215.221 257.672 213.218 257.672C211.216 257.672 209.529 255.986 209.529 253.983C209.529 251.981 211.216 250.295 213.218 250.295C215.326 250.4 216.907 251.981 216.907 253.983Z" fill="#FFC239"/>
<path d="M225.972 268.106C225.972 270.109 224.286 271.795 222.284 271.795C220.281 271.795 218.595 270.109 218.595 268.106C218.595 266.104 220.281 264.418 222.284 264.418C224.391 264.523 225.972 266.104 225.972 268.106Z" fill="#FFC239"/>
<path d="M243.889 260.834C243.889 262.837 242.203 264.523 240.201 264.523C238.198 264.523 236.512 262.837 236.512 260.834C236.512 258.832 238.198 257.145 240.201 257.145C242.203 257.251 243.889 258.832 243.889 260.834Z" fill="#FFC239"/>
<path d="M215.749 283.178C215.749 285.18 214.062 286.867 212.06 286.867C210.057 286.867 208.371 285.18 208.371 283.178C208.371 281.175 210.057 279.489 212.06 279.489C214.062 279.489 215.749 281.175 215.749 283.178Z" fill="#FFC239"/>
<path d="M237.986 281.597C237.986 283.599 236.3 285.286 234.297 285.286C232.295 285.286 230.608 283.599 230.608 281.597C230.608 279.594 232.295 277.908 234.297 277.908C236.405 278.013 237.986 279.594 237.986 281.597Z" fill="#FFC239"/>
<path d="M207.844 266.525C207.844 268.423 206.369 270.003 204.577 270.109C204.893 267.685 205.21 265.261 205.526 263.047C206.79 263.68 207.844 264.944 207.844 266.525Z" fill="#FFC239"/>
<path d="M274.348 303.098C274.348 305.1 272.662 306.786 270.66 306.786C268.657 306.786 266.971 305.1 266.971 303.098C266.971 301.095 268.657 299.409 270.66 299.409C272.662 299.409 274.348 301.095 274.348 303.098Z" fill="#FFC239"/>
<path d="M272.557 283.178C272.557 285.18 270.871 286.867 268.869 286.867C266.866 286.867 265.18 285.18 265.18 283.178C265.18 281.175 266.866 279.489 268.869 279.489C270.976 279.489 272.557 281.175 272.557 283.178Z" fill="#FFC239"/>
<path d="M292.266 291.82C291.844 292.031 291.317 292.136 290.79 292.136C288.788 292.136 287.102 290.45 287.102 288.448C287.102 286.445 288.788 284.759 290.79 284.759C290.896 284.759 291.107 284.759 291.212 284.759C291.634 287.077 291.95 289.396 292.266 291.82Z" fill="#FFC239"/>
<path d="M276.246 317.642C276.246 319.645 274.56 321.331 272.557 321.331C270.554 321.331 268.868 319.645 268.868 317.642C268.868 315.64 270.554 313.953 272.557 313.953C274.56 314.059 276.246 315.64 276.246 317.642Z" fill="#FFC239"/>
<path d="M291.844 311.845C291.844 313.848 290.158 315.534 288.156 315.534C286.153 315.534 284.467 313.848 284.467 311.845C284.467 309.843 286.153 308.157 288.156 308.157C290.264 308.157 291.844 309.843 291.844 311.845Z" fill="#FFC239"/>
<path d="M259.381 323.123C258.749 322.174 257.59 321.542 256.325 321.542C255.06 321.542 254.006 322.174 253.269 323.123H259.381Z" fill="#FFC239"/>
<path d="M213.325 306.26C213.325 308.262 211.639 309.948 209.636 309.948C207.634 309.948 205.947 308.262 205.947 306.26C205.947 304.257 207.634 302.571 209.636 302.571C211.639 302.571 213.325 304.257 213.325 306.26Z" fill="#FFC239"/>
<path d="M203.628 294.771C203.628 296.669 202.258 298.144 200.466 298.355V298.25C200.782 295.931 201.204 293.718 201.52 291.399C202.785 291.926 203.628 293.191 203.628 294.771Z" fill="#FFC239"/>
<path d="M199.412 317.642C199.412 319.329 198.358 320.699 196.777 321.12C197.199 319.012 197.515 316.904 197.831 314.691C198.78 315.429 199.412 316.483 199.412 317.642Z" fill="#FFC239"/>
<path d="M222.388 319.223C222.388 321.226 220.702 322.912 218.7 322.912C216.697 322.912 215.011 321.226 215.011 319.223C215.011 317.221 216.697 315.534 218.7 315.534C220.702 315.534 222.388 317.221 222.388 319.223Z" fill="#FFC239"/>
<path d="M241.676 316.377C241.676 318.38 239.989 320.066 237.987 320.066C235.984 320.066 234.298 318.38 234.298 316.377C234.298 314.375 235.984 312.689 237.987 312.689C239.989 312.689 241.676 314.375 241.676 316.377Z" fill="#FFC239"/>
<path d="M227.869 298.355C227.869 300.357 226.183 302.044 224.18 302.044C222.178 302.044 220.491 300.357 220.491 298.355C220.491 296.352 222.178 294.666 224.18 294.666C226.288 294.771 227.869 296.352 227.869 298.355Z" fill="#FFC239"/>
<path d="M247.472 294.771C247.472 296.774 245.786 298.46 243.784 298.46C241.781 298.46 240.095 296.774 240.095 294.771C240.095 292.769 241.781 291.083 243.784 291.083C245.891 291.083 247.472 292.769 247.472 294.771Z" fill="#FFC239"/>
<path d="M256.326 275.484C256.326 277.487 254.64 279.173 252.637 279.173C250.635 279.173 248.948 277.487 248.948 275.484C248.948 273.482 250.635 271.795 252.637 271.795C254.745 271.795 256.326 273.482 256.326 275.484Z" fill="#FFC239"/>
<path d="M287.944 260.729C287.733 260.834 287.417 260.834 287.206 260.834C285.204 260.834 283.518 259.148 283.518 257.145C283.518 255.143 285.099 253.562 286.996 253.456C287.312 255.67 287.628 258.094 287.944 260.729Z" fill="#FFC239"/>
<path d="M268.973 260.834C268.973 262.837 267.287 264.523 265.285 264.523C263.282 264.523 261.596 262.837 261.596 260.834C261.596 258.832 263.282 257.145 265.285 257.145C267.287 257.251 268.973 258.832 268.973 260.834Z" fill="#FFC239"/>
<path d="M282.253 273.903C282.253 275.906 280.566 277.592 278.564 277.592C276.561 277.592 274.875 275.906 274.875 273.903C274.875 271.901 276.561 270.214 278.564 270.214C280.566 270.214 282.253 271.901 282.253 273.903Z" fill="#FFC239"/>
<path d="M260.014 306.26C260.014 308.262 258.328 309.948 256.326 309.948C254.323 309.948 252.637 308.262 252.637 306.26C252.637 304.257 254.323 302.571 256.326 302.571C258.328 302.571 260.014 304.257 260.014 306.26Z" fill="#FFC239"/>
<path d="M288.049 243.338C267.602 256.724 230.081 255.67 206.473 243.338C208.686 229.321 211.742 215.303 211.005 196.543C210.899 194.54 210.794 192.433 210.794 190.43C210.689 188.638 210.583 186.952 210.478 185.16C208.475 154.069 203.1 128.668 205.735 125.401C206.894 123.926 208.791 122.45 211.11 120.869C212.059 120.237 213.007 119.604 214.061 118.972C216.485 117.496 219.226 116.021 221.966 114.545C228.5 111.067 235.035 107.905 238.302 105.692C241.569 107.168 244.204 107.905 246.945 107.905C247.05 107.905 247.155 107.905 247.155 107.905C247.261 107.905 247.366 107.905 247.366 107.905C250.212 107.905 252.741 107.168 256.009 105.692C259.065 107.695 264.862 110.54 270.764 113.702C275.085 116.021 279.512 118.445 282.884 120.764C285.098 122.345 286.995 123.82 288.049 125.19C289.313 126.771 288.786 133.938 287.733 144.478C286.679 154.912 284.992 168.613 284.044 183.685C283.727 187.901 283.517 192.222 283.411 196.543C282.779 215.198 285.73 229.321 288.049 243.338Z" fill="#FFB400"/>
<path d="M275.507 227.845C259.065 227.74 244.943 220.257 236.089 214.039C226.498 207.293 220.702 200.337 220.596 200.337C220.28 200.021 220.385 199.494 220.702 199.178C221.018 198.862 221.545 198.967 221.861 199.283C221.966 199.389 227.658 206.134 237.143 212.774C245.891 218.887 259.592 226.264 275.613 226.264C276.034 226.264 276.456 226.581 276.35 227.108C276.245 227.424 275.929 227.845 275.507 227.845Z" fill="#A57200"/>
<path d="M264.651 218.254C250.634 215.514 238.197 204.764 237.67 204.237C237.354 203.921 237.354 203.499 237.565 203.077C237.881 202.761 238.303 202.761 238.724 202.972C238.83 203.078 253.48 215.725 268.34 217.095C268.762 217.095 269.078 217.517 269.078 217.938C269.078 218.36 268.657 218.676 268.235 218.676C266.97 218.676 265.811 218.465 264.651 218.254Z" fill="#A57200"/>
<path d="M243.888 145.742C243.466 145.742 243.15 145.426 243.15 145.11C243.045 144.688 243.361 144.267 243.783 144.161C263.808 140.367 269.921 127.404 269.921 127.298C270.132 126.877 270.553 126.771 270.975 126.877C271.396 127.087 271.502 127.509 271.396 127.931C271.185 128.458 264.967 141.737 244.099 145.637C243.993 145.742 243.888 145.742 243.888 145.742Z" fill="#A57200"/>
<path d="M270.869 113.597C266.864 122.661 257.062 132.041 244.31 129.933C231.978 127.825 226.076 121.291 221.86 114.545C228.395 111.067 234.929 107.905 238.197 105.692C241.464 107.168 244.099 107.905 246.839 107.905C246.944 107.905 247.05 107.905 247.05 107.905C247.155 107.905 247.261 107.905 247.261 107.905C250.106 107.905 252.636 107.168 255.903 105.692C259.17 107.695 264.967 110.54 270.869 113.597Z" fill="#FFA681"/>
<path d="M260.224 106.324C259.908 106.324 259.592 106.641 259.592 106.957C259.592 107.484 259.381 119.499 248.631 120.447C238.618 121.291 234.508 111.7 233.243 107.8C233.137 107.589 232.927 107.378 232.716 107.378H232.505C232.083 107.378 231.873 107.8 231.978 108.116C233.348 112.227 237.669 122.134 247.893 121.712C248.209 121.712 248.42 121.712 248.736 121.712C260.646 120.658 260.856 107.168 260.856 107.062C260.856 106.641 260.54 106.324 260.224 106.324Z" fill="white"/>
<path d="M267.813 42.4548C267.813 42.4548 277.404 57.421 276.35 72.9141C275.296 88.5126 277.72 106.43 263.808 105.587C249.896 104.849 225.128 111.173 217.223 99.0522C209.424 87.0371 267.813 42.4548 267.813 42.4548Z" fill="#18315B"/>
<path d="M271.395 69.963C271.395 69.963 273.925 92.5176 263.175 98.736C252.53 104.954 244.73 97.9982 244.73 97.9982C244.73 97.9982 267.285 66.485 271.395 69.963Z" fill="#000B29"/>
<path d="M227.025 69.8577C227.025 69.8577 223.23 64.6934 220.279 69.0146C217.434 73.2304 221.439 85.7724 228.5 82.716L227.025 69.8577Z" fill="#F97853"/>
<path d="M226.92 78.7108C226.709 78.7108 226.393 78.5 226.393 78.2892C225.339 74.3896 221.334 72.9141 221.229 72.8087C220.913 72.7033 220.807 72.3871 220.913 72.0709C221.018 71.7547 221.334 71.6493 221.65 71.7547C221.861 71.8601 226.288 73.5465 227.447 77.9731C227.552 78.2893 227.342 78.6054 227.026 78.7108C227.026 78.7108 227.025 78.7108 226.92 78.7108Z" fill="#EA5143"/>
<path d="M222.913 76.8139C222.808 76.8139 222.702 76.8139 222.597 76.7085C222.281 76.4977 222.281 76.1815 222.386 75.8653C222.386 75.8653 223.124 74.706 224.6 74.0736C224.916 73.9682 225.232 74.0736 225.337 74.3898C225.443 74.706 225.337 75.0221 225.021 75.1275C223.862 75.6545 223.335 76.4977 223.335 76.4977C223.229 76.7085 223.124 76.8139 222.913 76.8139Z" fill="#EA5143"/>
<path d="M266.549 69.8576C266.549 69.8576 270.343 64.6932 273.294 69.0145C276.14 73.2303 272.135 85.7723 265.073 82.7158L266.549 69.8576Z" fill="#F97853"/>
<path d="M266.549 78.7108C266.759 78.7108 267.076 78.5 267.076 78.2892C268.129 74.3896 272.135 72.9141 272.24 72.8087C272.556 72.7033 272.661 72.3871 272.556 72.0709C272.451 71.7547 272.134 71.6493 271.818 71.7547C271.608 71.8601 267.181 73.5465 266.022 77.9731C265.916 78.2893 266.127 78.6054 266.443 78.7108H266.549Z" fill="#EA5143"/>
<path d="M270.66 76.8137C270.765 76.8137 270.871 76.8137 270.976 76.7083C271.292 76.4976 271.292 76.1814 271.187 75.8652C271.187 75.8652 270.449 74.7058 268.974 74.0735C268.657 73.9681 268.341 74.0735 268.236 74.3896C268.13 74.7058 268.236 75.022 268.552 75.1274C269.711 75.6544 270.238 76.4976 270.238 76.4976C270.238 76.7083 270.449 76.8137 270.66 76.8137Z" fill="#EA5143"/>
<path d="M256.22 93.2555V105.692C256.22 105.692 252.531 112.016 247.472 112.437C242.413 112.859 237.986 106.957 237.986 106.957V94.0986L256.22 93.2555Z" fill="#FFA681"/>
<path d="M256.22 93.2555V98.736C252.847 102.425 246.84 103.795 237.986 102.53V94.0986L256.22 93.2555Z" fill="#F97853"/>
<path d="M269.287 61.3207C269.077 66.1689 268.55 72.1764 267.706 77.0246C267.496 78.1839 267.179 79.3433 266.969 80.3972C264.334 89.5666 257.799 105.271 239.46 98.736C231.345 95.8904 227.656 86.8263 225.97 77.6569C224.81 71.4386 224.705 65.1149 224.705 60.6883C224.81 56.0509 227.34 51.9405 231.24 49.6218C242.095 43.5088 253.478 45.8276 260.961 48.6732C266.231 50.5703 269.603 55.7347 269.287 61.3207Z" fill="#FFA681"/>
<path d="M238.723 70.5955C238.723 71.9656 238.09 73.0196 237.247 73.0196C236.404 73.0196 235.771 71.9656 235.771 70.5955C235.771 69.2253 236.404 68.1714 237.247 68.1714C237.985 68.1714 238.723 69.2253 238.723 70.5955Z" fill="#18315B"/>
<path d="M257.589 70.5955C257.589 71.9656 256.956 73.0196 256.113 73.0196C255.27 73.0196 254.638 71.9656 254.638 70.5955C254.638 69.2253 255.27 68.1714 256.113 68.1714C256.956 68.1714 257.589 69.2253 257.589 70.5955Z" fill="#18315B"/>
<path d="M234.192 63.4285C235.456 63.1124 237.986 62.48 240.726 62.48C241.464 62.48 241.991 63.1124 241.886 63.8501C241.78 64.3771 241.253 64.7987 240.726 64.7987C238.934 64.6933 234.086 65.0095 231.768 65.8526C231.768 65.4311 231.978 65.0095 232.295 64.5879C232.716 63.9555 233.349 63.6393 234.192 63.4285Z" fill="#18315B"/>
<path d="M258.854 63.4285C257.589 63.1124 255.06 62.48 252.319 62.48C251.582 62.48 251.055 63.1124 251.16 63.8501C251.265 64.3771 251.792 64.7987 252.319 64.7987C254.111 64.6933 258.959 65.0095 261.278 65.8526C261.278 65.4311 261.067 65.0095 260.751 64.5879C260.224 64.0609 259.592 63.6393 258.854 63.4285Z" fill="#18315B"/>
<path d="M246.944 81.5565C246.522 81.5565 245.995 81.4511 245.679 81.2403C245.363 81.0295 244.941 80.6079 244.836 79.7648C244.625 77.5515 245.152 70.8062 245.152 70.49C245.152 70.1738 245.468 69.963 245.784 69.963C246.101 69.963 246.311 70.2792 246.311 70.5954C246.311 70.7008 245.784 77.5515 245.995 79.6594C245.995 79.9756 246.206 80.1864 246.311 80.1864C246.838 80.5025 248.103 80.1864 248.63 79.9756C248.946 79.8702 249.263 79.9756 249.368 80.2918C249.473 80.6079 249.368 80.9241 249.052 81.0295C248.946 81.1349 247.998 81.5565 246.944 81.5565Z" fill="#F97853"/>
<path d="M239.461 85.2454C239.883 87.4587 241.358 91.6745 246.417 91.6745C251.476 91.6745 252.846 87.8802 253.268 85.2454H239.461Z" fill="white"/>
<path d="M246.312 95.0472C244.836 95.0472 243.572 94.3094 243.572 94.204C243.255 93.9932 243.255 93.677 243.361 93.3609C243.572 93.0447 243.888 93.0447 244.204 93.1501C244.204 93.1501 245.258 93.7825 246.312 93.7825C247.471 93.7825 248.525 93.1501 248.631 93.1501C248.947 92.9393 249.263 93.0447 249.474 93.3609C249.685 93.677 249.579 93.9932 249.263 94.204C249.158 94.3094 247.893 95.0472 246.312 95.0472Z" fill="#F97853"/>
<path d="M271.712 60.3721C271.501 60.8991 270.974 61.2152 270.342 61.426C270.342 62.6908 270.236 64.2717 270.131 65.7473C269.393 74.2843 267.285 75.7598 266.758 73.6519C266.442 72.2818 266.442 64.1663 266.653 61.6368C264.967 61.5314 263.491 61.2153 263.491 61.2153L261.488 52.889L260.751 61.1099C257.8 62.1638 250.844 60.4775 250.844 60.4775L248.525 52.2566L247.049 60.1613C242.623 62.3746 237.037 60.8991 237.037 60.8991L235.772 52.4674L232.821 60.8991C232.821 60.8991 223.335 64.2717 223.23 60.8991C223.125 58.8965 224.6 53.3106 225.865 48.9894C227.235 44.2466 230.291 40.2416 234.507 38.0283C246.312 31.7045 258.748 35.0772 263.069 37.6067C272.028 43.0873 271.712 60.3721 271.712 60.3721Z" fill="#18315B"/>
<path d="M228.5 43.0873C228.5 43.0873 220.701 52.3621 218.066 69.0145C215.536 85.667 211.953 97.8929 221.965 103.373C232.821 109.276 231.873 97.1551 231.662 93.7825C231.556 90.5152 222.282 81.4512 228.394 55.9455C230.397 47.8301 228.5 43.0873 228.5 43.0873Z" fill="#18315B"/>
<path d="M226.603 77.446C226.603 77.5514 226.603 78.2892 226.708 79.2378C226.708 79.8701 226.813 80.6079 226.813 81.5565C227.13 87.1424 228.289 96.8388 231.451 100.211C232.715 101.582 235.14 102.214 237.985 102.425V97.9981C234.929 96.5226 232.61 94.2039 230.818 91.3582C229.659 88.9341 227.762 85.1399 226.813 79.027L226.603 77.446Z" fill="#000B29"/>
<path d="M269.499 82.9267C269.499 83.6644 268.867 84.2968 268.129 84.2968C267.391 84.2968 266.759 83.6644 266.759 82.9267C266.759 82.1889 267.391 81.5565 268.129 81.5565C268.867 81.5565 269.499 82.1889 269.499 82.9267Z" fill="white"/>
<path d="M297.639 187.163C293.74 198.335 276.139 197.597 256.219 191.484H256.114C256.008 191.484 256.008 191.484 255.903 191.379L253.163 190.535C252.741 190.43 252.425 190.325 252.003 190.114C249.895 189.376 247.682 188.638 245.469 187.795C238.302 185.055 231.135 181.893 224.284 178.415V178.309L226.287 173.04L227.024 171.248C227.024 171.248 264.124 175.253 282.779 171.353C283.095 171.248 283.411 171.248 283.727 171.143C283.622 170.721 283.622 170.299 283.516 169.878C273.609 136.257 284.465 129.828 288.048 125.085C288.154 125.085 305.122 165.978 297.639 187.163Z" fill="#FFB400"/>
<path d="M291.632 176.729C291.526 176.729 291.421 176.834 291.315 176.834C290.999 176.834 290.788 176.623 290.578 176.412C289.208 173.567 284.359 171.775 282.884 171.353C283.2 171.248 283.516 171.248 283.832 171.143C283.727 170.721 283.727 170.3 283.622 169.878C285.519 170.51 290.367 172.407 292.053 175.675C292.159 176.096 292.053 176.518 291.632 176.729Z" fill="#A57200"/>
<path d="M239.673 175.358C232.085 175.358 225.972 174.937 225.445 174.937C225.023 174.937 224.707 174.515 224.707 174.094C224.707 173.672 225.129 173.356 225.55 173.356C225.866 173.356 253.585 175.358 264.652 170.932C265.073 170.721 265.495 170.932 265.706 171.353C265.917 171.775 265.706 172.197 265.284 172.407C259.171 174.726 248.526 175.358 239.673 175.358Z" fill="#A57200"/>
<path d="M253.163 190.43C259.487 188.638 265.284 186.952 268.656 185.898C273.294 184.422 277.088 179.785 278.88 175.78C279.09 175.358 279.512 175.148 279.934 175.358C280.355 175.569 280.566 175.991 280.355 176.412C278.458 180.734 274.348 185.793 269.183 187.374C266.759 188.111 263.07 189.271 258.854 190.43C256.957 191.062 254.955 191.062 253.163 190.43Z" fill="#A57200"/>
<path d="M270.237 185.055C212.902 204.342 195.301 191.695 195.301 191.695C191.401 156.809 205.629 125.506 205.629 125.506C209.845 132.463 214.588 144.478 214.588 144.478L215.853 171.248L215.747 171.986V172.302L215.537 174.094C215.642 174.094 215.747 174.199 215.958 174.199C233.243 177.888 264.967 173.778 264.967 173.778L270.237 185.055Z" fill="#FFB400"/>
<path d="M215.958 174.199C212.902 176.834 209.951 179.785 207.316 183.263C207.105 183.579 206.578 183.685 206.157 183.369C205.84 183.158 205.735 182.631 206.051 182.315C209.002 178.415 212.375 175.148 215.853 172.302L215.642 174.094C215.642 174.199 215.748 174.199 215.958 174.199Z" fill="#A57200"/>
<path d="M264.967 173.778C264.967 173.778 271.291 159.338 280.987 160.603L283.938 171.037C278.668 173.251 277.93 182.315 270.342 184.949L264.967 173.778Z" fill="#FFA681"/>
<path d="M227.235 171.143C227.235 171.143 223.23 161.762 212.691 159.022C202.151 156.282 195.406 161.235 194.774 163.132C194.036 165.03 198.779 163.238 198.779 163.238C198.779 163.238 195.722 164.081 193.93 166.927C192.139 169.772 198.146 166.716 198.146 166.716C198.146 166.716 193.825 168.613 193.298 170.405C192.771 172.196 198.462 169.245 199.516 169.245C199.516 169.245 194.457 171.248 194.457 173.04C194.457 174.831 200.254 171.88 204.575 172.091C208.897 172.302 215.536 174.094 215.536 174.094C219.12 174.726 222.493 175.253 225.549 175.358L227.235 171.143Z" fill="#FFA681"/>
<path d="M464.479 331.133V331.87C464.479 336.297 460.896 339.88 456.469 339.88H39.1038C34.6772 339.88 31.0938 336.297 31.0938 331.87V331.133C31.0938 326.706 34.6772 323.123 39.1038 323.123H456.364C460.791 323.123 464.479 326.706 464.479 331.133Z" fill="#A57200"/>
<path d="M464.479 331.133V331.554H30.9883V331.133C30.9883 326.706 34.5717 323.123 38.9983 323.123H456.259C460.791 323.123 464.479 326.706 464.479 331.133Z" fill="#FFB400"/>
<path d="M311.551 297.828H180.545C177.383 297.828 174.854 295.298 174.854 292.136V223.524C174.854 220.362 177.383 217.833 180.545 217.833H311.551C314.713 217.833 317.243 220.362 317.243 223.524V292.136C317.243 295.298 314.713 297.828 311.551 297.828Z" fill="#18315B"/>
<path d="M257.062 297.722H235.034V322.912H257.062V297.722Z" fill="#000B29"/>
<path d="M245.785 269.793C251.839 269.793 256.746 264.885 256.746 258.832C256.746 252.778 251.839 247.87 245.785 247.87C239.732 247.87 234.824 252.778 234.824 258.832C234.824 264.885 239.732 269.793 245.785 269.793Z" fill="#1D567E"/>
<path d="M274.136 322.806H217.223V320.909C217.223 317.01 220.385 313.953 224.179 313.953H267.075C270.974 313.953 274.031 317.115 274.031 320.909V322.806H274.136Z" fill="#18315B"/>
</svg>
