<svg width="121" height="57" viewBox="0 0 121 57" fill="none" xmlns="http://www.w3.org/2000/svg">
<path d="M13.0913 39.3265C13.6169 43.7055 15.9819 46.3835 20.5066 46.3835C25.0312 46.3835 26.541 44.3155 26.541 41.3635C26.541 37.4653 24.1521 35.7127 17.3675 33.6912C4.96898 30.0723 1.24702 24.9488 1.24702 17.4058C1.24702 6.54888 9.41716 0.939453 19.8425 0.939453C32.1693 0.939453 38.5621 7.35539 39.1163 17.3283H26.1301C25.7288 13.9575 24.3002 11.1812 19.9189 11.1812C16.5362 11.1812 14.7063 12.8666 14.7063 15.7514C14.7063 19.0912 16.9232 20.0632 23.5835 22.1053C36.7178 26.1483 40.3681 31.5405 40.3681 39.7246C40.3681 49.9818 33.3208 56.7597 20.1196 56.7597C7.80702 56.7597 0.530342 50.0801 0 39.3265H13.0913Z" fill="black"/>
<path d="M63.0918 23.3101L69.1071 29.8191C69.2361 29.969 69.3173 30.1241 69.5419 29.8811L75.2084 23.7288V23.3101H63.0918ZM71.1425 34.6013H75.1989V30.1965C73.8515 31.6647 72.5042 33.133 71.1425 34.6013ZM75.1989 14.9554V3.65381H41.085V55.6379H75.1989V44.3467H54.6541V34.6013H67.5543C65.4138 32.2748 63.2542 29.9483 61.1185 27.6218C60.8701 27.3478 60.7506 27.3737 60.5165 27.6218C56.742 31.7164 52.9659 35.8076 49.1882 39.8953C48.9541 40.1487 48.8394 40.1952 48.5862 39.8953C47.7835 38.9803 46.9522 38.0962 46.1208 37.2121C45.9488 37.0312 45.9154 36.9433 46.1208 36.7365C50.2616 32.2558 54.4025 27.7752 58.5433 23.2945H54.6493V14.9399L75.1989 14.9554Z" fill="black"/>
<path d="M96.8535 3.65381H76.8773V21.9503L81.1774 17.256C81.1057 17.1061 80.9815 17.1733 80.8907 17.1733C79.9877 17.1733 79.0847 17.1733 78.1817 17.1733C77.8759 17.1733 77.852 17.0492 77.852 16.7855C77.852 15.5086 77.852 14.2316 77.852 12.9546C77.852 12.6185 77.9284 12.5358 78.2485 12.5358C81.5214 12.5358 84.7942 12.5358 88.0671 12.5358C88.2199 12.5358 88.368 12.5358 88.5209 12.5048V24.039L84.4884 24.0752C84.2448 24.0752 84.2639 23.9356 84.2639 23.765V20.4097C84.0966 20.5803 83.9724 20.6941 83.8625 20.8181C81.5277 23.3514 79.1898 25.8813 76.8486 28.4077V55.6327H96.6338C112.372 55.6327 121.001 44.0572 121.001 29.0694C121.001 14.0816 112.147 3.65381 96.8535 3.65381ZM95.7068 44.6052H90.3126V14.6865H95.8693C103.557 14.6865 106.481 20.4666 106.481 29.0746C106.5 38.8096 103.347 44.6052 95.7068 44.6052Z" fill="#FFB400"/>
</svg>
