<svg width="82" height="50" viewBox="0 0 82 50" fill="none" xmlns="http://www.w3.org/2000/svg">
<path d="M4.02907 43.2649C3.99958 43.0158 3.87996 42.8225 3.67021 42.6848C3.46047 42.5472 3.20321 42.4784 2.89842 42.4784C2.67557 42.4784 2.48058 42.5144 2.31344 42.5865C2.14794 42.6586 2.01849 42.7578 1.92509 42.8839C1.83332 43.0101 1.78744 43.1535 1.78744 43.3141C1.78744 43.4484 1.81939 43.564 1.8833 43.6606C1.94885 43.7557 2.03241 43.8351 2.13401 43.8991C2.2356 43.9613 2.34211 44.0129 2.45354 44.0539C2.56497 44.0932 2.66738 44.1252 2.76078 44.1498L3.27203 44.2874C3.40312 44.3218 3.54896 44.3693 3.70954 44.43C3.87176 44.4906 4.02661 44.5733 4.17409 44.6782C4.3232 44.7814 4.4461 44.9142 4.54278 45.0764C4.63946 45.2386 4.6878 45.4377 4.6878 45.6737C4.6878 45.9457 4.61652 46.1915 4.47396 46.4111C4.33304 46.6306 4.12657 46.8051 3.85456 46.9346C3.58419 47.064 3.25564 47.1288 2.86893 47.1288C2.50843 47.1288 2.19628 47.0706 1.93246 46.9543C1.67028 46.8379 1.46381 46.6757 1.31306 46.4676C1.16395 46.2595 1.07956 46.0178 1.05989 45.7425H1.68912C1.70551 45.9326 1.76942 46.0899 1.88084 46.2144C1.99391 46.3373 2.13647 46.4291 2.30852 46.4897C2.48222 46.5487 2.66902 46.5782 2.86893 46.5782C3.10161 46.5782 3.31054 46.5405 3.4957 46.4651C3.68087 46.3881 3.82752 46.2816 3.93567 46.1456C4.04382 46.008 4.09789 45.8474 4.09789 45.6638C4.09789 45.4967 4.05119 45.3607 3.95779 45.2558C3.86439 45.151 3.74149 45.0657 3.5891 45.0002C3.43671 44.9347 3.27203 44.8773 3.09506 44.8281L2.47566 44.6512C2.08239 44.5381 1.77106 44.3767 1.54165 44.167C1.31224 43.9572 1.19754 43.6828 1.19754 43.3436C1.19754 43.0617 1.27373 42.8159 1.42613 42.6062C1.58016 42.3948 1.78662 42.2309 2.04552 42.1146C2.30606 41.9966 2.59692 41.9376 2.91809 41.9376C3.24253 41.9376 3.53093 41.9958 3.78328 42.1121C4.03563 42.2268 4.23554 42.3841 4.38301 42.5841C4.53213 42.784 4.61078 43.0109 4.61897 43.2649H4.02907ZM7.19427 47.1189C6.8305 47.1189 6.5167 47.0386 6.25288 46.8781C5.9907 46.7158 5.78833 46.4897 5.64577 46.1997C5.50485 45.908 5.43439 45.5688 5.43439 45.1821C5.43439 44.7954 5.50485 44.4545 5.64577 44.1596C5.78833 43.863 5.98661 43.632 6.24059 43.4665C6.49622 43.2993 6.79445 43.2157 7.13528 43.2157C7.33191 43.2157 7.52609 43.2485 7.71781 43.3141C7.90953 43.3796 8.08404 43.4861 8.24135 43.6336C8.39865 43.7794 8.52401 43.9728 8.61741 44.2137C8.71081 44.4545 8.75751 44.7511 8.75751 45.1034V45.3492H5.84732V44.8478H8.16761C8.16761 44.6348 8.125 44.4447 8.0398 44.2776C7.95623 44.1104 7.83661 43.9785 7.68094 43.8818C7.52691 43.7852 7.34502 43.7368 7.13528 43.7368C6.90423 43.7368 6.70432 43.7942 6.53554 43.9089C6.3684 44.0219 6.23977 44.1694 6.14965 44.3513C6.05953 44.5332 6.01446 44.7282 6.01446 44.9363V45.2706C6.01446 45.5557 6.06362 45.7974 6.16194 45.9957C6.26189 46.1923 6.40036 46.3422 6.57733 46.4455C6.7543 46.5471 6.95995 46.5979 7.19427 46.5979C7.34666 46.5979 7.4843 46.5766 7.6072 46.5339C7.73174 46.4897 7.83907 46.4242 7.92919 46.3373C8.01931 46.2488 8.08895 46.139 8.13811 46.008L8.69852 46.1653C8.63953 46.3553 8.54039 46.5225 8.40111 46.6667C8.26183 46.8092 8.08977 46.9207 7.88495 47.001C7.68012 47.0796 7.44989 47.1189 7.19427 47.1189ZM10.7509 47.1288C10.5117 47.1288 10.2945 47.0837 10.0995 46.9936C9.90454 46.9018 9.74969 46.7699 9.63499 46.5979C9.52029 46.4242 9.46294 46.2144 9.46294 45.9686C9.46294 45.7523 9.50554 45.577 9.59075 45.4426C9.67596 45.3066 9.78984 45.2001 9.9324 45.1231C10.075 45.0461 10.2323 44.9887 10.4043 44.951C10.578 44.9117 10.7525 44.8806 10.9279 44.8576C11.1573 44.8281 11.3433 44.806 11.4858 44.7913C11.63 44.7749 11.7349 44.7479 11.8004 44.7102C11.8676 44.6725 11.9012 44.6069 11.9012 44.5135V44.4939C11.9012 44.2514 11.8348 44.0629 11.7021 43.9285C11.571 43.7942 11.3719 43.727 11.1048 43.727C10.8279 43.727 10.6108 43.7876 10.4535 43.9089C10.2962 44.0301 10.1856 44.1596 10.1217 44.2972L9.57108 44.1006C9.6694 43.8712 9.80049 43.6926 9.96435 43.5648C10.1299 43.4353 10.3101 43.3452 10.5051 43.2944C10.7017 43.242 10.8951 43.2157 11.0852 43.2157C11.2064 43.2157 11.3457 43.2305 11.503 43.26C11.662 43.2878 11.8152 43.346 11.9626 43.4345C12.1118 43.523 12.2355 43.6565 12.3338 43.8351C12.4321 44.0138 12.4813 44.253 12.4813 44.5529V47.0403H11.9012V46.529H11.8717C11.8324 46.611 11.7668 46.6986 11.6751 46.792C11.5833 46.8854 11.4612 46.9649 11.3088 47.0305C11.1564 47.096 10.9705 47.1288 10.7509 47.1288ZM10.8394 46.6077C11.0688 46.6077 11.2621 46.5626 11.4194 46.4725C11.5784 46.3824 11.698 46.266 11.7783 46.1235C11.8602 45.9809 11.9012 45.831 11.9012 45.6737V45.1428C11.8766 45.1723 11.8225 45.1993 11.739 45.2239C11.657 45.2468 11.562 45.2673 11.4539 45.2853C11.3473 45.3017 11.2433 45.3165 11.1417 45.3296C11.0417 45.341 10.9606 45.3509 10.8984 45.3591C10.7476 45.3787 10.6067 45.4107 10.4756 45.4549C10.3462 45.4975 10.2413 45.5622 10.161 45.6491C10.0823 45.7343 10.043 45.8506 10.043 45.9981C10.043 46.1997 10.1176 46.3521 10.2667 46.4553C10.4174 46.5569 10.6083 46.6077 10.8394 46.6077ZM13.54 47.0403V43.2649H14.1004V43.8351H14.1398C14.2086 43.6483 14.3331 43.4968 14.5134 43.3804C14.6936 43.2641 14.8968 43.2059 15.1229 43.2059C15.1655 43.2059 15.2188 43.2067 15.2827 43.2084C15.3466 43.21 15.3949 43.2125 15.4277 43.2157V43.8056C15.408 43.8007 15.363 43.7934 15.2925 43.7835C15.2237 43.7721 15.1508 43.7663 15.0738 43.7663C14.8902 43.7663 14.7264 43.8048 14.5822 43.8818C14.4396 43.9572 14.3266 44.0621 14.243 44.1965C14.1611 44.3292 14.1201 44.4808 14.1201 44.6512V47.0403H13.54ZM17.5342 47.1189C17.1802 47.1189 16.8754 47.0354 16.6198 46.8682C16.3642 46.7011 16.1675 46.4709 16.0299 46.1776C15.8923 45.8842 15.8234 45.5491 15.8234 45.1723C15.8234 44.7888 15.8939 44.4504 16.0348 44.1571C16.1774 43.8622 16.3757 43.632 16.6296 43.4665C16.8853 43.2993 17.1835 43.2157 17.5243 43.2157C17.7898 43.2157 18.029 43.2649 18.242 43.3632C18.4551 43.4615 18.6296 43.5992 18.7656 43.7762C18.9016 43.9531 18.986 44.1596 19.0187 44.3956H18.4387C18.3944 44.2235 18.2961 44.0711 18.1437 43.9384C17.993 43.804 17.7898 43.7368 17.5342 43.7368C17.308 43.7368 17.1098 43.7958 16.9393 43.9138C16.7706 44.0301 16.6387 44.1948 16.5436 44.4078C16.4502 44.6192 16.4035 44.8675 16.4035 45.1526C16.4035 45.4443 16.4494 45.6983 16.5412 45.9146C16.6346 46.1308 16.7656 46.2988 16.9344 46.4184C17.1048 46.538 17.3048 46.5979 17.5342 46.5979C17.6849 46.5979 17.8217 46.5716 17.9446 46.5192C18.0675 46.4668 18.1716 46.3914 18.2568 46.2931C18.342 46.1948 18.4026 46.0768 18.4387 45.9391H19.0187C18.986 46.162 18.9049 46.3627 18.7754 46.5413C18.6476 46.7183 18.478 46.8592 18.2666 46.9641C18.0569 47.0673 17.8127 47.1189 17.5342 47.1189ZM20.4468 44.7692V47.0403H19.8667V42.0064H20.4468V43.8548H20.496C20.5844 43.6598 20.7172 43.505 20.8941 43.3903C21.0728 43.2739 21.3104 43.2157 21.6069 43.2157C21.8642 43.2157 22.0895 43.2674 22.2829 43.3706C22.4762 43.4722 22.6262 43.6287 22.7327 43.8401C22.8408 44.0498 22.8949 44.3169 22.8949 44.6413V47.0403H22.3148V44.6807C22.3148 44.3808 22.237 44.1489 22.0813 43.9851C21.9273 43.8196 21.7135 43.7368 21.4398 43.7368C21.2497 43.7368 21.0793 43.777 20.9286 43.8573C20.7794 43.9376 20.6615 44.0547 20.5746 44.2087C20.4894 44.3628 20.4468 44.5496 20.4468 44.7692ZM25.9814 47.0403V42.0064H29.0194V42.5472H26.591V44.2481H28.8621V44.7888H26.591V46.4995H29.0588V47.0403H25.9814ZM30.6196 44.7692V47.0403H30.0395V43.2649H30.5999V43.8548H30.649C30.7375 43.6631 30.8719 43.5091 31.0521 43.3927C31.2324 43.2747 31.4651 43.2157 31.7502 43.2157C32.0058 43.2157 32.2295 43.2682 32.4212 43.3731C32.6129 43.4763 32.762 43.6336 32.8686 43.845C32.9751 44.0547 33.0283 44.3202 33.0283 44.6413V47.0403H32.4482V44.6807C32.4482 44.3841 32.3712 44.153 32.2172 43.9875C32.0632 43.8204 31.8518 43.7368 31.5831 43.7368C31.3979 43.7368 31.2324 43.777 31.0866 43.8573C30.9424 43.9376 30.8285 44.0547 30.7449 44.2087C30.6613 44.3628 30.6196 44.5496 30.6196 44.7692ZM35.6122 48.5347C35.332 48.5347 35.0911 48.4987 34.8896 48.4266C34.688 48.3561 34.5201 48.2627 34.3857 48.1464C34.253 48.0316 34.1473 47.9088 34.0686 47.7777L34.5307 47.4532C34.5832 47.522 34.6495 47.6007 34.7298 47.6892C34.8101 47.7793 34.9199 47.8571 35.0592 47.9227C35.2001 47.9899 35.3845 48.0235 35.6122 48.0235C35.917 48.0235 36.1685 47.9497 36.3668 47.8022C36.5651 47.6548 36.6642 47.4237 36.6642 47.1091V46.3422H36.6151C36.5725 46.4111 36.5118 46.4963 36.4332 46.5979C36.3562 46.6978 36.2447 46.7871 36.0989 46.8658C35.9547 46.9428 35.7597 46.9813 35.5139 46.9813C35.2091 46.9813 34.9355 46.9092 34.693 46.765C34.4521 46.6208 34.2612 46.4111 34.1203 46.1358C33.981 45.8605 33.9113 45.5262 33.9113 45.1329C33.9113 44.7462 33.9793 44.4095 34.1153 44.1227C34.2513 43.8343 34.4406 43.6115 34.6831 43.4542C34.9256 43.2952 35.2058 43.2157 35.5237 43.2157C35.7695 43.2157 35.9645 43.2567 36.1087 43.3386C36.2546 43.4189 36.366 43.5107 36.443 43.6139C36.5217 43.7155 36.5823 43.7991 36.6249 43.8646H36.6839V43.2649H37.2443V47.1484C37.2443 47.4729 37.1705 47.7367 37.0231 47.9399C36.8772 48.1447 36.6806 48.2946 36.4332 48.3897C36.1874 48.4864 35.9137 48.5347 35.6122 48.5347ZM35.5926 46.4602C35.8252 46.4602 36.0219 46.407 36.1825 46.3004C36.343 46.1939 36.4651 46.0407 36.5487 45.8408C36.6323 45.6409 36.674 45.4017 36.674 45.1231C36.674 44.8511 36.6331 44.611 36.5511 44.4029C36.4692 44.1948 36.348 44.0318 36.1874 43.9138C36.0268 43.7958 35.8285 43.7368 35.5926 43.7368C35.3468 43.7368 35.1419 43.7991 34.9781 43.9236C34.8159 44.0482 34.6938 44.2153 34.6118 44.425C34.5316 44.6348 34.4914 44.8675 34.4914 45.1231C34.4914 45.3853 34.5324 45.6171 34.6143 45.8187C34.6979 46.0186 34.8208 46.1759 34.983 46.2906C35.1469 46.4037 35.35 46.4602 35.5926 46.4602ZM38.3061 47.0403V43.2649H38.8862V47.0403H38.3061ZM38.6011 42.6357C38.488 42.6357 38.3905 42.5972 38.3086 42.5202C38.2283 42.4431 38.1881 42.3506 38.1881 42.2424C38.1881 42.1343 38.2283 42.0417 38.3086 41.9647C38.3905 41.8876 38.488 41.8491 38.6011 41.8491C38.7141 41.8491 38.8108 41.8876 38.8911 41.9647C38.973 42.0417 39.014 42.1343 39.014 42.2424C39.014 42.3506 38.973 42.4431 38.8911 42.5202C38.8108 42.5972 38.7141 42.6357 38.6011 42.6357ZM40.5287 44.7692V47.0403H39.9486V43.2649H40.509V43.8548H40.5582C40.6467 43.6631 40.781 43.5091 40.9613 43.3927C41.1415 43.2747 41.3742 43.2157 41.6593 43.2157C41.915 43.2157 42.1386 43.2682 42.3304 43.3731C42.5221 43.4763 42.6712 43.6336 42.7777 43.845C42.8842 44.0547 42.9375 44.3202 42.9375 44.6413V47.0403H42.3574V44.6807C42.3574 44.3841 42.2804 44.153 42.1263 43.9875C41.9723 43.8204 41.7609 43.7368 41.4922 43.7368C41.307 43.7368 41.1415 43.777 40.9957 43.8573C40.8515 43.9376 40.7376 44.0547 40.654 44.2087C40.5705 44.3628 40.5287 44.5496 40.5287 44.7692ZM45.5803 47.1189C45.2166 47.1189 44.9028 47.0386 44.639 46.8781C44.3768 46.7158 44.1744 46.4897 44.0318 46.1997C43.8909 45.908 43.8205 45.5688 43.8205 45.1821C43.8205 44.7954 43.8909 44.4545 44.0318 44.1596C44.1744 43.863 44.3727 43.632 44.6267 43.4665C44.8823 43.2993 45.1805 43.2157 45.5214 43.2157C45.718 43.2157 45.9122 43.2485 46.1039 43.3141C46.2956 43.3796 46.4701 43.4861 46.6274 43.6336C46.7847 43.7794 46.9101 43.9728 47.0035 44.2137C47.0969 44.4545 47.1436 44.7511 47.1436 45.1034V45.3492H44.2334V44.8478H46.5537C46.5537 44.6348 46.5111 44.4447 46.4259 44.2776C46.3423 44.1104 46.2227 43.9785 46.067 43.8818C45.913 43.7852 45.7311 43.7368 45.5214 43.7368C45.2903 43.7368 45.0904 43.7942 44.9216 43.9089C44.7545 44.0219 44.6258 44.1694 44.5357 44.3513C44.4456 44.5332 44.4005 44.7282 44.4005 44.9363V45.2706C44.4005 45.5557 44.4497 45.7974 44.548 45.9957C44.648 46.1923 44.7864 46.3422 44.9634 46.4455C45.1404 46.5471 45.346 46.5979 45.5803 46.5979C45.7327 46.5979 45.8704 46.5766 45.9933 46.5339C46.1178 46.4897 46.2251 46.4242 46.3153 46.3373C46.4054 46.2488 46.475 46.139 46.5242 46.008L47.0846 46.1653C47.0256 46.3553 46.9265 46.5225 46.7872 46.6667C46.6479 46.8092 46.4758 46.9207 46.271 47.001C46.0662 47.0796 45.836 47.1189 45.5803 47.1189Z" fill="white"/>
<path d="M51.6047 47.0403H50.0513V42.0064H51.6735C52.1619 42.0064 52.5797 42.1072 52.9271 42.3088C53.2745 42.5087 53.5408 42.7963 53.7259 43.1715C53.9111 43.5451 54.0037 43.9925 54.0037 44.5135C54.0037 45.0379 53.9103 45.4893 53.7235 45.8679C53.5367 46.2447 53.2646 46.5348 52.9074 46.738C52.5502 46.9395 52.116 47.0403 51.6047 47.0403ZM50.6609 46.4995H51.5654C51.9816 46.4995 52.3265 46.4192 52.6002 46.2587C52.8738 46.0981 53.0778 45.8695 53.2122 45.5729C53.3466 45.2763 53.4138 44.9232 53.4138 44.5135C53.4138 44.1072 53.3474 43.7573 53.2147 43.464C53.0819 43.169 52.8837 42.9429 52.6199 42.7856C52.356 42.6267 52.0275 42.5472 51.6342 42.5472H50.6609V46.4995ZM54.9475 47.0403V43.2649H55.5276V47.0403H54.9475ZM55.2425 42.6357C55.1294 42.6357 55.0319 42.5972 54.95 42.5202C54.8697 42.4431 54.8295 42.3506 54.8295 42.2424C54.8295 42.1343 54.8697 42.0417 54.95 41.9647C55.0319 41.8876 55.1294 41.8491 55.2425 41.8491C55.3555 41.8491 55.4522 41.8876 55.5325 41.9647C55.6144 42.0417 55.6554 42.1343 55.6554 42.2424C55.6554 42.3506 55.6144 42.4431 55.5325 42.5202C55.4522 42.5972 55.3555 42.6357 55.2425 42.6357ZM59.2642 44.1104L58.7432 44.2579C58.7104 44.1711 58.6621 44.0867 58.5981 44.0047C58.5359 43.9212 58.4507 43.8524 58.3425 43.7983C58.2344 43.7442 58.0959 43.7172 57.9271 43.7172C57.6961 43.7172 57.5036 43.7704 57.3495 43.8769C57.1971 43.9818 57.1209 44.1153 57.1209 44.2776C57.1209 44.4218 57.1734 44.5357 57.2782 44.6192C57.3831 44.7028 57.547 44.7724 57.7698 44.8281L58.3302 44.9658C58.6678 45.0477 58.9193 45.1731 59.0848 45.3419C59.2503 45.509 59.3331 45.7245 59.3331 45.9883C59.3331 46.2046 59.2708 46.3979 59.1463 46.5684C59.0234 46.7388 58.8513 46.8731 58.6301 46.9715C58.4089 47.0698 58.1516 47.1189 57.8583 47.1189C57.4732 47.1189 57.1545 47.0354 56.9022 46.8682C56.6498 46.7011 56.4901 46.4569 56.4229 46.1358L56.9735 45.9981C57.0259 46.2013 57.125 46.3537 57.2709 46.4553C57.4183 46.5569 57.6109 46.6077 57.8485 46.6077C58.1189 46.6077 58.3335 46.5503 58.4925 46.4356C58.653 46.3193 58.7333 46.18 58.7333 46.0178C58.7333 45.8867 58.6875 45.7769 58.5957 45.6884C58.5039 45.5983 58.363 45.5311 58.1729 45.4869L57.5437 45.3394C57.1979 45.2575 56.944 45.1305 56.7817 44.9584C56.6212 44.7847 56.5409 44.5676 56.5409 44.3071C56.5409 44.094 56.6007 43.9056 56.7203 43.7417C56.8415 43.5779 57.0062 43.4493 57.2143 43.3558C57.4241 43.2624 57.6617 43.2157 57.9271 43.2157C58.3007 43.2157 58.5941 43.2977 58.8071 43.4615C59.0217 43.6254 59.1741 43.8417 59.2642 44.1104ZM61.74 47.1189C61.3861 47.1189 61.0813 47.0354 60.8256 46.8682C60.57 46.7011 60.3734 46.4709 60.2357 46.1776C60.0981 45.8842 60.0293 45.5491 60.0293 45.1723C60.0293 44.7888 60.0997 44.4504 60.2407 44.1571C60.3832 43.8622 60.5815 43.632 60.8355 43.4665C61.0911 43.2993 61.3893 43.2157 61.7302 43.2157C61.9956 43.2157 62.2349 43.2649 62.4479 43.3632C62.6609 43.4615 62.8354 43.5992 62.9714 43.7762C63.1074 43.9531 63.1918 44.1596 63.2246 44.3956H62.6445C62.6003 44.2235 62.502 44.0711 62.3496 43.9384C62.1988 43.804 61.9956 43.7368 61.74 43.7368C61.5139 43.7368 61.3156 43.7958 61.1452 43.9138C60.9764 44.0301 60.8445 44.1948 60.7494 44.4078C60.656 44.6192 60.6093 44.8675 60.6093 45.1526C60.6093 45.4443 60.6552 45.6983 60.747 45.9146C60.8404 46.1308 60.9715 46.2988 61.1403 46.4184C61.3107 46.538 61.5106 46.5979 61.74 46.5979C61.8907 46.5979 62.0276 46.5716 62.1505 46.5192C62.2734 46.4668 62.3774 46.3914 62.4626 46.2931C62.5478 46.1948 62.6085 46.0768 62.6445 45.9391H63.2246C63.1918 46.162 63.1107 46.3627 62.9812 46.5413C62.8534 46.7183 62.6838 46.8592 62.4725 46.9641C62.2627 47.0673 62.0186 47.1189 61.74 47.1189ZM65.6063 47.1189C65.2655 47.1189 64.9664 47.0378 64.7092 46.8756C64.4535 46.7134 64.2536 46.4864 64.1094 46.1948C63.9669 45.9031 63.8956 45.5622 63.8956 45.1723C63.8956 44.779 63.9669 44.4357 64.1094 44.1424C64.2536 43.8491 64.4535 43.6213 64.7092 43.4591C64.9664 43.2969 65.2655 43.2157 65.6063 43.2157C65.9471 43.2157 66.2454 43.2969 66.501 43.4591C66.7583 43.6213 66.9582 43.8491 67.1007 44.1424C67.2449 44.4357 67.317 44.779 67.317 45.1723C67.317 45.5622 67.2449 45.9031 67.1007 46.1948C66.9582 46.4864 66.7583 46.7134 66.501 46.8756C66.2454 47.0378 65.9471 47.1189 65.6063 47.1189ZM65.6063 46.5979C65.8652 46.5979 66.0782 46.5315 66.2454 46.3988C66.4125 46.266 66.5362 46.0915 66.6165 45.8752C66.6968 45.6589 66.737 45.4246 66.737 45.1723C66.737 44.9199 66.6968 44.6848 66.6165 44.4668C66.5362 44.2489 66.4125 44.0727 66.2454 43.9384C66.0782 43.804 65.8652 43.7368 65.6063 43.7368C65.3474 43.7368 65.1344 43.804 64.9673 43.9384C64.8001 44.0727 64.6764 44.2489 64.5961 44.4668C64.5158 44.6848 64.4757 44.9199 64.4757 45.1723C64.4757 45.4246 64.5158 45.6589 64.5961 45.8752C64.6764 46.0915 64.8001 46.266 64.9673 46.3988C65.1344 46.5315 65.3474 46.5979 65.6063 46.5979ZM71.1545 43.2649L69.7584 47.0403H69.1685L67.7724 43.2649H68.4016L69.4438 46.2734H69.4831L70.5252 43.2649H71.1545ZM73.3678 47.1189C73.0041 47.1189 72.6903 47.0386 72.4265 46.8781C72.1643 46.7158 71.9619 46.4897 71.8193 46.1997C71.6784 45.908 71.608 45.5688 71.608 45.1821C71.608 44.7954 71.6784 44.4545 71.8193 44.1596C71.9619 43.863 72.1602 43.632 72.4142 43.4665C72.6698 43.2993 72.968 43.2157 73.3088 43.2157C73.5055 43.2157 73.6997 43.2485 73.8914 43.3141C74.0831 43.3796 74.2576 43.4861 74.4149 43.6336C74.5722 43.7794 74.6976 43.9728 74.791 44.2137C74.8844 44.4545 74.9311 44.7511 74.9311 45.1034V45.3492H72.0209V44.8478H74.3412C74.3412 44.6348 74.2986 44.4447 74.2134 44.2776C74.1298 44.1104 74.0102 43.9785 73.8545 43.8818C73.7005 43.7852 73.5186 43.7368 73.3088 43.7368C73.0778 43.7368 72.8779 43.7942 72.7091 43.9089C72.542 44.0219 72.4133 44.1694 72.3232 44.3513C72.2331 44.5332 72.188 44.7282 72.188 44.9363V45.2706C72.188 45.5557 72.2372 45.7974 72.3355 45.9957C72.4355 46.1923 72.5739 46.3422 72.7509 46.4455C72.9279 46.5471 73.1335 46.5979 73.3678 46.5979C73.5202 46.5979 73.6579 46.5766 73.7808 46.5339C73.9053 46.4897 74.0126 46.4242 74.1028 46.3373C74.1929 46.2488 74.2625 46.139 74.3117 46.008L74.8721 46.1653C74.8131 46.3553 74.714 46.5225 74.5747 46.6667C74.4354 46.8092 74.2633 46.9207 74.0585 47.001C73.8537 47.0796 73.6235 47.1189 73.3678 47.1189ZM75.8135 47.0403V43.2649H76.3739V43.8351H76.4132C76.482 43.6483 76.6066 43.4968 76.7868 43.3804C76.9671 43.2641 77.1703 43.2059 77.3964 43.2059C77.439 43.2059 77.4922 43.2067 77.5561 43.2084C77.6201 43.21 77.6684 43.2125 77.7012 43.2157V43.8056C77.6815 43.8007 77.6364 43.7934 77.566 43.7835C77.4972 43.7721 77.4242 43.7663 77.3472 43.7663C77.1637 43.7663 76.9998 43.8048 76.8556 43.8818C76.7131 43.9572 76.6 44.0621 76.5164 44.1965C76.4345 44.3292 76.3935 44.4808 76.3935 44.6512V47.0403H75.8135ZM78.8773 48.456C78.779 48.456 78.6913 48.4479 78.6143 48.4315C78.5373 48.4167 78.484 48.402 78.4545 48.3872L78.602 47.876C78.7429 47.912 78.8674 47.9251 78.9756 47.9153C79.0837 47.9055 79.1796 47.8571 79.2632 47.7703C79.3484 47.6851 79.4262 47.5466 79.4967 47.3549L79.6048 47.0599L78.2087 43.2649H78.838L79.8801 46.2734H79.9194L80.9616 43.2649H81.5908L79.9883 47.5909C79.9162 47.7859 79.8269 47.9473 79.7204 48.0751C79.6138 48.2045 79.4901 48.3004 79.3492 48.3626C79.2099 48.4249 79.0526 48.456 78.8773 48.456Z" fill="#FFB400"/>
<path d="M8.72755 25.5914C9.07793 28.5107 10.6546 30.2961 13.671 30.2961C16.6875 30.2961 17.694 28.9174 17.694 26.9494C17.694 24.3506 16.1014 23.1822 11.5783 21.8345C3.31265 19.4219 0.831348 16.0062 0.831348 10.9776C0.831348 3.73961 6.27811 0 13.2283 0C21.4462 0 25.7081 4.27729 26.0776 10.9259H17.4201C17.1525 8.67867 16.2001 6.82781 13.2793 6.82781C11.0241 6.82781 9.80417 7.95142 9.80417 9.87465C9.80417 12.1012 11.2821 12.7492 15.7223 14.1106C24.4786 16.8059 26.9121 20.4007 26.9121 25.8568C26.9121 32.6949 22.2139 37.2135 13.413 37.2135C5.20468 37.2135 0.353562 32.7604 0 25.5914H8.72755Z" fill="white"/>
<path d="M42.0612 14.9137L46.0714 19.2531C46.1574 19.353 46.2116 19.4564 46.3613 19.2944L50.139 15.1929V14.9137H42.0612ZM47.4284 22.4412H50.1326V19.5047C49.2344 20.4835 48.3362 21.4624 47.4284 22.4412ZM50.1326 9.34395V1.80957H27.39V36.4656H50.1326V28.9382H36.4361V22.4412H45.0362C43.6093 20.8902 42.1695 19.3392 40.7457 17.7882C40.5801 17.6056 40.5005 17.6228 40.3444 17.7882C37.828 20.518 35.3106 23.2454 32.7922 25.9706C32.6361 26.1395 32.5597 26.1705 32.3908 25.9706C31.8557 25.3605 31.3015 24.7712 30.7473 24.1818C30.6326 24.0611 30.6103 24.0026 30.7473 23.8647C33.5078 20.8776 36.2683 17.8905 39.0289 14.9034H36.4329V9.33361L50.1326 9.34395Z" fill="white"/>
<path d="M64.569 1.80957H51.2515V14.0073L54.1182 10.8777C54.0705 10.7778 53.9877 10.8226 53.9271 10.8226C53.3251 10.8226 52.7231 10.8226 52.1211 10.8226C51.9173 10.8226 51.9013 10.7398 51.9013 10.5641C51.9013 9.71274 51.9013 8.86142 51.9013 8.01009C51.9013 7.78606 51.9523 7.73092 52.1657 7.73092C54.3476 7.73092 56.5295 7.73092 58.7114 7.73092C58.8133 7.73092 58.912 7.73092 59.014 7.71024V15.3997L56.3256 15.4238C56.1632 15.4238 56.1759 15.3308 56.1759 15.217V12.9802C56.0644 13.0939 55.9816 13.1697 55.9084 13.2525C54.3518 14.9413 52.7932 16.6279 51.2324 18.3121V36.4622H64.4225C74.9147 36.4622 80.6672 28.7451 80.6672 18.7533C80.6672 8.76146 74.765 1.80957 64.569 1.80957ZM63.8046 29.1105H60.2084V9.16472H63.9129C69.0379 9.16472 70.9873 13.0181 70.9873 18.7568C71 25.2468 68.8978 29.1105 63.8046 29.1105Z" fill="#FFB400"/>
</svg>
